SplineFontDB: 3.0
FontName: Chivo-LightItalic
FullName: Chivo Light Italic
FamilyName: Chivo
Weight: Light
Copyright: Copyright (c) 2011-2014 by Omnibus-Type (www.omnibus-type.com omnibus.type@gmail.com), with Reserved Font Name 'Chivo'
UComments: "Disclaimer+AAoA +AAoA-Omnibus-Type give no warranty in relation to this font, and you use this+AAoA-at your own risk.+AAoA +AAoA-Omnibus-Type shall not be liable for any direct, indirect, consequential, or incidental damages (including damages from loss of business profits, business interruption, loss of business information, and the like) arising out of the use of or inability to use the fonts.+AAoA +AAoA +AAoA-If you have further questions, please contact us:+AAoA-omnibus.type@gmail.com" 

StartChar: .notdef
Encoding: 0 -1 0
Width: 500
Flags: MW
HStem: 0 50<80 420 80 500> 650 50<80 80 80 420>
VStem: 0 50<95 605 95 700> 450 50<95 605 605 605>
LayerCount: 2
Fore
SplineSet
500 700 m 1,0,-1
 500 0 l 1,1,-1
 0 0 l 1,2,-1
 0 700 l 1,3,-1
 500 700 l 1,0,-1
80 650 m 1,4,-1
 250 395 l 1,5,-1
 420 650 l 1,6,-1
 80 650 l 1,4,-1
220 350 m 1,7,-1
 50 605 l 1,8,-1
 50 95 l 1,9,-1
 220 350 l 1,7,-1
450 605 m 1,10,-1
 280 350 l 1,11,-1
 450 95 l 1,12,-1
 450 605 l 1,10,-1
250 305 m 1,13,-1
 80 50 l 1,14,-1
 420 50 l 1,15,-1
 250 305 l 1,13,-1
EndSplineSet
EndChar

StartChar: A
Encoding: 1 65 1
Width: 650
GlyphClass: 2
Flags: MW
HStem: 0 219<-36 462 -36 462 140 522 140 581> 170 49<113 462 140 462 140 475> 612 74<354 358 354 354> 666 20G<344 394 394 394>
VStem: -36 617<0 0>
LayerCount: 2
Fore
SplineSet
113 170 m 1,0,-1
 19 0 l 1,1,-1
 -36 0 l 1,2,-1
 344 686 l 1,3,-1
 394 686 l 1,4,-1
 581 0 l 1,5,-1
 522 0 l 1,6,-1
 475 170 l 1,7,-1
 113 170 l 1,0,-1
462 219 m 1,8,-1
 358 612 l 1,9,-1
 354 612 l 1,10,-1
 140 219 l 1,11,-1
 462 219 l 1,8,-1
EndSplineSet
Substitution2: "Single Substitution lookup 5 subtable" ordfeminine
Substitution2: "'aalt' Access All Alternates lookup 0 subtable" ordfeminine
Position2: "'cpsp' Capital Spacing lookup 0 subtable" dx=5 dy=0 dh=10 dv=0
EndChar

StartChar: Aacute
Encoding: 2 193 2
Width: 650
GlyphClass: 2
Flags: MW
HStem: 0 219<-36 462 -36 462 140 522 140 581> 170 49<113 462 140 462 140 475> 612 74<354 358 354 354> 666 20G<344 394 394 394> 750 145<346 528 346 528>
VStem: -36 617<0 0>
LayerCount: 2
Fore
SplineSet
463 895 m 1,0,-1
 528 895 l 1,1,-1
 527 892 l 1,2,-1
 396 750 l 1,3,-1
 346 750 l 1,4,-1
 463 895 l 1,0,-1
113 170 m 1,5,-1
 19 0 l 1,6,-1
 -36 0 l 1,7,-1
 344 686 l 1,8,-1
 394 686 l 1,9,-1
 581 0 l 1,10,-1
 522 0 l 1,11,-1
 475 170 l 1,12,-1
 113 170 l 1,5,-1
462 219 m 1,13,-1
 358 612 l 1,14,-1
 354 612 l 1,15,-1
 140 219 l 1,16,-1
 462 219 l 1,13,-1
EndSplineSet
Position2: "'cpsp' Capital Spacing lookup 0 subtable" dx=5 dy=0 dh=10 dv=0
EndChar

StartChar: Abreve
Encoding: 3 258 3
Width: 650
GlyphClass: 2
Flags: MW
HStem: 0 219<-36 462 -36 462 140 522 140 581> 170 49<113 462 140 462 140 475> 612 74<354 358 354 354> 666 20G<344 394 394 394> 788 49<349.5 414.5 349.5 428.5>
VStem: -36 621
LayerCount: 2
Fore
SplineSet
515.5 827.5 m 128,-1,1
 452 788 452 788 377 788 c 128,-1,2
 302 788 302 788 250.5 824.5 c 128,-1,3
 199 861 199 861 199 904 c 0,4,5
 199 909 199 909 200 912 c 1,6,-1
 256 912 l 1,7,8
 263 876 263 876 297 856.5 c 128,-1,9
 331 837 331 837 381.5 837 c 128,-1,10
 432 837 432 837 472 856.5 c 128,-1,11
 512 876 512 876 529 912 c 1,12,-1
 585 912 l 1,13,0
 579 867 579 867 515.5 827.5 c 128,-1,1
113 170 m 1,14,-1
 19 0 l 1,15,-1
 -36 0 l 1,16,-1
 344 686 l 1,17,-1
 394 686 l 1,18,-1
 581 0 l 1,19,-1
 522 0 l 1,20,-1
 475 170 l 1,21,-1
 113 170 l 1,14,-1
462 219 m 1,22,-1
 358 612 l 1,23,-1
 354 612 l 1,24,-1
 140 219 l 1,25,-1
 462 219 l 1,22,-1
EndSplineSet
EndChar

StartChar: Acircumflex
Encoding: 4 194 4
Width: 650
GlyphClass: 2
Flags: MW
HStem: 0 219<-36 462 -36 462 140 522 140 581> 170 49<113 462 140 462 140 475> 612 74<354 358 354 354> 666 20G<344 394 394 394> 750 145<219 432 374 545 374 485>
VStem: -36 617<0 0>
LayerCount: 2
Fore
SplineSet
432 895 m 1,0,-1
 545 750 l 1,1,-1
 485 750 l 1,2,-1
 396 847 l 1,3,-1
 279 750 l 1,4,-1
 219 750 l 1,5,-1
 374 895 l 1,6,-1
 432 895 l 1,0,-1
113 170 m 1,7,-1
 19 0 l 1,8,-1
 -36 0 l 1,9,-1
 344 686 l 1,10,-1
 394 686 l 1,11,-1
 581 0 l 1,12,-1
 522 0 l 1,13,-1
 475 170 l 1,14,-1
 113 170 l 1,7,-1
462 219 m 1,15,-1
 358 612 l 1,16,-1
 354 612 l 1,17,-1
 140 219 l 1,18,-1
 462 219 l 1,15,-1
EndSplineSet
Position2: "'cpsp' Capital Spacing lookup 0 subtable" dx=5 dy=0 dh=10 dv=0
EndChar

StartChar: Adieresis
Encoding: 5 196 5
Width: 650
GlyphClass: 2
Flags: MW
HStem: 0 219<-36 462 -36 462 140 522 140 581> 170 49<113 462 140 462 140 475> 612 74<354 358 354 354> 666 20G<344 394 394 394> 750 69<261 317 252 326 437 493>
VStem: 256.5 65 432.5 65
LayerCount: 2
Fore
SplineSet
326 819 m 1,0,-1
 317 750 l 1,1,-1
 252 750 l 1,2,-1
 261 819 l 1,3,-1
 326 819 l 1,0,-1
502 819 m 1,4,-1
 493 750 l 1,5,-1
 428 750 l 1,6,-1
 437 819 l 1,7,-1
 502 819 l 1,4,-1
113 170 m 1,8,-1
 19 0 l 1,9,-1
 -36 0 l 1,10,-1
 344 686 l 1,11,-1
 394 686 l 1,12,-1
 581 0 l 1,13,-1
 522 0 l 1,14,-1
 475 170 l 1,15,-1
 113 170 l 1,8,-1
462 219 m 1,16,-1
 358 612 l 1,17,-1
 354 612 l 1,18,-1
 140 219 l 1,19,-1
 462 219 l 1,16,-1
EndSplineSet
Position2: "'cpsp' Capital Spacing lookup 0 subtable" dx=5 dy=0 dh=10 dv=0
EndChar

StartChar: Agrave
Encoding: 6 192 6
Width: 650
GlyphClass: 2
Flags: MW
HStem: 0 219<-36 462 -36 462 140 522 140 581> 170 49<113 462 140 462 140 475> 612 74<354 358 354 354> 666 20G<344 394 394 394> 750 145<250 390 250 340>
VStem: -36 617<0 0>
LayerCount: 2
Fore
SplineSet
249 892 m 1,0,-1
 250 895 l 1,1,-1
 315 895 l 1,2,-1
 390 750 l 1,3,-1
 340 750 l 1,4,-1
 249 892 l 1,0,-1
113 170 m 1,5,-1
 19 0 l 1,6,-1
 -36 0 l 1,7,-1
 344 686 l 1,8,-1
 394 686 l 1,9,-1
 581 0 l 1,10,-1
 522 0 l 1,11,-1
 475 170 l 1,12,-1
 113 170 l 1,5,-1
462 219 m 1,13,-1
 358 612 l 1,14,-1
 354 612 l 1,15,-1
 140 219 l 1,16,-1
 462 219 l 1,13,-1
EndSplineSet
Position2: "'cpsp' Capital Spacing lookup 0 subtable" dx=5 dy=0 dh=10 dv=0
EndChar

StartChar: Amacron
Encoding: 7 256 7
Width: 650
GlyphClass: 2
Flags: MW
HStem: 0 219<-36 462 -36 462 140 522 140 581> 170 49<113 462 140 462 140 475> 612 74<354 358 354 354> 666 20G<344 394 394 394> 866 45<242 552 234 560>
VStem: -36 617<0 0>
LayerCount: 2
Fore
SplineSet
242 911 m 1,0,-1
 560 911 l 1,1,-1
 552 866 l 1,2,-1
 234 866 l 1,3,-1
 242 911 l 1,0,-1
113 170 m 1,4,-1
 19 0 l 1,5,-1
 -36 0 l 1,6,-1
 344 686 l 1,7,-1
 394 686 l 1,8,-1
 581 0 l 1,9,-1
 522 0 l 1,10,-1
 475 170 l 1,11,-1
 113 170 l 1,4,-1
462 219 m 1,12,-1
 358 612 l 1,13,-1
 354 612 l 1,14,-1
 140 219 l 1,15,-1
 462 219 l 1,12,-1
EndSplineSet
EndChar

StartChar: Aogonek
Encoding: 8 260 8
Width: 650
GlyphClass: 2
Flags: MW
HStem: -143 43<547.5 561.5> 0 21G<-36 19 -36 -36 522 525 522 522 575 575 575 581> 170 49<140 462 140 475 113 462> 612 74<354 358 354 354> 666 20G<344 394 394 394>
VStem: 460 58<-80 -63.5>
LayerCount: 2
Fore
SplineSet
626 -86 m 1,0,-1
 635 -119 l 1,1,2
 593 -143 593 -143 547 -143 c 0,3,4
 460 -143 460 -143 460 -83 c 0,5,6
 460 -39 460 -39 525 0 c 1,7,-1
 522 0 l 1,8,-1
 475 170 l 1,9,-1
 113 170 l 1,10,-1
 19 0 l 1,11,-1
 -36 0 l 1,12,-1
 344 686 l 1,13,-1
 394 686 l 1,14,-1
 581 0 l 1,15,-1
 575 0 l 1,16,-1
 571 -2 l 1,17,18
 518 -35 518 -35 518 -67.5 c 0,19,20
 518 -100 518 -100 557 -100 c 0,21,22
 582 -100 582 -100 626 -86 c 1,0,-1
462 219 m 1,23,-1
 358 612 l 1,24,-1
 354 612 l 1,25,-1
 140 219 l 1,26,-1
 462 219 l 1,23,-1
EndSplineSet
EndChar

StartChar: Aring
Encoding: 9 197 9
Width: 650
GlyphClass: 2
Flags: MW
HStem: 0 219<-36 462 -36 462 140 522 140 581> 170 49<113 462 140 462 140 475> 612 74<354 358 354 354> 666 20G<344 394 394 394> 720 36<363 398.5 363 406> 885 36<378.5 413.5>
VStem: 286 36<795 831 795 840> 454 36<809.5 846>
LayerCount: 2
Fore
SplineSet
465 896.5 m 128,-1,1
 490 872 490 872 490 830 c 128,-1,2
 490 788 490 788 456 754 c 128,-1,3
 422 720 422 720 379 720 c 128,-1,4
 336 720 336 720 311 744.5 c 128,-1,5
 286 769 286 769 286 812 c 128,-1,6
 286 855 286 855 321.5 888 c 128,-1,7
 357 921 357 921 398.5 921 c 128,-1,0
 440 921 440 921 465 896.5 c 128,-1,1
338.5 771.5 m 128,-1,9
 355 756 355 756 382 756 c 128,-1,10
 409 756 409 756 431.5 778 c 128,-1,11
 454 800 454 800 454 827 c 128,-1,12
 454 854 454 854 438 869.5 c 128,-1,13
 422 885 422 885 395 885 c 128,-1,14
 368 885 368 885 345 863 c 128,-1,15
 322 841 322 841 322 814 c 128,-1,8
 322 787 322 787 338.5 771.5 c 128,-1,9
113 170 m 1,16,-1
 19 0 l 1,17,-1
 -36 0 l 1,18,-1
 344 686 l 1,19,-1
 394 686 l 1,20,-1
 581 0 l 1,21,-1
 522 0 l 1,22,-1
 475 170 l 1,23,-1
 113 170 l 1,16,-1
462 219 m 1,24,-1
 358 612 l 1,25,-1
 354 612 l 1,26,-1
 140 219 l 1,27,-1
 462 219 l 1,24,-1
EndSplineSet
Position2: "'cpsp' Capital Spacing lookup 0 subtable" dx=5 dy=0 dh=10 dv=0
EndChar

StartChar: Atilde
Encoding: 10 195 10
Width: 650
GlyphClass: 2
Flags: MW
HStem: 0 219<-36 462 -36 462 140 522 140 581> 170 49<113 462 140 462 140 475> 612 74<354 358 354 354> 666 20G<344 394 394 394> 750 50<442 485.5 442 494.5> 782 50<275.5 319>
VStem: -36 617<0 0>
LayerCount: 2
Fore
SplineSet
530 832 m 1,0,-1
 567 832 l 1,1,2
 563 802 563 802 535.5 776 c 128,-1,3
 508 750 508 750 465 750 c 0,4,5
 422 750 422 750 370 766 c 128,-1,6
 318 782 318 782 292 782 c 0,7,8
 245 782 245 782 231 750 c 1,9,-1
 194 750 l 1,10,11
 198 780 198 780 225.5 806 c 128,-1,12
 253 832 253 832 296 832 c 0,13,14
 339 832 339 832 391 816 c 128,-1,15
 443 800 443 800 469 800 c 0,16,17
 516 800 516 800 530 832 c 1,0,-1
113 170 m 1,18,-1
 19 0 l 1,19,-1
 -36 0 l 1,20,-1
 344 686 l 1,21,-1
 394 686 l 1,22,-1
 581 0 l 1,23,-1
 522 0 l 1,24,-1
 475 170 l 1,25,-1
 113 170 l 1,18,-1
462 219 m 1,26,-1
 358 612 l 1,27,-1
 354 612 l 1,28,-1
 140 219 l 1,29,-1
 462 219 l 1,26,-1
EndSplineSet
Position2: "'cpsp' Capital Spacing lookup 0 subtable" dx=5 dy=0 dh=10 dv=0
EndChar

StartChar: AE
Encoding: 11 198 11
Width: 981
GlyphClass: 2
Flags: MW
HStem: 0 48<524 864 568 864 568 873> 170 49<150 464 150 477 123 464> 326 48<492 812 492 492> 638 48<407 851 407 407>
VStem: -33 906<0 0>
LayerCount: 2
Fore
SplineSet
477 170 m 1,0,-1
 123 170 l 1,1,-1
 29 0 l 1,2,-1
 -33 0 l 1,3,-1
 348 686 l 1,4,-1
 863 686 l 1,5,-1
 851 638 l 1,6,-1
 407 638 l 1,7,-1
 479 374 l 1,8,-1
 812 374 l 1,9,-1
 812 326 l 1,10,-1
 492 326 l 1,11,-1
 568 48 l 1,12,-1
 864 48 l 1,13,-1
 873 0 l 1,14,-1
 524 0 l 1,15,-1
 477 170 l 1,0,-1
464 219 m 1,16,-1
 361 608 l 1,17,-1
 358 607 l 1,18,-1
 150 219 l 1,19,-1
 464 219 l 1,16,-1
EndSplineSet
Position2: "'cpsp' Capital Spacing lookup 0 subtable" dx=5 dy=0 dh=10 dv=0
EndChar

StartChar: B
Encoding: 12 66 12
Width: 652
GlyphClass: 2
Flags: MW
HStem: 0 48<112 331> 326 48<158 368 368 371 151 368> 638 48<195 405 195 195>
VStem: 494 55<162 240> 522 57<483.5 558.5>
LayerCount: 2
Fore
SplineSet
148 686 m 1,0,-1
 422 686 l 2,1,2
 490 686 490 686 534.5 644 c 128,-1,3
 579 602 579 602 579 532 c 128,-1,4
 579 462 579 462 534 417 c 128,-1,5
 489 372 489 372 435 359 c 1,6,-1
 434 353 l 1,7,8
 464.076502732 349.240437158 464.076502732 349.240437158 502.5 323 c 0,9,10
 523 309 523 309 536 281 c 128,-1,11
 549 253 549 253 549 216 c 0,12,13
 549 129 549 129 484.5 64.5 c 128,-1,14
 420 0 420 0 331 0 c 2,15,-1
 51 0 l 1,16,-1
 148 686 l 1,0,-1
158 374 m 1,17,-1
 368 374 l 2,18,19
 430 374 430 374 476 418.5 c 128,-1,20
 522 463 522 463 522 519 c 128,-1,21
 522 575 522 575 489 606.5 c 128,-1,22
 456 638 456 638 405 638 c 2,23,-1
 195 638 l 1,24,-1
 158 374 l 1,17,-1
112 48 m 1,25,-1
 332 48 l 2,26,27
 396 48 396 48 445 94.5 c 128,-1,28
 494 141 494 141 494 199 c 128,-1,29
 494 257 494 257 459 291.5 c 128,-1,30
 424 326 424 326 371 326 c 2,31,-1
 151 326 l 1,32,-1
 112 48 l 1,25,-1
EndSplineSet
Position2: "'cpsp' Capital Spacing lookup 0 subtable" dx=5 dy=0 dh=10 dv=0
EndChar

StartChar: C
Encoding: 13 67 13
Width: 662
GlyphClass: 2
Flags: MW
HStem: -10 48<232 334.5 232 341> 648 48<308.5 413.5>
VStem: 57 53<151.5 238.5> 542 54<486.5 550.5>
AnchorPoint: "Bottom" 295 0 basechar 0
LayerCount: 2
Fore
SplineSet
513 251 m 1,0,-1
 566 251 l 1,1,2
 556 178 556 178 527.5 125 c 128,-1,3
 499 72 499 72 458.5 43.5 c 0,4,5
 382.473684211 -10 382.473684211 -10 276.736842105 -10 c 128,-1,6
 171 -10 171 -10 114 41.5 c 128,-1,7
 57 93 57 93 57 223 c 0,8,9
 57 274 57 274 69 365 c 128,-1,10
 81 456 81 456 109.5 524.5 c 128,-1,11
 138 593 138 593 180 629.5 c 128,-1,12
 222 666 222 666 268.5 681 c 128,-1,13
 315 696 315 696 374 696 c 0,14,15
 596 696 596 696 596 496 c 0,16,17
 596 471 596 471 591 434 c 1,18,-1
 538 434 l 1,19,20
 542 459 542 459 542 486 c 0,21,22
 542 648 542 648 367 648 c 0,23,24
 274.966101695 648 274.966101695 648 214 593.5 c 0,25,26
 146.934591195 533.547589099 146.934591195 533.547589099 123 368 c 0,27,28
 110 277 110 277 110 227 c 0,29,30
 110 121 110 121 154.5 79.5 c 128,-1,31
 199 38 199 38 282 38 c 0,32,33
 483 38 483 38 513 251 c 1,0,-1
EndSplineSet
Position2: "'cpsp' Capital Spacing lookup 0 subtable" dx=5 dy=0 dh=10 dv=0
EndChar

StartChar: Cacute
Encoding: 14 262 14
Width: 662
GlyphClass: 2
Flags: MW
HStem: -10 48<232 334.5 232 341> 648 48<308.5 413.5> 750 145<360 542 360 542>
VStem: 57 53<151.5 238.5> 542 54<486.5 550.5>
AnchorPoint: "Bottom" 295 0 basechar 0
LayerCount: 2
Fore
SplineSet
477 895 m 1,0,-1
 542 895 l 1,1,-1
 541 892 l 1,2,-1
 410 750 l 1,3,-1
 360 750 l 1,4,-1
 477 895 l 1,0,-1
513 251 m 1,5,-1
 566 251 l 1,6,7
 556 178 556 178 527.5 125 c 128,-1,8
 499 72 499 72 458.5 43.5 c 0,9,10
 382.473684211 -10 382.473684211 -10 276.736842105 -10 c 128,-1,11
 171 -10 171 -10 114 41.5 c 128,-1,12
 57 93 57 93 57 223 c 0,13,14
 57 274 57 274 69 365 c 128,-1,15
 81 456 81 456 109.5 524.5 c 128,-1,16
 138 593 138 593 180 629.5 c 128,-1,17
 222 666 222 666 268.5 681 c 128,-1,18
 315 696 315 696 374 696 c 0,19,20
 596 696 596 696 596 496 c 0,21,22
 596 471 596 471 591 434 c 1,23,-1
 538 434 l 1,24,25
 542 459 542 459 542 486 c 0,26,27
 542 648 542 648 367 648 c 0,28,29
 274.966101695 648 274.966101695 648 214 593.5 c 0,30,31
 146.934591195 533.547589099 146.934591195 533.547589099 123 368 c 0,32,33
 110 277 110 277 110 227 c 0,34,35
 110 121 110 121 154.5 79.5 c 128,-1,36
 199 38 199 38 282 38 c 0,37,38
 483 38 483 38 513 251 c 1,5,-1
EndSplineSet
EndChar

StartChar: Ccaron
Encoding: 15 268 15
Width: 662
GlyphClass: 2
Flags: MW
HStem: -10 48<232 334.5 232 341> 648 48<308.5 413.5> 750 145<248 419 248 361>
VStem: 57 53<151.5 238.5> 542 54<486.5 550.5>
AnchorPoint: "Bottom" 295 0 basechar 0
LayerCount: 2
Fore
SplineSet
308 895 m 1,0,-1
 397 798 l 1,1,-1
 514 895 l 1,2,-1
 574 895 l 1,3,-1
 419 750 l 1,4,-1
 361 750 l 1,5,-1
 248 895 l 1,6,-1
 308 895 l 1,0,-1
513 251 m 1,7,-1
 566 251 l 1,8,9
 556 178 556 178 527.5 125 c 128,-1,10
 499 72 499 72 458.5 43.5 c 0,11,12
 382.473684211 -10 382.473684211 -10 276.736842105 -10 c 128,-1,13
 171 -10 171 -10 114 41.5 c 128,-1,14
 57 93 57 93 57 223 c 0,15,16
 57 274 57 274 69 365 c 128,-1,17
 81 456 81 456 109.5 524.5 c 128,-1,18
 138 593 138 593 180 629.5 c 128,-1,19
 222 666 222 666 268.5 681 c 128,-1,20
 315 696 315 696 374 696 c 0,21,22
 596 696 596 696 596 496 c 0,23,24
 596 471 596 471 591 434 c 1,25,-1
 538 434 l 1,26,27
 542 459 542 459 542 486 c 0,28,29
 542 648 542 648 367 648 c 0,30,31
 274.966101695 648 274.966101695 648 214 593.5 c 0,32,33
 146.934591195 533.547589099 146.934591195 533.547589099 123 368 c 0,34,35
 110 277 110 277 110 227 c 0,36,37
 110 121 110 121 154.5 79.5 c 128,-1,38
 199 38 199 38 282 38 c 0,39,40
 483 38 483 38 513 251 c 1,7,-1
EndSplineSet
EndChar

StartChar: Ccedilla
Encoding: 16 199 16
Width: 662
GlyphClass: 2
Flags: MW
HStem: -197 46<212.5 240 205.5 249> -184 21G<149 149> -51 34<237 254 232 266.5> -10 48<232 334.5 232 341> 648 48<308.5 413.5>
VStem: 57 53<151.5 238.5> 306 51<-115 -77.5> 542 54<486.5 550.5>
LayerCount: 2
Fore
SplineSet
513 251 m 1,0,-1
 566 251 l 1,1,2
 556 178 556 178 527.5 125 c 128,-1,3
 499 72 499 72 458.5 43.5 c 0,4,5
 382.473684211 -10 382.473684211 -10 276.736842105 -10 c 128,-1,6
 171 -10 171 -10 114 41.5 c 128,-1,7
 57 93 57 93 57 223 c 0,8,9
 57 274 57 274 69 365 c 128,-1,10
 81 456 81 456 109.5 524.5 c 128,-1,11
 138 593 138 593 180 629.5 c 128,-1,12
 222 666 222 666 268.5 681 c 128,-1,13
 315 696 315 696 374 696 c 0,14,15
 596 696 596 696 596 496 c 0,16,17
 596 471 596 471 591 434 c 1,18,-1
 538 434 l 1,19,20
 542 459 542 459 542 486 c 0,21,22
 542 648 542 648 367 648 c 0,23,24
 274.966101695 648 274.966101695 648 214 593.5 c 0,25,26
 146.934591195 533.547589099 146.934591195 533.547589099 123 368 c 0,27,28
 110 277 110 277 110 227 c 0,29,30
 110 121 110 121 154.5 79.5 c 128,-1,31
 199 38 199 38 282 38 c 0,32,33
 483 38 483 38 513 251 c 1,0,-1
149 -184 m 1,34,-1
 155 -138 l 1,35,36
 177 -151 177 -151 216 -151 c 0,37,38
 306 -151 306 -151 306 -91 c 0,39,40
 306 -72 306 -72 290.5 -61.5 c 128,-1,41
 275 -51 275 -51 254 -51 c 2,42,-1
 232 -51 l 1,43,-1
 237 -17 l 1,44,45
 326.967741935 -17 326.967741935 -17 347.5 -50.5 c 0,46,47
 357 -66 357 -66 357 -98 c 128,-1,48
 357 -130 357 -130 333 -155.5 c 0,49,50
 293.941176471 -197 293.941176471 -197 225 -197 c 0,51,52
 181 -197 181 -197 149 -184 c 1,34,-1
EndSplineSet
Position2: "'cpsp' Capital Spacing lookup 0 subtable" dx=5 dy=0 dh=10 dv=0
EndChar

StartChar: D
Encoding: 17 68 17
Width: 677
GlyphClass: 2
Flags: MW
HStem: 0 48<112 271> 638 48<195 361 195 195>
VStem: 541 53<435.5 516.5>
LayerCount: 2
Fore
SplineSet
148 686 m 1,0,-1
 368 686 l 2,1,2
 594 686 594 686 594 450 c 0,3,4
 594 406 594 406 583 321.5 c 128,-1,5
 572 237 572 237 543.5 171 c 128,-1,6
 515 105 515 105 472.5 68.5 c 0,7,8
 392.739726027 -1.42108547152e-14 392.739726027 -1.42108547152e-14 271 0 c 2,9,-1
 51 0 l 1,10,-1
 148 686 l 1,0,-1
112 48 m 1,11,-1
 278 48 l 2,12,13
 376 48 376 48 441.5 109 c 128,-1,14
 507 170 507 170 529 322 c 0,15,16
 541 407 541 407 541 441 c 0,17,18
 541 548 541 548 494.5 593 c 128,-1,19
 448 638 448 638 361 638 c 2,20,-1
 195 638 l 1,21,-1
 112 48 l 1,11,-1
EndSplineSet
Position2: "'cpsp' Capital Spacing lookup 0 subtable" dx=5 dy=0 dh=10 dv=0
EndChar

StartChar: Eth
Encoding: 18 208 18
Width: 682
GlyphClass: 2
Flags: MW
HStem: 0 48<125 284> 319 48<16 109 10 116 16 163 170 335> 638 48<208 374 208 208>
VStem: 554 53<435.5 516.5>
LayerCount: 2
Fore
SplineSet
109 319 m 1,0,-1
 10 319 l 1,1,-1
 16 367 l 1,2,-1
 116 367 l 1,3,-1
 161 686 l 1,4,-1
 381 686 l 2,5,6
 607 686 607 686 607 450 c 0,7,8
 607 406 607 406 596 321.5 c 128,-1,9
 585 237 585 237 556.5 171 c 128,-1,10
 528 105 528 105 485.5 68.5 c 0,11,12
 405.739726027 -1.42108547152e-14 405.739726027 -1.42108547152e-14 284 0 c 2,13,-1
 64 0 l 1,14,-1
 109 319 l 1,0,-1
125 48 m 1,15,-1
 291 48 l 2,16,17
 389 48 389 48 454.5 109 c 128,-1,18
 520 170 520 170 542 322 c 0,19,20
 554 407 554 407 554 441 c 0,21,22
 554 548 554 548 507.5 593 c 128,-1,23
 461 638 461 638 374 638 c 2,24,-1
 208 638 l 1,25,-1
 170 367 l 1,26,-1
 342 367 l 1,27,-1
 335 319 l 1,28,-1
 163 319 l 1,29,-1
 125 48 l 1,15,-1
EndSplineSet
Position2: "'cpsp' Capital Spacing lookup 0 subtable" dx=5 dy=0 dh=10 dv=0
EndChar

StartChar: Dcaron
Encoding: 19 270 19
Width: 677
GlyphClass: 2
Flags: MW
HStem: 0 48<112 271> 638 48<195 361 195 195> 750 145<206 377 206 319>
VStem: 541 53<435.5 516.5>
LayerCount: 2
Fore
SplineSet
266 895 m 1,0,-1
 355 798 l 1,1,-1
 472 895 l 1,2,-1
 532 895 l 1,3,-1
 377 750 l 1,4,-1
 319 750 l 1,5,-1
 206 895 l 1,6,-1
 266 895 l 1,0,-1
148 686 m 1,7,-1
 368 686 l 2,8,9
 594 686 594 686 594 450 c 0,10,11
 594 406 594 406 583 321.5 c 128,-1,12
 572 237 572 237 543.5 171 c 128,-1,13
 515 105 515 105 472.5 68.5 c 0,14,15
 392.739726027 -1.42108547152e-14 392.739726027 -1.42108547152e-14 271 0 c 2,16,-1
 51 0 l 1,17,-1
 148 686 l 1,7,-1
112 48 m 1,18,-1
 278 48 l 2,19,20
 376 48 376 48 441.5 109 c 128,-1,21
 507 170 507 170 529 322 c 0,22,23
 541 407 541 407 541 441 c 0,24,25
 541 548 541 548 494.5 593 c 128,-1,26
 448 638 448 638 361 638 c 2,27,-1
 195 638 l 1,28,-1
 112 48 l 1,18,-1
EndSplineSet
EndChar

StartChar: Dcroat
Encoding: 20 272 20
Width: 682
GlyphClass: 2
Flags: MW
HStem: 0 48<125 284> 319 48<16 109 10 116 16 163 170 335> 638 48<208 374 208 208>
VStem: 554 53<435.5 516.5>
LayerCount: 2
Fore
SplineSet
109 319 m 1,0,-1
 10 319 l 1,1,-1
 16 367 l 1,2,-1
 116 367 l 1,3,-1
 161 686 l 1,4,-1
 381 686 l 2,5,6
 607 686 607 686 607 450 c 0,7,8
 607 406 607 406 596 321.5 c 128,-1,9
 585 237 585 237 556.5 171 c 128,-1,10
 528 105 528 105 485.5 68.5 c 0,11,12
 405.739726027 -1.42108547152e-14 405.739726027 -1.42108547152e-14 284 0 c 2,13,-1
 64 0 l 1,14,-1
 109 319 l 1,0,-1
125 48 m 1,15,-1
 291 48 l 2,16,17
 389 48 389 48 454.5 109 c 128,-1,18
 520 170 520 170 542 322 c 0,19,20
 554 407 554 407 554 441 c 0,21,22
 554 548 554 548 507.5 593 c 128,-1,23
 461 638 461 638 374 638 c 2,24,-1
 208 638 l 1,25,-1
 170 367 l 1,26,-1
 342 367 l 1,27,-1
 335 319 l 1,28,-1
 163 319 l 1,29,-1
 125 48 l 1,15,-1
EndSplineSet
EndChar

StartChar: E
Encoding: 21 69 21
Width: 592
GlyphClass: 2
Flags: MW
HStem: 0 48<112 481 112 481> 326 48<158 470 151 477> 638 48<195 559 195 195>
VStem: 51 521
AnchorPoint: "Bottom" 260 0 basechar 0
LayerCount: 2
Fore
SplineSet
148 686 m 1,0,-1
 572 686 l 1,1,-1
 559 638 l 1,2,-1
 195 638 l 1,3,-1
 158 374 l 1,4,-1
 477 374 l 1,5,-1
 470 326 l 1,6,-1
 151 326 l 1,7,-1
 112 48 l 1,8,-1
 481 48 l 1,9,-1
 481 0 l 1,10,-1
 51 0 l 1,11,-1
 148 686 l 1,0,-1
EndSplineSet
Position2: "'cpsp' Capital Spacing lookup 0 subtable" dx=5 dy=0 dh=10 dv=0
EndChar

StartChar: Eacute
Encoding: 22 201 22
Width: 592
GlyphClass: 2
Flags: MW
HStem: 0 48<112 481 112 481> 326 48<158 470 151 477> 638 48<195 559 195 195> 750 145<334 516 334 516>
VStem: 51 521
LayerCount: 2
Fore
SplineSet
451 895 m 1,0,-1
 516 895 l 1,1,-1
 515 892 l 1,2,-1
 384 750 l 1,3,-1
 334 750 l 1,4,-1
 451 895 l 1,0,-1
148 686 m 1,5,-1
 572 686 l 1,6,-1
 559 638 l 1,7,-1
 195 638 l 1,8,-1
 158 374 l 1,9,-1
 477 374 l 1,10,-1
 470 326 l 1,11,-1
 151 326 l 1,12,-1
 112 48 l 1,13,-1
 481 48 l 1,14,-1
 481 0 l 1,15,-1
 51 0 l 1,16,-1
 148 686 l 1,5,-1
EndSplineSet
Position2: "'cpsp' Capital Spacing lookup 0 subtable" dx=5 dy=0 dh=10 dv=0
EndChar

StartChar: Ecaron
Encoding: 23 282 23
Width: 592
GlyphClass: 2
Flags: MW
HStem: 0 48<112 481 112 481> 326 48<158 470 151 477> 638 48<195 559 195 195> 750 145<213 384 213 326>
VStem: 51 521
AnchorPoint: "Bottom" 260 0 basechar 0
LayerCount: 2
Fore
SplineSet
273 895 m 1,0,-1
 362 798 l 1,1,-1
 479 895 l 1,2,-1
 539 895 l 1,3,-1
 384 750 l 1,4,-1
 326 750 l 1,5,-1
 213 895 l 1,6,-1
 273 895 l 1,0,-1
148 686 m 1,7,-1
 572 686 l 1,8,-1
 559 638 l 1,9,-1
 195 638 l 1,10,-1
 158 374 l 1,11,-1
 477 374 l 1,12,-1
 470 326 l 1,13,-1
 151 326 l 1,14,-1
 112 48 l 1,15,-1
 481 48 l 1,16,-1
 481 0 l 1,17,-1
 51 0 l 1,18,-1
 148 686 l 1,7,-1
EndSplineSet
EndChar

StartChar: Ecircumflex
Encoding: 24 202 24
Width: 592
GlyphClass: 2
Flags: MW
HStem: 0 48<112 481 112 481> 326 48<158 470 151 477> 638 48<195 559 195 195> 750 145<199 412 354 525 354 465>
VStem: 51 521
LayerCount: 2
Fore
SplineSet
412 895 m 1,0,-1
 525 750 l 1,1,-1
 465 750 l 1,2,-1
 376 847 l 1,3,-1
 259 750 l 1,4,-1
 199 750 l 1,5,-1
 354 895 l 1,6,-1
 412 895 l 1,0,-1
148 686 m 1,7,-1
 572 686 l 1,8,-1
 559 638 l 1,9,-1
 195 638 l 1,10,-1
 158 374 l 1,11,-1
 477 374 l 1,12,-1
 470 326 l 1,13,-1
 151 326 l 1,14,-1
 112 48 l 1,15,-1
 481 48 l 1,16,-1
 481 0 l 1,17,-1
 51 0 l 1,18,-1
 148 686 l 1,7,-1
EndSplineSet
Position2: "'cpsp' Capital Spacing lookup 0 subtable" dx=5 dy=0 dh=10 dv=0
EndChar

StartChar: Edieresis
Encoding: 25 203 25
Width: 592
GlyphClass: 2
Flags: MW
HStem: 0 48<112 481 112 481> 326 48<158 470 151 477> 638 48<195 559 195 195> 750 69<263 319 254 328 439 495>
VStem: 258.5 65 434.5 65
LayerCount: 2
Fore
SplineSet
328 819 m 1,0,-1
 319 750 l 1,1,-1
 254 750 l 1,2,-1
 263 819 l 1,3,-1
 328 819 l 1,0,-1
504 819 m 1,4,-1
 495 750 l 1,5,-1
 430 750 l 1,6,-1
 439 819 l 1,7,-1
 504 819 l 1,4,-1
148 686 m 1,8,-1
 572 686 l 1,9,-1
 559 638 l 1,10,-1
 195 638 l 1,11,-1
 158 374 l 1,12,-1
 477 374 l 1,13,-1
 470 326 l 1,14,-1
 151 326 l 1,15,-1
 112 48 l 1,16,-1
 481 48 l 1,17,-1
 481 0 l 1,18,-1
 51 0 l 1,19,-1
 148 686 l 1,8,-1
EndSplineSet
Position2: "'cpsp' Capital Spacing lookup 0 subtable" dx=5 dy=0 dh=10 dv=0
EndChar

StartChar: Edotaccent
Encoding: 26 278 26
Width: 592
GlyphClass: 2
Flags: MW
HStem: 0 48<112 481 112 481> 326 48<158 470 151 477> 638 48<195 559 195 195> 779 132<366 392>
VStem: 312 134<834.5 855.5>
AnchorPoint: "Bottom" 260 0 basechar 0
LayerCount: 2
Fore
SplineSet
429.5 894.5 m 128,-1,1
 446 878 446 878 446 851 c 128,-1,2
 446 824 446 824 424 801.5 c 128,-1,3
 402 779 402 779 374 779 c 128,-1,4
 346 779 346 779 329 795 c 128,-1,5
 312 811 312 811 312 838.5 c 128,-1,6
 312 866 312 866 334 888.5 c 128,-1,7
 356 911 356 911 384.5 911 c 128,-1,0
 413 911 413 911 429.5 894.5 c 128,-1,1
148 686 m 1,8,-1
 572 686 l 1,9,-1
 559 638 l 1,10,-1
 195 638 l 1,11,-1
 158 374 l 1,12,-1
 477 374 l 1,13,-1
 470 326 l 1,14,-1
 151 326 l 1,15,-1
 112 48 l 1,16,-1
 481 48 l 1,17,-1
 481 0 l 1,18,-1
 51 0 l 1,19,-1
 148 686 l 1,8,-1
EndSplineSet
EndChar

StartChar: Egrave
Encoding: 27 200 27
Width: 592
GlyphClass: 2
Flags: MW
HStem: 0 48<112 481 112 481> 326 48<158 470 151 477> 638 48<195 559 195 195> 750 145<251 391 251 341>
VStem: 51 521
LayerCount: 2
Fore
SplineSet
250 892 m 1,0,-1
 251 895 l 1,1,-1
 316 895 l 1,2,-1
 391 750 l 1,3,-1
 341 750 l 1,4,-1
 250 892 l 1,0,-1
148 686 m 1,5,-1
 572 686 l 1,6,-1
 559 638 l 1,7,-1
 195 638 l 1,8,-1
 158 374 l 1,9,-1
 477 374 l 1,10,-1
 470 326 l 1,11,-1
 151 326 l 1,12,-1
 112 48 l 1,13,-1
 481 48 l 1,14,-1
 481 0 l 1,15,-1
 51 0 l 1,16,-1
 148 686 l 1,5,-1
EndSplineSet
Position2: "'cpsp' Capital Spacing lookup 0 subtable" dx=5 dy=0 dh=10 dv=0
EndChar

StartChar: Emacron
Encoding: 28 274 28
Width: 592
GlyphClass: 2
Flags: MW
HStem: 0 48<112 481 112 481> 326 48<158 470 151 477> 638 48<195 559 195 195> 866 45<230 540 222 548>
VStem: 51 521
AnchorPoint: "Bottom" 260 0 basechar 0
LayerCount: 2
Fore
SplineSet
230 911 m 1,0,-1
 548 911 l 1,1,-1
 540 866 l 1,2,-1
 222 866 l 1,3,-1
 230 911 l 1,0,-1
148 686 m 1,4,-1
 572 686 l 1,5,-1
 559 638 l 1,6,-1
 195 638 l 1,7,-1
 158 374 l 1,8,-1
 477 374 l 1,9,-1
 470 326 l 1,10,-1
 151 326 l 1,11,-1
 112 48 l 1,12,-1
 481 48 l 1,13,-1
 481 0 l 1,14,-1
 51 0 l 1,15,-1
 148 686 l 1,4,-1
EndSplineSet
EndChar

StartChar: Eogonek
Encoding: 29 280 29
Width: 592
GlyphClass: 2
Flags: MW
HStem: -143 43<426.5 440.5> 0 48<112 404 454 481 454 454> 326 48<158 470 151 477> 638 48<195 195 195 559>
VStem: 339 58<-80 -63.5>
AnchorPoint: "Bottom" 260 0 basechar 0
LayerCount: 2
Fore
SplineSet
195 638 m 1,0,-1
 158 374 l 1,1,-1
 477 374 l 1,2,-1
 470 326 l 1,3,-1
 151 326 l 1,4,-1
 112 48 l 1,5,-1
 481 48 l 1,6,-1
 481 0 l 1,7,-1
 454 0 l 1,8,-1
 450 -2 l 1,9,10
 397 -35 397 -35 397 -67.5 c 0,11,12
 397 -100 397 -100 436 -100 c 0,13,14
 461 -100 461 -100 505 -86 c 1,15,-1
 514 -119 l 1,16,17
 472 -143 472 -143 426 -143 c 0,18,19
 339 -143 339 -143 339 -83 c 0,20,21
 339 -39 339 -39 404 0 c 1,22,-1
 51 0 l 1,23,-1
 148 686 l 1,24,-1
 572 686 l 1,25,-1
 559 638 l 1,26,-1
 195 638 l 1,0,-1
EndSplineSet
EndChar

StartChar: F
Encoding: 30 70 30
Width: 552
GlyphClass: 2
Flags: MW
HStem: 0 21G<51 105 51 51> 326 48<158 444 151 451> 638 48<195 195 195 541>
VStem: 51 503
LayerCount: 2
Fore
SplineSet
195 638 m 1,0,-1
 158 374 l 1,1,-1
 451 374 l 1,2,-1
 444 326 l 1,3,-1
 151 326 l 1,4,-1
 105 0 l 1,5,-1
 51 0 l 1,6,-1
 148 686 l 1,7,-1
 554 686 l 1,8,-1
 541 638 l 1,9,-1
 195 638 l 1,0,-1
EndSplineSet
Position2: "'cpsp' Capital Spacing lookup 0 subtable" dx=5 dy=0 dh=10 dv=0
EndChar

StartChar: G
Encoding: 31 71 31
Width: 675
GlyphClass: 2
Flags: MW
HStem: -10 48<239 323.5> 0 21G<499 536 499 499> 303 47<291 579 297 523> 648 48<308.5 412.5>
VStem: 57 53<151.5 238.5> 496 40 543 54<495.5 555>
AnchorPoint: "Bottom" 302 0 basechar 0
LayerCount: 2
Fore
SplineSet
291 303 m 1,0,-1
 297 350 l 1,1,-1
 579 350 l 1,2,-1
 547 119 l 1,3,4
 537.55 43.4 537.55 43.4 536.5 14 c 2,5,-1
 536 0 l 1,6,-1
 499 0 l 1,7,8
 496 30 496 30 496 92 c 1,9,10
 461 40 461 40 404.5 15 c 128,-1,11
 348 -10 348 -10 285 -10 c 0,12,13
 176 -10 176 -10 116.5 41 c 128,-1,14
 57 92 57 92 57 223 c 0,15,16
 57 274 57 274 69 365 c 128,-1,17
 81 456 81 456 109.5 524.5 c 128,-1,18
 138 593 138 593 180 629.5 c 128,-1,19
 222 666 222 666 268.5 681 c 128,-1,20
 315 696 315 696 374 696 c 0,21,22
 597 696 597 696 597 504 c 0,23,24
 597 476 597 476 593 449 c 1,25,-1
 540 449 l 1,26,27
 543 473 543 473 543 494 c 0,28,29
 543 648 543 648 367 648 c 0,30,31
 274.966101695 648 274.966101695 648 214 593.5 c 0,32,33
 146.934591195 533.547589099 146.934591195 533.547589099 123 368 c 0,34,35
 110 277 110 277 110 227 c 0,36,37
 110 121 110 121 157 79.5 c 128,-1,38
 204 38 204 38 292 38 c 0,39,40
 369.555555556 38 369.555555556 38 429.5 79.5 c 0,41,42
 500.185286104 128.435967302 500.185286104 128.435967302 516 251 c 2,43,-1
 523 303 l 1,44,-1
 291 303 l 1,0,-1
EndSplineSet
Position2: "'cpsp' Capital Spacing lookup 0 subtable" dx=5 dy=0 dh=10 dv=0
EndChar

StartChar: Gbreve
Encoding: 32 286 32
Width: 675
GlyphClass: 2
Flags: MW
HStem: -10 48<239 323.5> 0 21G<499 536 499 499> 303 47<291 579 297 523> 648 48<308.5 412.5> 788 49<339.5 404.5 339.5 418.5>
VStem: 57 53<151.5 238.5> 496 40 543 54<495.5 555>
AnchorPoint: "Bottom" 302 0 basechar 0
LayerCount: 2
Fore
SplineSet
505.5 827.5 m 128,-1,1
 442 788 442 788 367 788 c 128,-1,2
 292 788 292 788 240.5 824.5 c 128,-1,3
 189 861 189 861 189 904 c 0,4,5
 189 909 189 909 190 912 c 1,6,-1
 246 912 l 1,7,8
 253 876 253 876 287 856.5 c 128,-1,9
 321 837 321 837 371.5 837 c 128,-1,10
 422 837 422 837 462 856.5 c 128,-1,11
 502 876 502 876 519 912 c 1,12,-1
 575 912 l 1,13,0
 569 867 569 867 505.5 827.5 c 128,-1,1
291 303 m 1,14,-1
 297 350 l 1,15,-1
 579 350 l 1,16,-1
 547 119 l 1,17,18
 537.55 43.4 537.55 43.4 536.5 14 c 2,19,-1
 536 0 l 1,20,-1
 499 0 l 1,21,22
 496 30 496 30 496 92 c 1,23,24
 461 40 461 40 404.5 15 c 128,-1,25
 348 -10 348 -10 285 -10 c 0,26,27
 176 -10 176 -10 116.5 41 c 128,-1,28
 57 92 57 92 57 223 c 0,29,30
 57 274 57 274 69 365 c 128,-1,31
 81 456 81 456 109.5 524.5 c 128,-1,32
 138 593 138 593 180 629.5 c 128,-1,33
 222 666 222 666 268.5 681 c 128,-1,34
 315 696 315 696 374 696 c 0,35,36
 597 696 597 696 597 504 c 0,37,38
 597 476 597 476 593 449 c 1,39,-1
 540 449 l 1,40,41
 543 473 543 473 543 494 c 0,42,43
 543 648 543 648 367 648 c 0,44,45
 274.966101695 648 274.966101695 648 214 593.5 c 0,46,47
 146.934591195 533.547589099 146.934591195 533.547589099 123 368 c 0,48,49
 110 277 110 277 110 227 c 0,50,51
 110 121 110 121 157 79.5 c 128,-1,52
 204 38 204 38 292 38 c 0,53,54
 369.555555556 38 369.555555556 38 429.5 79.5 c 0,55,56
 500.185286104 128.435967302 500.185286104 128.435967302 516 251 c 2,57,-1
 523 303 l 1,58,-1
 291 303 l 1,14,-1
EndSplineSet
EndChar

StartChar: Gcommaaccent
Encoding: 33 290 33
Width: 675
GlyphClass: 2
Flags: MW
HStem: -149 69<256 271 247 321> -10 48<239 323.5> 0 21G<499 536 499 499> 303 47<291 579 297 523> 648 48<308.5 412.5>
VStem: 57 53<151.5 238.5> 251.5 65.5 496 40 543 54<495.5 555>
AnchorPoint: "Bottom" 302 0 basechar 0
LayerCount: 2
Fore
SplineSet
291 303 m 1,0,-1
 297 350 l 1,1,-1
 579 350 l 1,2,-1
 547 119 l 1,3,4
 537.55 43.4 537.55 43.4 536.5 14 c 2,5,-1
 536 0 l 1,6,-1
 499 0 l 1,7,8
 496 30 496 30 496 92 c 1,9,10
 461 40 461 40 404.5 15 c 128,-1,11
 348 -10 348 -10 285 -10 c 0,12,13
 176 -10 176 -10 116.5 41 c 128,-1,14
 57 92 57 92 57 223 c 0,15,16
 57 274 57 274 69 365 c 128,-1,17
 81 456 81 456 109.5 524.5 c 128,-1,18
 138 593 138 593 180 629.5 c 128,-1,19
 222 666 222 666 268.5 681 c 128,-1,20
 315 696 315 696 374 696 c 0,21,22
 597 696 597 696 597 504 c 0,23,24
 597 476 597 476 593 449 c 1,25,-1
 540 449 l 1,26,27
 543 473 543 473 543 494 c 0,28,29
 543 648 543 648 367 648 c 0,30,31
 274.966101695 648 274.966101695 648 214 593.5 c 0,32,33
 146.934591195 533.547589099 146.934591195 533.547589099 123 368 c 0,34,35
 110 277 110 277 110 227 c 0,36,37
 110 121 110 121 157 79.5 c 128,-1,38
 204 38 204 38 292 38 c 0,39,40
 369.555555556 38 369.555555556 38 429.5 79.5 c 0,41,42
 500.185286104 128.435967302 500.185286104 128.435967302 516 251 c 2,43,-1
 523 303 l 1,44,-1
 291 303 l 1,0,-1
267 -250 m 1,45,-1
 233 -250 l 1,46,-1
 271 -149 l 1,47,-1
 247 -149 l 1,48,-1
 256 -80 l 1,49,-1
 321 -80 l 1,50,-1
 313 -138 l 1,51,-1
 267 -250 l 1,45,-1
EndSplineSet
EndChar

StartChar: H
Encoding: 34 72 34
Width: 693
GlyphClass: 2
Flags: MW
HStem: 0 21G<51 105 51 51 476 476 476 530> 326 48<158 522 151 529> 666 20G<148 202 202 202 573 627 627 627>
VStem: 51 576
LayerCount: 2
Fore
SplineSet
522 326 m 1,0,-1
 151 326 l 1,1,-1
 105 0 l 1,2,-1
 51 0 l 1,3,-1
 148 686 l 1,4,-1
 202 686 l 1,5,-1
 158 374 l 1,6,-1
 529 374 l 1,7,-1
 573 686 l 1,8,-1
 627 686 l 1,9,-1
 530 0 l 1,10,-1
 476 0 l 1,11,-1
 522 326 l 1,0,-1
EndSplineSet
Position2: "'cpsp' Capital Spacing lookup 0 subtable" dx=5 dy=0 dh=10 dv=0
EndChar

StartChar: I
Encoding: 35 73 35
Width: 365
GlyphClass: 2
Flags: MW
HStem: 0 49<19 98 152 224 12 98> 637 49<109 181 102 321 235 314 235 235>
VStem: 12 309
LayerCount: 2
Fore
SplineSet
321 686 m 1,0,-1
 314 637 l 1,1,-1
 235 637 l 1,2,-1
 152 49 l 1,3,-1
 231 49 l 1,4,-1
 224 0 l 1,5,-1
 12 0 l 1,6,-1
 19 49 l 1,7,-1
 98 49 l 1,8,-1
 181 637 l 1,9,-1
 102 637 l 1,10,-1
 109 686 l 1,11,-1
 321 686 l 1,0,-1
EndSplineSet
Position2: "'cpsp' Capital Spacing lookup 0 subtable" dx=5 dy=0 dh=10 dv=0
EndChar

StartChar: Iacute
Encoding: 36 205 36
Width: 365
GlyphClass: 2
Flags: MW
HStem: 0 49<19 98 152 224 12 98> 637 49<109 181 102 321 235 314 235 235> 750 145<194 376 194 376>
VStem: 12 364
LayerCount: 2
Fore
SplineSet
311 895 m 1,0,-1
 376 895 l 1,1,-1
 375 892 l 1,2,-1
 244 750 l 1,3,-1
 194 750 l 1,4,-1
 311 895 l 1,0,-1
321 686 m 1,5,-1
 314 637 l 1,6,-1
 235 637 l 1,7,-1
 152 49 l 1,8,-1
 231 49 l 1,9,-1
 224 0 l 1,10,-1
 12 0 l 1,11,-1
 19 49 l 1,12,-1
 98 49 l 1,13,-1
 181 637 l 1,14,-1
 102 637 l 1,15,-1
 109 686 l 1,16,-1
 321 686 l 1,5,-1
EndSplineSet
Position2: "'cpsp' Capital Spacing lookup 0 subtable" dx=5 dy=0 dh=10 dv=0
EndChar

StartChar: Icircumflex
Encoding: 37 206 37
Width: 365
GlyphClass: 2
Flags: MW
HStem: 0 49<19 98 152 224 12 98> 637 49<109 181 102 321 235 314 235 235> 750 145<61 274 216 387 216 327>
VStem: 12 375
LayerCount: 2
Fore
SplineSet
274 895 m 1,0,-1
 387 750 l 1,1,-1
 327 750 l 1,2,-1
 238 847 l 1,3,-1
 121 750 l 1,4,-1
 61 750 l 1,5,-1
 216 895 l 1,6,-1
 274 895 l 1,0,-1
321 686 m 1,7,-1
 314 637 l 1,8,-1
 235 637 l 1,9,-1
 152 49 l 1,10,-1
 231 49 l 1,11,-1
 224 0 l 1,12,-1
 12 0 l 1,13,-1
 19 49 l 1,14,-1
 98 49 l 1,15,-1
 181 637 l 1,16,-1
 102 637 l 1,17,-1
 109 686 l 1,18,-1
 321 686 l 1,7,-1
EndSplineSet
Position2: "'cpsp' Capital Spacing lookup 0 subtable" dx=5 dy=0 dh=10 dv=0
EndChar

StartChar: Idieresis
Encoding: 38 207 38
Width: 365
GlyphClass: 2
Flags: MW
HStem: 0 49<19 98 152 224 12 98> 637 49<109 181 102 321 235 314 235 235> 751 69<111 167 102 176 287 343>
VStem: 106.5 65 282.5 65
LayerCount: 2
Fore
SplineSet
176 820 m 1,0,-1
 167 751 l 1,1,-1
 102 751 l 1,2,-1
 111 820 l 1,3,-1
 176 820 l 1,0,-1
352 820 m 1,4,-1
 343 751 l 1,5,-1
 278 751 l 1,6,-1
 287 820 l 1,7,-1
 352 820 l 1,4,-1
321 686 m 1,8,-1
 314 637 l 1,9,-1
 235 637 l 1,10,-1
 152 49 l 1,11,-1
 231 49 l 1,12,-1
 224 0 l 1,13,-1
 12 0 l 1,14,-1
 19 49 l 1,15,-1
 98 49 l 1,16,-1
 181 637 l 1,17,-1
 102 637 l 1,18,-1
 109 686 l 1,19,-1
 321 686 l 1,8,-1
EndSplineSet
Position2: "'cpsp' Capital Spacing lookup 0 subtable" dx=5 dy=0 dh=10 dv=0
EndChar

StartChar: Idotaccent
Encoding: 39 304 39
Width: 365
GlyphClass: 2
Flags: MW
HStem: 0 49<19 98 152 224 12 98> 637 49<109 181 102 321 235 314 235 235> 779 132<224 250>
VStem: 170 134<834.5 855.5>
LayerCount: 2
Fore
SplineSet
287.5 894.5 m 128,-1,1
 304 878 304 878 304 851 c 128,-1,2
 304 824 304 824 282 801.5 c 128,-1,3
 260 779 260 779 232 779 c 128,-1,4
 204 779 204 779 187 795 c 128,-1,5
 170 811 170 811 170 838.5 c 128,-1,6
 170 866 170 866 192 888.5 c 128,-1,7
 214 911 214 911 242.5 911 c 128,-1,0
 271 911 271 911 287.5 894.5 c 128,-1,1
321 686 m 1,8,-1
 314 637 l 1,9,-1
 235 637 l 1,10,-1
 152 49 l 1,11,-1
 231 49 l 1,12,-1
 224 0 l 1,13,-1
 12 0 l 1,14,-1
 19 49 l 1,15,-1
 98 49 l 1,16,-1
 181 637 l 1,17,-1
 102 637 l 1,18,-1
 109 686 l 1,19,-1
 321 686 l 1,8,-1
EndSplineSet
EndChar

StartChar: Igrave
Encoding: 40 204 40
Width: 365
GlyphClass: 2
Flags: MW
HStem: 0 49<19 98 152 224 12 98> 637 49<109 181 102 321 235 314 235 235> 750 145<109 249 109 199>
VStem: 12 309
LayerCount: 2
Fore
SplineSet
108 892 m 1,0,-1
 109 895 l 1,1,-1
 174 895 l 1,2,-1
 249 750 l 1,3,-1
 199 750 l 1,4,-1
 108 892 l 1,0,-1
321 686 m 1,5,-1
 314 637 l 1,6,-1
 235 637 l 1,7,-1
 152 49 l 1,8,-1
 231 49 l 1,9,-1
 224 0 l 1,10,-1
 12 0 l 1,11,-1
 19 49 l 1,12,-1
 98 49 l 1,13,-1
 181 637 l 1,14,-1
 102 637 l 1,15,-1
 109 686 l 1,16,-1
 321 686 l 1,5,-1
EndSplineSet
Position2: "'cpsp' Capital Spacing lookup 0 subtable" dx=5 dy=0 dh=10 dv=0
EndChar

StartChar: Imacron
Encoding: 41 298 41
Width: 365
GlyphClass: 2
Flags: MW
HStem: 0 49<19 98 152 224 12 98> 637 49<109 181 102 321 235 314 235 235> 866 45<88 398 80 406>
VStem: 12 394
LayerCount: 2
Fore
SplineSet
88 911 m 1,0,-1
 406 911 l 1,1,-1
 398 866 l 1,2,-1
 80 866 l 1,3,-1
 88 911 l 1,0,-1
321 686 m 1,4,-1
 314 637 l 1,5,-1
 235 637 l 1,6,-1
 152 49 l 1,7,-1
 231 49 l 1,8,-1
 224 0 l 1,9,-1
 12 0 l 1,10,-1
 19 49 l 1,11,-1
 98 49 l 1,12,-1
 181 637 l 1,13,-1
 102 637 l 1,14,-1
 109 686 l 1,15,-1
 321 686 l 1,4,-1
EndSplineSet
EndChar

StartChar: Iogonek
Encoding: 42 302 42
Width: 365
GlyphClass: 2
Flags: MW
HStem: -143 43<191.5 205.5> 0 49<19 98 152 169 12 98 219 224 219 219> 637 49<109 181 102 321 235 314 235 235>
VStem: 104 58<-80 -63.5>
LayerCount: 2
Fore
SplineSet
235 637 m 1,0,-1
 152 49 l 1,1,-1
 231 49 l 1,2,-1
 224 0 l 1,3,-1
 219 0 l 1,4,-1
 215 -2 l 1,5,6
 162 -35 162 -35 162 -67.5 c 0,7,8
 162 -100 162 -100 201 -100 c 0,9,10
 226 -100 226 -100 270 -86 c 1,11,-1
 279 -119 l 1,12,13
 237 -143 237 -143 191 -143 c 0,14,15
 104 -143 104 -143 104 -83 c 0,16,17
 104 -39 104 -39 169 0 c 1,18,-1
 12 0 l 1,19,-1
 19 49 l 1,20,-1
 98 49 l 1,21,-1
 181 637 l 1,22,-1
 102 637 l 1,23,-1
 109 686 l 1,24,-1
 321 686 l 1,25,-1
 314 637 l 1,26,-1
 235 637 l 1,0,-1
EndSplineSet
EndChar

StartChar: J
Encoding: 43 74 43
Width: 525
GlyphClass: 2
Flags: MW
HStem: -10 48<148 221.5 148 235> 666 20G<413 467 467 467>
VStem: 10 51<108 140>
LayerCount: 2
Fore
SplineSet
15 185 m 1,0,-1
 65 185 l 1,1,2
 61 163 61 163 61 146 c 0,3,4
 61 91 61 91 94 64.5 c 128,-1,5
 127 38 127 38 186 38 c 0,6,7
 245 38 245 38 288.5 71.5 c 128,-1,8
 332 105 332 105 341 172 c 2,9,-1
 413 686 l 1,10,-1
 467 686 l 1,11,-1
 394 166 l 2,12,13
 382 81 382 81 324 35.5 c 128,-1,14
 266 -10 266 -10 184 -10 c 0,15,16
 102 -10 102 -10 56 27.5 c 128,-1,17
 10 65 10 65 10 135 c 0,18,19
 10 155 10 155 15 185 c 1,0,-1
EndSplineSet
Position2: "'cpsp' Capital Spacing lookup 0 subtable" dx=5 dy=0 dh=10 dv=0
EndChar

StartChar: K
Encoding: 44 75 44
Width: 621
GlyphClass: 2
Flags: MW
HStem: 0 21G<51 105 51 51 472 540 472 472> 666 20G<148 202 202 202 565 629 629 629>
VStem: 51 578
AnchorPoint: "Bottom" 275 0 basechar 0
LayerCount: 2
Fore
SplineSet
202 686 m 1,0,-1
 145 279 l 1,1,-1
 565 686 l 1,2,-1
 629 686 l 1,3,-1
 320 387 l 1,4,-1
 540 0 l 1,5,-1
 472 0 l 1,6,-1
 277 346 l 1,7,-1
 135 208 l 1,8,-1
 105 0 l 1,9,-1
 51 0 l 1,10,-1
 148 686 l 1,11,-1
 202 686 l 1,0,-1
EndSplineSet
Position2: "'cpsp' Capital Spacing lookup 0 subtable" dx=5 dy=0 dh=10 dv=0
EndChar

StartChar: Kcommaaccent
Encoding: 45 310 45
Width: 621
GlyphClass: 2
Flags: MW
HStem: -149 69<229 244 220 294> 0 21G<51 105 51 51 472 540 472 472> 666 20G<148 202 202 202 565 629 629 629>
VStem: 224.5 65.5
AnchorPoint: "Bottom" 275 0 basechar 0
LayerCount: 2
Fore
SplineSet
202 686 m 1,0,-1
 145 279 l 1,1,-1
 565 686 l 1,2,-1
 629 686 l 1,3,-1
 320 387 l 1,4,-1
 540 0 l 1,5,-1
 472 0 l 1,6,-1
 277 346 l 1,7,-1
 135 208 l 1,8,-1
 105 0 l 1,9,-1
 51 0 l 1,10,-1
 148 686 l 1,11,-1
 202 686 l 1,0,-1
240 -250 m 1,12,-1
 206 -250 l 1,13,-1
 244 -149 l 1,14,-1
 220 -149 l 1,15,-1
 229 -80 l 1,16,-1
 294 -80 l 1,17,-1
 286 -138 l 1,18,-1
 240 -250 l 1,12,-1
EndSplineSet
EndChar

StartChar: L
Encoding: 46 76 46
Width: 532
GlyphClass: 2
Flags: MW
HStem: 0 48<112 454 112 454> 666 20G<148 202 202 202>
VStem: 51 403<0 48>
AnchorPoint: "Bottom" 230 0 basechar 0
LayerCount: 2
Fore
SplineSet
148 686 m 1,0,-1
 202 686 l 1,1,-1
 112 48 l 1,2,-1
 454 48 l 1,3,-1
 454 0 l 1,4,-1
 51 0 l 1,5,-1
 148 686 l 1,0,-1
EndSplineSet
Position2: "'cpsp' Capital Spacing lookup 0 subtable" dx=5 dy=0 dh=10 dv=0
EndChar

StartChar: Lacute
Encoding: 47 313 47
Width: 532
GlyphClass: 2
Flags: MW
HStem: 0 48<112 454 112 454> 666 20G<148 202 202 202> 750 145<143 325 143 325>
VStem: 51 403<0 48>
AnchorPoint: "Bottom" 230 0 basechar 0
LayerCount: 2
Fore
SplineSet
260 895 m 1,0,-1
 325 895 l 1,1,-1
 324 892 l 1,2,-1
 193 750 l 1,3,-1
 143 750 l 1,4,-1
 260 895 l 1,0,-1
148 686 m 1,5,-1
 202 686 l 1,6,-1
 112 48 l 1,7,-1
 454 48 l 1,8,-1
 454 0 l 1,9,-1
 51 0 l 1,10,-1
 148 686 l 1,5,-1
EndSplineSet
EndChar

StartChar: Lcaron
Encoding: 48 317 48
Width: 532
GlyphClass: 2
Flags: MW
HStem: 0 48<112 454 112 454> 496 20G<517 551 517 517.5> 516 170<539 551> 617 69<539 554>
VStem: 534.5 65.5
AnchorPoint: "Bottom" 230 0 basechar 0
LayerCount: 2
Fore
SplineSet
148 686 m 1,0,-1
 202 686 l 1,1,-1
 112 48 l 1,2,-1
 454 48 l 1,3,-1
 454 0 l 1,4,-1
 51 0 l 1,5,-1
 148 686 l 1,0,-1
551 516 m 1,6,-1
 517 516 l 1,7,-1
 554 617 l 1,8,-1
 530 617 l 1,9,-1
 539 686 l 1,10,-1
 604 686 l 1,11,-1
 596 628 l 1,12,-1
 551 516 l 1,6,-1
EndSplineSet
EndChar

StartChar: Lcommaaccent
Encoding: 49 315 49
Width: 532
GlyphClass: 2
Flags: MW
HStem: -149 69<184 199 175 249> 0 48<112 454 112 454> 666 20G<148 202 202 202>
VStem: 179.5 65.5
AnchorPoint: "Bottom" 230 0 basechar 0
LayerCount: 2
Fore
SplineSet
148 686 m 1,0,-1
 202 686 l 1,1,-1
 112 48 l 1,2,-1
 454 48 l 1,3,-1
 454 0 l 1,4,-1
 51 0 l 1,5,-1
 148 686 l 1,0,-1
195 -250 m 1,6,-1
 161 -250 l 1,7,-1
 199 -149 l 1,8,-1
 175 -149 l 1,9,-1
 184 -80 l 1,10,-1
 249 -80 l 1,11,-1
 241 -138 l 1,12,-1
 195 -250 l 1,6,-1
EndSplineSet
EndChar

StartChar: Lslash
Encoding: 50 321 50
Width: 534
GlyphClass: 2
Flags: MW
HStem: 0 48<126 466 126 471> 666 20G<162 216 216 216>
VStem: 33 438<0 294>
LayerCount: 2
Fore
SplineSet
170 358 m 1,0,-1
 126 48 l 1,1,-1
 466 48 l 1,2,-1
 471 0 l 1,3,-1
 65 0 l 1,4,-1
 112 331 l 1,5,-1
 33 294 l 1,6,-1
 39 338 l 1,7,-1
 118 375 l 1,8,-1
 162 686 l 1,9,-1
 216 686 l 1,10,-1
 176 402 l 1,11,-1
 339 479 l 1,12,-1
 332 435 l 1,13,-1
 170 358 l 1,0,-1
EndSplineSet
Position2: "'cpsp' Capital Spacing lookup 0 subtable" dx=5 dy=0 dh=10 dv=0
EndChar

StartChar: M
Encoding: 51 77 51
Width: 938
GlyphClass: 2
Flags: MW
HStem: 0 70<414 418 414 428 377 418> 625 61<187 192 187 187 791 796 791 791>
VStem: 51 808<0 686>
LayerCount: 2
Fore
SplineSet
796 625 m 1,0,-1
 791 625 l 1,1,-1
 428 0 l 1,2,-1
 377 0 l 1,3,-1
 192 625 l 1,4,-1
 187 625 l 1,5,-1
 99 0 l 1,6,-1
 51 0 l 1,7,-1
 148 686 l 1,8,-1
 234 686 l 1,9,-1
 414 70 l 1,10,-1
 418 70 l 1,11,-1
 774 686 l 1,12,-1
 859 686 l 1,13,-1
 762 0 l 1,14,-1
 708 0 l 1,15,-1
 796 625 l 1,0,-1
EndSplineSet
Position2: "'cpsp' Capital Spacing lookup 0 subtable" dx=5 dy=0 dh=10 dv=0
EndChar

StartChar: N
Encoding: 52 78 52
Width: 694
GlyphClass: 2
Flags: MW
HStem: 0 21G<51 99 51 51 482 482 482 530> 0 103<482 497 493 497 493 530> 583 103<181 185 181 181> 666 20G<148 194 194 194 579 627 627 627>
VStem: 51 576
AnchorPoint: "Bottom" 311 0 basechar 0
LayerCount: 2
Fore
SplineSet
185 583 m 1,0,-1
 181 583 l 1,1,-1
 99 0 l 1,2,-1
 51 0 l 1,3,-1
 148 686 l 1,4,-1
 194 686 l 1,5,-1
 493 103 l 1,6,-1
 497 103 l 1,7,-1
 579 686 l 1,8,-1
 627 686 l 1,9,-1
 530 0 l 1,10,-1
 482 0 l 1,11,-1
 185 583 l 1,0,-1
EndSplineSet
Position2: "'cpsp' Capital Spacing lookup 0 subtable" dx=5 dy=0 dh=10 dv=0
EndChar

StartChar: Nacute
Encoding: 53 323 53
Width: 694
GlyphClass: 2
Flags: MW
HStem: 0 21G<51 99 51 51 482 482 482 530> 0 103<482 497 493 497 493 530> 583 103<181 185 181 181> 666 20G<148 194 194 194 579 627 627 627> 750 145<346 528 346 528>
VStem: 51 576
AnchorPoint: "Bottom" 311 0 basechar 0
LayerCount: 2
Fore
SplineSet
463 895 m 1,0,-1
 528 895 l 1,1,-1
 527 892 l 1,2,-1
 396 750 l 1,3,-1
 346 750 l 1,4,-1
 463 895 l 1,0,-1
185 583 m 1,5,-1
 181 583 l 1,6,-1
 99 0 l 1,7,-1
 51 0 l 1,8,-1
 148 686 l 1,9,-1
 194 686 l 1,10,-1
 493 103 l 1,11,-1
 497 103 l 1,12,-1
 579 686 l 1,13,-1
 627 686 l 1,14,-1
 530 0 l 1,15,-1
 482 0 l 1,16,-1
 185 583 l 1,5,-1
EndSplineSet
EndChar

StartChar: Ncaron
Encoding: 54 327 54
Width: 694
GlyphClass: 2
Flags: MW
HStem: 0 21G<51 99 51 51 482 482 482 530> 0 103<482 497 493 497 493 530> 583 103<181 185 181 181> 666 20G<148 194 194 194 579 627 627 627> 750 145<234 405 234 347>
VStem: 51 576
AnchorPoint: "Bottom" 311 0 basechar 0
LayerCount: 2
Fore
SplineSet
294 895 m 1,0,-1
 383 798 l 1,1,-1
 500 895 l 1,2,-1
 560 895 l 1,3,-1
 405 750 l 1,4,-1
 347 750 l 1,5,-1
 234 895 l 1,6,-1
 294 895 l 1,0,-1
185 583 m 1,7,-1
 181 583 l 1,8,-1
 99 0 l 1,9,-1
 51 0 l 1,10,-1
 148 686 l 1,11,-1
 194 686 l 1,12,-1
 493 103 l 1,13,-1
 497 103 l 1,14,-1
 579 686 l 1,15,-1
 627 686 l 1,16,-1
 530 0 l 1,17,-1
 482 0 l 1,18,-1
 185 583 l 1,7,-1
EndSplineSet
EndChar

StartChar: Ncommaaccent
Encoding: 55 325 55
Width: 694
GlyphClass: 2
Flags: MW
HStem: -149 69<265 280 256 330> 0 21G<51 99 51 51 482 482 482 530> 0 103<482 497 493 497 493 530> 583 103<181 185 181 181> 666 20G<148 194 194 194 579 627 627 627>
VStem: 260.5 65.5
AnchorPoint: "Bottom" 311 0 basechar 0
LayerCount: 2
Fore
SplineSet
185 583 m 1,0,-1
 181 583 l 1,1,-1
 99 0 l 1,2,-1
 51 0 l 1,3,-1
 148 686 l 1,4,-1
 194 686 l 1,5,-1
 493 103 l 1,6,-1
 497 103 l 1,7,-1
 579 686 l 1,8,-1
 627 686 l 1,9,-1
 530 0 l 1,10,-1
 482 0 l 1,11,-1
 185 583 l 1,0,-1
276 -250 m 1,12,-1
 242 -250 l 1,13,-1
 280 -149 l 1,14,-1
 256 -149 l 1,15,-1
 265 -80 l 1,16,-1
 330 -80 l 1,17,-1
 322 -138 l 1,18,-1
 276 -250 l 1,12,-1
EndSplineSet
EndChar

StartChar: Ntilde
Encoding: 56 209 56
Width: 694
GlyphClass: 2
Flags: MW
HStem: 0 21G<51 99 51 51 482 482 482 530> 0 103<482 497 493 497 493 530> 583 103<181 185 181 181> 666 20G<148 194 194 194 579 627 627 627> 750 50<467 510.5 467 519.5> 782 50<300.5 344>
VStem: 51 576
LayerCount: 2
Fore
SplineSet
555 832 m 1,0,-1
 592 832 l 1,1,2
 588 802 588 802 560.5 776 c 128,-1,3
 533 750 533 750 490 750 c 0,4,5
 447 750 447 750 395 766 c 128,-1,6
 343 782 343 782 317 782 c 0,7,8
 270 782 270 782 256 750 c 1,9,-1
 219 750 l 1,10,11
 223 780 223 780 250.5 806 c 128,-1,12
 278 832 278 832 321 832 c 0,13,14
 364 832 364 832 416 816 c 128,-1,15
 468 800 468 800 494 800 c 0,16,17
 541 800 541 800 555 832 c 1,0,-1
185 583 m 1,18,-1
 181 583 l 1,19,-1
 99 0 l 1,20,-1
 51 0 l 1,21,-1
 148 686 l 1,22,-1
 194 686 l 1,23,-1
 493 103 l 1,24,-1
 497 103 l 1,25,-1
 579 686 l 1,26,-1
 627 686 l 1,27,-1
 530 0 l 1,28,-1
 482 0 l 1,29,-1
 185 583 l 1,18,-1
EndSplineSet
Position2: "'cpsp' Capital Spacing lookup 0 subtable" dx=5 dy=0 dh=10 dv=0
EndChar

StartChar: O
Encoding: 57 79 57
Width: 690
GlyphClass: 2
Flags: MW
HStem: -10 48<239.5 348.5 239.5 356.5> 648 48<316.5 425>
VStem: 57 53<154.5 243> 555 53<443 531.5>
LayerCount: 2
Fore
SplineSet
283 -10 m 0,0,1
 177 -10 177 -10 117 42.5 c 128,-1,2
 57 95 57 95 57 228 c 0,3,4
 57 277 57 277 69 366.5 c 128,-1,5
 81 456 81 456 111 525 c 128,-1,6
 141 594 141 594 184.5 630 c 0,7,8
 264.25 696 264.25 696 376.125 696 c 128,-1,9
 488 696 488 696 548 643.5 c 128,-1,10
 608 591 608 591 608 458 c 0,11,12
 608 418 608 418 596 324 c 128,-1,13
 584 230 584 230 554.5 161 c 128,-1,14
 525 92 525 92 481 56 c 128,-1,15
 437 20 437 20 390 5 c 128,-1,16
 343 -10 343 -10 283 -10 c 0,0,1
157.5 81 m 128,-1,18
 205 38 205 38 297.5 38 c 128,-1,19
 390 38 390 38 455 99 c 128,-1,20
 520 160 520 160 542 318 c 0,21,22
 555 415 555 415 555 454 c 0,23,24
 555 562 555 562 507 605 c 128,-1,25
 459 648 459 648 367.5 648 c 128,-1,26
 276 648 276 648 211 587 c 128,-1,27
 146 526 146 526 123 368 c 0,28,29
 110 279 110 279 110 232 c 0,30,17
 110 124 110 124 157.5 81 c 128,-1,18
EndSplineSet
Substitution2: "Single Substitution lookup 5 subtable" ordmasculine
Substitution2: "'aalt' Access All Alternates lookup 0 subtable" ordmasculine
Position2: "'cpsp' Capital Spacing lookup 0 subtable" dx=5 dy=0 dh=10 dv=0
EndChar

StartChar: Oacute
Encoding: 58 211 58
Width: 690
GlyphClass: 2
Flags: MW
HStem: -10 48<239.5 348.5 239.5 356.5> 648 48<316.5 425> 750 145<368 550 368 550>
VStem: 57 53<154.5 243> 555 53<443 531.5>
LayerCount: 2
Fore
SplineSet
485 895 m 1,0,-1
 550 895 l 1,1,-1
 549 892 l 1,2,-1
 418 750 l 1,3,-1
 368 750 l 1,4,-1
 485 895 l 1,0,-1
283 -10 m 0,5,6
 177 -10 177 -10 117 42.5 c 128,-1,7
 57 95 57 95 57 228 c 0,8,9
 57 277 57 277 69 366.5 c 128,-1,10
 81 456 81 456 111 525 c 128,-1,11
 141 594 141 594 184.5 630 c 0,12,13
 264.25 696 264.25 696 376.125 696 c 128,-1,14
 488 696 488 696 548 643.5 c 128,-1,15
 608 591 608 591 608 458 c 0,16,17
 608 418 608 418 596 324 c 128,-1,18
 584 230 584 230 554.5 161 c 128,-1,19
 525 92 525 92 481 56 c 128,-1,20
 437 20 437 20 390 5 c 128,-1,21
 343 -10 343 -10 283 -10 c 0,5,6
157.5 81 m 128,-1,23
 205 38 205 38 297.5 38 c 128,-1,24
 390 38 390 38 455 99 c 128,-1,25
 520 160 520 160 542 318 c 0,26,27
 555 415 555 415 555 454 c 0,28,29
 555 562 555 562 507 605 c 128,-1,30
 459 648 459 648 367.5 648 c 128,-1,31
 276 648 276 648 211 587 c 128,-1,32
 146 526 146 526 123 368 c 0,33,34
 110 279 110 279 110 232 c 0,35,22
 110 124 110 124 157.5 81 c 128,-1,23
EndSplineSet
Position2: "'cpsp' Capital Spacing lookup 0 subtable" dx=5 dy=0 dh=10 dv=0
EndChar

StartChar: Ocircumflex
Encoding: 59 212 59
Width: 690
GlyphClass: 2
Flags: MW
HStem: -10 48<239.5 348.5 239.5 356.5> 648 48<316.5 425> 750 145<240 453 395 566 395 506>
VStem: 57 53<154.5 243> 555 53<443 531.5>
LayerCount: 2
Fore
SplineSet
453 895 m 1,0,-1
 566 750 l 1,1,-1
 506 750 l 1,2,-1
 417 847 l 1,3,-1
 300 750 l 1,4,-1
 240 750 l 1,5,-1
 395 895 l 1,6,-1
 453 895 l 1,0,-1
283 -10 m 0,7,8
 177 -10 177 -10 117 42.5 c 128,-1,9
 57 95 57 95 57 228 c 0,10,11
 57 277 57 277 69 366.5 c 128,-1,12
 81 456 81 456 111 525 c 128,-1,13
 141 594 141 594 184.5 630 c 0,14,15
 264.25 696 264.25 696 376.125 696 c 128,-1,16
 488 696 488 696 548 643.5 c 128,-1,17
 608 591 608 591 608 458 c 0,18,19
 608 418 608 418 596 324 c 128,-1,20
 584 230 584 230 554.5 161 c 128,-1,21
 525 92 525 92 481 56 c 128,-1,22
 437 20 437 20 390 5 c 128,-1,23
 343 -10 343 -10 283 -10 c 0,7,8
157.5 81 m 128,-1,25
 205 38 205 38 297.5 38 c 128,-1,26
 390 38 390 38 455 99 c 128,-1,27
 520 160 520 160 542 318 c 0,28,29
 555 415 555 415 555 454 c 0,30,31
 555 562 555 562 507 605 c 128,-1,32
 459 648 459 648 367.5 648 c 128,-1,33
 276 648 276 648 211 587 c 128,-1,34
 146 526 146 526 123 368 c 0,35,36
 110 279 110 279 110 232 c 0,37,24
 110 124 110 124 157.5 81 c 128,-1,25
EndSplineSet
Position2: "'cpsp' Capital Spacing lookup 0 subtable" dx=5 dy=0 dh=10 dv=0
EndChar

StartChar: Odieresis
Encoding: 60 214 60
Width: 690
GlyphClass: 2
Flags: MW
HStem: -10 48<239.5 348.5 239.5 356.5> 648 48<316.5 425> 751 69<295 351 286 360 471 527>
VStem: 57 53<154.5 243> 290.5 65 466.5 65 555 53<443 531.5>
LayerCount: 2
Fore
SplineSet
360 820 m 1,0,-1
 351 751 l 1,1,-1
 286 751 l 1,2,-1
 295 820 l 1,3,-1
 360 820 l 1,0,-1
536 820 m 1,4,-1
 527 751 l 1,5,-1
 462 751 l 1,6,-1
 471 820 l 1,7,-1
 536 820 l 1,4,-1
283 -10 m 0,8,9
 177 -10 177 -10 117 42.5 c 128,-1,10
 57 95 57 95 57 228 c 0,11,12
 57 277 57 277 69 366.5 c 128,-1,13
 81 456 81 456 111 525 c 128,-1,14
 141 594 141 594 184.5 630 c 0,15,16
 264.25 696 264.25 696 376.125 696 c 128,-1,17
 488 696 488 696 548 643.5 c 128,-1,18
 608 591 608 591 608 458 c 0,19,20
 608 418 608 418 596 324 c 128,-1,21
 584 230 584 230 554.5 161 c 128,-1,22
 525 92 525 92 481 56 c 128,-1,23
 437 20 437 20 390 5 c 128,-1,24
 343 -10 343 -10 283 -10 c 0,8,9
157.5 81 m 128,-1,26
 205 38 205 38 297.5 38 c 128,-1,27
 390 38 390 38 455 99 c 128,-1,28
 520 160 520 160 542 318 c 0,29,30
 555 415 555 415 555 454 c 0,31,32
 555 562 555 562 507 605 c 128,-1,33
 459 648 459 648 367.5 648 c 128,-1,34
 276 648 276 648 211 587 c 128,-1,35
 146 526 146 526 123 368 c 0,36,37
 110 279 110 279 110 232 c 0,38,25
 110 124 110 124 157.5 81 c 128,-1,26
EndSplineSet
Position2: "'cpsp' Capital Spacing lookup 0 subtable" dx=5 dy=0 dh=10 dv=0
EndChar

StartChar: Ograve
Encoding: 61 210 61
Width: 690
GlyphClass: 2
Flags: MW
HStem: -10 48<239.5 348.5 239.5 356.5> 648 48<316.5 425> 750 145<288 428 288 378>
VStem: 57 53<154.5 243> 555 53<443 531.5>
LayerCount: 2
Fore
SplineSet
287 892 m 1,0,-1
 288 895 l 1,1,-1
 353 895 l 1,2,-1
 428 750 l 1,3,-1
 378 750 l 1,4,-1
 287 892 l 1,0,-1
283 -10 m 0,5,6
 177 -10 177 -10 117 42.5 c 128,-1,7
 57 95 57 95 57 228 c 0,8,9
 57 277 57 277 69 366.5 c 128,-1,10
 81 456 81 456 111 525 c 128,-1,11
 141 594 141 594 184.5 630 c 0,12,13
 264.25 696 264.25 696 376.125 696 c 128,-1,14
 488 696 488 696 548 643.5 c 128,-1,15
 608 591 608 591 608 458 c 0,16,17
 608 418 608 418 596 324 c 128,-1,18
 584 230 584 230 554.5 161 c 128,-1,19
 525 92 525 92 481 56 c 128,-1,20
 437 20 437 20 390 5 c 128,-1,21
 343 -10 343 -10 283 -10 c 0,5,6
157.5 81 m 128,-1,23
 205 38 205 38 297.5 38 c 128,-1,24
 390 38 390 38 455 99 c 128,-1,25
 520 160 520 160 542 318 c 0,26,27
 555 415 555 415 555 454 c 0,28,29
 555 562 555 562 507 605 c 128,-1,30
 459 648 459 648 367.5 648 c 128,-1,31
 276 648 276 648 211 587 c 128,-1,32
 146 526 146 526 123 368 c 0,33,34
 110 279 110 279 110 232 c 0,35,22
 110 124 110 124 157.5 81 c 128,-1,23
EndSplineSet
Position2: "'cpsp' Capital Spacing lookup 0 subtable" dx=5 dy=0 dh=10 dv=0
EndChar

StartChar: Ohungarumlaut
Encoding: 62 336 62
Width: 690
GlyphClass: 2
Flags: MW
HStem: -10 48<239.5 348.5 239.5 356.5> 648 48<316.5 425> 750 145<289 470 289 470 414 414 414 464>
VStem: 57 53<154.5 243> 555 53<443 531.5>
LayerCount: 2
Fore
SplineSet
406 895 m 1,0,-1
 470 895 l 1,1,-1
 470 891 l 1,2,-1
 339 750 l 1,3,-1
 289 750 l 1,4,-1
 406 895 l 1,0,-1
531 895 m 1,5,-1
 595 895 l 1,6,-1
 595 891 l 1,7,-1
 464 750 l 1,8,-1
 414 750 l 1,9,-1
 531 895 l 1,5,-1
283 -10 m 0,10,11
 177 -10 177 -10 117 42.5 c 128,-1,12
 57 95 57 95 57 228 c 0,13,14
 57 277 57 277 69 366.5 c 128,-1,15
 81 456 81 456 111 525 c 128,-1,16
 141 594 141 594 184.5 630 c 0,17,18
 264.25 696 264.25 696 376.125 696 c 128,-1,19
 488 696 488 696 548 643.5 c 128,-1,20
 608 591 608 591 608 458 c 0,21,22
 608 418 608 418 596 324 c 128,-1,23
 584 230 584 230 554.5 161 c 128,-1,24
 525 92 525 92 481 56 c 128,-1,25
 437 20 437 20 390 5 c 128,-1,26
 343 -10 343 -10 283 -10 c 0,10,11
157.5 81 m 128,-1,28
 205 38 205 38 297.5 38 c 128,-1,29
 390 38 390 38 455 99 c 128,-1,30
 520 160 520 160 542 318 c 0,31,32
 555 415 555 415 555 454 c 0,33,34
 555 562 555 562 507 605 c 128,-1,35
 459 648 459 648 367.5 648 c 128,-1,36
 276 648 276 648 211 587 c 128,-1,37
 146 526 146 526 123 368 c 0,38,39
 110 279 110 279 110 232 c 0,40,27
 110 124 110 124 157.5 81 c 128,-1,28
EndSplineSet
EndChar

StartChar: Omacron
Encoding: 63 332 63
Width: 690
GlyphClass: 2
Flags: MW
HStem: -10 48<239.5 348.5 239.5 356.5> 648 48<316.5 425> 866 45<249 559 241 567>
VStem: 57 53<154.5 243> 555 53<443 531.5>
LayerCount: 2
Fore
SplineSet
249 911 m 1,0,-1
 567 911 l 1,1,-1
 559 866 l 1,2,-1
 241 866 l 1,3,-1
 249 911 l 1,0,-1
283 -10 m 0,4,5
 177 -10 177 -10 117 42.5 c 128,-1,6
 57 95 57 95 57 228 c 0,7,8
 57 277 57 277 69 366.5 c 128,-1,9
 81 456 81 456 111 525 c 128,-1,10
 141 594 141 594 184.5 630 c 0,11,12
 264.25 696 264.25 696 376.125 696 c 128,-1,13
 488 696 488 696 548 643.5 c 128,-1,14
 608 591 608 591 608 458 c 0,15,16
 608 418 608 418 596 324 c 128,-1,17
 584 230 584 230 554.5 161 c 128,-1,18
 525 92 525 92 481 56 c 128,-1,19
 437 20 437 20 390 5 c 128,-1,20
 343 -10 343 -10 283 -10 c 0,4,5
157.5 81 m 128,-1,22
 205 38 205 38 297.5 38 c 128,-1,23
 390 38 390 38 455 99 c 128,-1,24
 520 160 520 160 542 318 c 0,25,26
 555 415 555 415 555 454 c 0,27,28
 555 562 555 562 507 605 c 128,-1,29
 459 648 459 648 367.5 648 c 128,-1,30
 276 648 276 648 211 587 c 128,-1,31
 146 526 146 526 123 368 c 0,32,33
 110 279 110 279 110 232 c 0,34,21
 110 124 110 124 157.5 81 c 128,-1,22
EndSplineSet
EndChar

StartChar: Oslash
Encoding: 64 216 64
Width: 690
GlyphClass: 2
Flags: MW
HStem: -10 48<275 359.5 275 367.5> 648 48<327.5 411.5>
VStem: 68 53<204.5 243> 566 53<443 481>
LayerCount: 2
Fore
SplineSet
294 -10 m 0,0,1
 191 -10 191 -10 138 34 c 1,2,-1
 65 -65 l 1,3,-1
 20 -65 l 1,4,-1
 112 60 l 1,5,6
 68 117 68 117 68 228 c 0,7,8
 68 277 68 277 80 366.5 c 128,-1,9
 92 456 92 456 122 525 c 128,-1,10
 152 594 152 594 195.5 630 c 0,11,12
 275.25 696 275.25 696 385.625 696 c 128,-1,13
 496 696 496 696 549 652 c 1,14,-1
 624 754 l 1,15,-1
 668 754 l 1,16,-1
 574 626 l 1,17,18
 619 568 619 568 619 458 c 0,19,20
 619 418 619 418 607 324 c 128,-1,21
 595 230 595 230 565.5 161 c 128,-1,22
 536 92 536 92 492 56 c 128,-1,23
 448 20 448 20 401 5 c 128,-1,24
 354 -10 354 -10 294 -10 c 0,0,1
121 232 m 0,25,26
 121 154 121 154 148 108 c 1,27,-1
 515 607 l 1,28,29
 471 648 471 648 379 648 c 128,-1,30
 287 648 287 648 222 587 c 128,-1,31
 157 526 157 526 134 368 c 0,32,33
 121 279 121 279 121 232 c 0,25,26
171 79 m 1,34,35
 213 38 213 38 307 38 c 128,-1,36
 401 38 401 38 466 99 c 128,-1,37
 531 160 531 160 553 318 c 0,38,39
 566 415 566 415 566 454 c 0,40,41
 566 530 566 530 538 578 c 1,42,-1
 171 79 l 1,34,35
EndSplineSet
Position2: "'cpsp' Capital Spacing lookup 0 subtable" dx=5 dy=0 dh=10 dv=0
EndChar

StartChar: Otilde
Encoding: 65 213 65
Width: 690
GlyphClass: 2
Flags: MW
HStem: -10 48<239.5 348.5 239.5 356.5> 648 48<316.5 425> 751 50<470 513.5 470 522.5> 783 50<303.5 347>
VStem: 57 53<154.5 243> 555 53<443 531.5>
LayerCount: 2
Fore
SplineSet
558 833 m 1,0,-1
 595 833 l 1,1,2
 591 803 591 803 563.5 777 c 128,-1,3
 536 751 536 751 493 751 c 128,-1,4
 450 751 450 751 398 767 c 128,-1,5
 346 783 346 783 320 783 c 0,6,7
 273 783 273 783 259 751 c 1,8,-1
 222 751 l 1,9,10
 226 781 226 781 253.5 807 c 128,-1,11
 281 833 281 833 324 833 c 128,-1,12
 367 833 367 833 419 817 c 128,-1,13
 471 801 471 801 497 801 c 0,14,15
 544 801 544 801 558 833 c 1,0,-1
283 -10 m 0,16,17
 177 -10 177 -10 117 42.5 c 128,-1,18
 57 95 57 95 57 228 c 0,19,20
 57 277 57 277 69 366.5 c 128,-1,21
 81 456 81 456 111 525 c 128,-1,22
 141 594 141 594 184.5 630 c 0,23,24
 264.25 696 264.25 696 376.125 696 c 128,-1,25
 488 696 488 696 548 643.5 c 128,-1,26
 608 591 608 591 608 458 c 0,27,28
 608 418 608 418 596 324 c 128,-1,29
 584 230 584 230 554.5 161 c 128,-1,30
 525 92 525 92 481 56 c 128,-1,31
 437 20 437 20 390 5 c 128,-1,32
 343 -10 343 -10 283 -10 c 0,16,17
157.5 81 m 128,-1,34
 205 38 205 38 297.5 38 c 128,-1,35
 390 38 390 38 455 99 c 128,-1,36
 520 160 520 160 542 318 c 0,37,38
 555 415 555 415 555 454 c 0,39,40
 555 562 555 562 507 605 c 128,-1,41
 459 648 459 648 367.5 648 c 128,-1,42
 276 648 276 648 211 587 c 128,-1,43
 146 526 146 526 123 368 c 0,44,45
 110 279 110 279 110 232 c 0,46,33
 110 124 110 124 157.5 81 c 128,-1,34
EndSplineSet
Position2: "'cpsp' Capital Spacing lookup 0 subtable" dx=5 dy=0 dh=10 dv=0
EndChar

StartChar: OE
Encoding: 66 338 66
Width: 1031
GlyphClass: 2
Flags: MW
HStem: -10 48<270.5 357.5> 0 48<588 957 588 957> 326 48<634 946 627 953> 638 48<671 1031 671 671> 648 48<347.5 456>
VStem: 88 53<154.5 243>
LayerCount: 2
Fore
SplineSet
527 0 m 1,0,-1
 542 88 l 1,1,2
 466 -10 466 -10 314 -10 c 0,3,4
 208 -10 208 -10 148 42.5 c 128,-1,5
 88 95 88 95 88 228 c 0,6,7
 88 277 88 277 100 366.5 c 128,-1,8
 112 456 112 456 142 525 c 128,-1,9
 172 594 172 594 215.5 630 c 0,10,11
 295.25 696 295.25 696 413 696 c 0,12,13
 562 696 562 696 611 600 c 1,14,-1
 624 686 l 1,15,-1
 1048 686 l 1,16,-1
 1031 638 l 1,17,-1
 671 638 l 1,18,-1
 634 374 l 1,19,-1
 953 374 l 1,20,-1
 946 326 l 1,21,-1
 627 326 l 1,22,-1
 588 48 l 1,23,-1
 957 48 l 1,24,-1
 957 0 l 1,25,-1
 527 0 l 1,0,-1
188.5 81 m 128,-1,27
 236 38 236 38 328.5 38 c 128,-1,28
 421 38 421 38 486 99 c 128,-1,29
 551 160 551 160 573 318 c 0,30,31
 586 415 586 415 586 454 c 0,32,33
 586 562 586 562 538 605 c 128,-1,34
 490 648 490 648 398.5 648 c 128,-1,35
 307 648 307 648 242 587 c 128,-1,36
 177 526 177 526 154 368 c 0,37,38
 141 279 141 279 141 232 c 0,39,26
 141 124 141 124 188.5 81 c 128,-1,27
EndSplineSet
Position2: "'cpsp' Capital Spacing lookup 0 subtable" dx=5 dy=0 dh=10 dv=0
EndChar

StartChar: P
Encoding: 67 80 67
Width: 626
GlyphClass: 2
Flags: MW
HStem: 0 21G<51 105 51 51> 312 47<156 376 156 376 149 376> 638 48<195 415 195 195>
VStem: 538 53<475.5 553>
LayerCount: 2
Fore
SplineSet
148 686 m 1,0,-1
 429 686 l 2,1,2
 499 686 499 686 545 640 c 128,-1,3
 591 594 591 594 591 526 c 0,4,5
 591 438 591 438 529.5 375 c 128,-1,6
 468 312 468 312 376 312 c 2,7,-1
 149 312 l 1,8,-1
 105 0 l 1,9,-1
 51 0 l 1,10,-1
 148 686 l 1,0,-1
156 359 m 1,11,-1
 376 359 l 2,12,13
 445 359 445 359 491.5 406 c 128,-1,14
 538 453 538 453 538 511.5 c 0,15,16
 538 570 538 570 503 604 c 128,-1,17
 468 638 468 638 415 638 c 2,18,-1
 195 638 l 1,19,-1
 156 359 l 1,11,-1
EndSplineSet
Position2: "'cpsp' Capital Spacing lookup 0 subtable" dx=5 dy=0 dh=10 dv=0
EndChar

StartChar: Thorn
Encoding: 68 222 68
Width: 633
GlyphClass: 2
Flags: MW
HStem: 0 21G<51 105 51 51> 177 47<137 357 137 357 130 357> 503 48<183 396 176 410> 503 183<176 202 148 396 176 176>
VStem: 519 53<340.5 418>
LayerCount: 2
Fore
SplineSet
148 686 m 1,0,-1
 202 686 l 1,1,-1
 183 551 l 1,2,-1
 410 551 l 2,3,4
 480 551 480 551 526 505 c 128,-1,5
 572 459 572 459 572 391 c 0,6,7
 572 305 572 305 507 241 c 128,-1,8
 442 177 442 177 357 177 c 2,9,-1
 130 177 l 1,10,-1
 105 0 l 1,11,-1
 51 0 l 1,12,-1
 148 686 l 1,0,-1
137 224 m 1,13,-1
 357 224 l 2,14,15
 421 224 421 224 470 271.5 c 128,-1,16
 519 319 519 319 519 377 c 0,17,18
 519 435 519 435 484 469 c 128,-1,19
 449 503 449 503 396 503 c 2,20,-1
 176 503 l 1,21,-1
 137 224 l 1,13,-1
EndSplineSet
Position2: "'cpsp' Capital Spacing lookup 0 subtable" dx=5 dy=0 dh=10 dv=0
EndChar

StartChar: Q
Encoding: 69 81 69
Width: 690
GlyphClass: 2
Flags: MW
HStem: -137 47<370.5 431.5 370.5 433.5> -9 47 648 48<316.5 425>
VStem: 57 53<154.5 243> 261 50<4.29497e+09 4.29497e+09> 519 7 555 53<443 531.5>
LayerCount: 2
Fore
SplineSet
402 -137 m 0,0,1
 261 -137 261 -137 261 -9 c 1,2,3
 164 -5 164 -5 110.5 48.5 c 128,-1,4
 57 102 57 102 57 228 c 0,5,6
 57 277 57 277 69 366.5 c 128,-1,7
 81 456 81 456 111 525 c 128,-1,8
 141 594 141 594 184.5 630 c 0,9,10
 264.25 696 264.25 696 376.125 696 c 128,-1,11
 488 696 488 696 548 643.5 c 128,-1,12
 608 591 608 591 608 458 c 0,13,14
 608 418 608 418 596.5 327 c 128,-1,15
 585 236 585 236 558 169.5 c 128,-1,16
 531 103 531 103 491.5 66 c 0,17,18
 417.764565044 -3.06863527534 417.764565044 -3.06863527534 311 -9 c 1,19,20
 313 -43 313 -43 335 -66.5 c 128,-1,21
 357 -90 357 -90 408 -90 c 0,22,23
 450 -90 450 -90 488 -76 c 128,-1,24
 526 -62 526 -62 526 -61 c 2,25,-1
 519 -110 l 1,26,27
 465 -137 465 -137 402 -137 c 0,0,1
157.5 81 m 128,-1,29
 205 38 205 38 297.5 38 c 128,-1,30
 390 38 390 38 455 99 c 128,-1,31
 520 160 520 160 542 318 c 0,32,33
 555 415 555 415 555 454 c 0,34,35
 555 562 555 562 507 605 c 128,-1,36
 459 648 459 648 367.5 648 c 128,-1,37
 276 648 276 648 211 587 c 128,-1,38
 146 526 146 526 123 368 c 0,39,40
 110 279 110 279 110 232 c 0,41,28
 110 124 110 124 157.5 81 c 128,-1,29
EndSplineSet
Position2: "'cpsp' Capital Spacing lookup 0 subtable" dx=5 dy=0 dh=10 dv=0
EndChar

StartChar: R
Encoding: 70 82 70
Width: 670
GlyphClass: 2
Flags: MW
HStem: -3 21G<518.5 539> 0 20 326 48<157 371 150 377> 638 48<194 422 194 194>
VStem: 476 56<186 251> 539 55<490 557.5>
AnchorPoint: "Bottom" 299 0 basechar 0
LayerCount: 2
Fore
SplineSet
532 204 m 1,0,-1
 522 87 l 1,1,2
 522 43.5 522 43.5 542 28.5 c 0,3,4
 544 27 544 27 551.5 24 c 128,-1,5
 559 21 559 21 560 20 c 1,6,-1
 558 1 l 1,7,8
 546 -3 546 -3 532 -3 c 0,9,10
 469 -3 469 -3 469 85 c 1,11,-1
 476 186 l 1,12,13
 476 231 476 231 464 262 c 128,-1,14
 452 293 452 293 433 305.5 c 0,15,16
 401.84 326 401.84 326 371 326 c 2,17,-1
 150 326 l 1,18,-1
 105 0 l 1,19,-1
 51 0 l 1,20,-1
 147 686 l 1,21,-1
 426 686 l 2,22,23
 502 686 502 686 548 644 c 128,-1,24
 594 602 594 602 594 535.5 c 128,-1,25
 594 469 594 469 550.5 416.5 c 128,-1,26
 507 364 507 364 446 354 c 1,27,-1
 446 349 l 1,28,29
 449 348 449 348 455 346.5 c 128,-1,30
 461 345 461 345 476 335.5 c 128,-1,31
 491 326 491 326 502 312 c 128,-1,32
 513 298 513 298 522.5 269.5 c 128,-1,33
 532 241 532 241 532 204 c 1,0,-1
157 374 m 1,34,-1
 377 374 l 2,35,36
 440 374 440 374 489.5 418 c 128,-1,37
 539 462 539 462 539 519 c 128,-1,38
 539 576 539 576 507.5 607 c 128,-1,39
 476 638 476 638 422 638 c 2,40,-1
 194 638 l 1,41,-1
 157 374 l 1,34,-1
EndSplineSet
Position2: "'cpsp' Capital Spacing lookup 0 subtable" dx=5 dy=0 dh=10 dv=0
EndChar

StartChar: Racute
Encoding: 71 340 71
Width: 670
GlyphClass: 2
Flags: MW
HStem: -3 21G<518.5 539> 0 20 326 48<157 371 150 377> 638 48<194 422 194 194> 750 145<304 486 304 486>
VStem: 476 56<186 251> 539 55<490 557.5>
AnchorPoint: "Bottom" 299 0 basechar 0
LayerCount: 2
Fore
SplineSet
421 895 m 1,0,-1
 486 895 l 1,1,-1
 485 892 l 1,2,-1
 354 750 l 1,3,-1
 304 750 l 1,4,-1
 421 895 l 1,0,-1
532 204 m 1,5,-1
 522 87 l 1,6,7
 522 43.5 522 43.5 542 28.5 c 0,8,9
 544 27 544 27 551.5 24 c 128,-1,10
 559 21 559 21 560 20 c 1,11,-1
 558 1 l 1,12,13
 546 -3 546 -3 532 -3 c 0,14,15
 469 -3 469 -3 469 85 c 1,16,-1
 476 186 l 1,17,18
 476 231 476 231 464 262 c 128,-1,19
 452 293 452 293 433 305.5 c 0,20,21
 401.84 326 401.84 326 371 326 c 2,22,-1
 150 326 l 1,23,-1
 105 0 l 1,24,-1
 51 0 l 1,25,-1
 147 686 l 1,26,-1
 426 686 l 2,27,28
 502 686 502 686 548 644 c 128,-1,29
 594 602 594 602 594 535.5 c 128,-1,30
 594 469 594 469 550.5 416.5 c 128,-1,31
 507 364 507 364 446 354 c 1,32,-1
 446 349 l 1,33,34
 449 348 449 348 455 346.5 c 128,-1,35
 461 345 461 345 476 335.5 c 128,-1,36
 491 326 491 326 502 312 c 128,-1,37
 513 298 513 298 522.5 269.5 c 128,-1,38
 532 241 532 241 532 204 c 1,5,-1
157 374 m 1,39,-1
 377 374 l 2,40,41
 440 374 440 374 489.5 418 c 128,-1,42
 539 462 539 462 539 519 c 128,-1,43
 539 576 539 576 507.5 607 c 128,-1,44
 476 638 476 638 422 638 c 2,45,-1
 194 638 l 1,46,-1
 157 374 l 1,39,-1
EndSplineSet
EndChar

StartChar: Rcaron
Encoding: 72 344 72
Width: 670
GlyphClass: 2
Flags: MW
HStem: -3 21G<518.5 539> 0 20 326 48<157 371 150 377> 638 48<194 422 194 194> 750 145<192 363 192 305>
VStem: 476 56<186 251> 539 55<490 557.5>
AnchorPoint: "Bottom" 299 0 basechar 0
LayerCount: 2
Fore
SplineSet
252 895 m 1,0,-1
 341 798 l 1,1,-1
 458 895 l 1,2,-1
 518 895 l 1,3,-1
 363 750 l 1,4,-1
 305 750 l 1,5,-1
 192 895 l 1,6,-1
 252 895 l 1,0,-1
532 204 m 1,7,-1
 522 87 l 1,8,9
 522 43.5 522 43.5 542 28.5 c 0,10,11
 544 27 544 27 551.5 24 c 128,-1,12
 559 21 559 21 560 20 c 1,13,-1
 558 1 l 1,14,15
 546 -3 546 -3 532 -3 c 0,16,17
 469 -3 469 -3 469 85 c 1,18,-1
 476 186 l 1,19,20
 476 231 476 231 464 262 c 128,-1,21
 452 293 452 293 433 305.5 c 0,22,23
 401.84 326 401.84 326 371 326 c 2,24,-1
 150 326 l 1,25,-1
 105 0 l 1,26,-1
 51 0 l 1,27,-1
 147 686 l 1,28,-1
 426 686 l 2,29,30
 502 686 502 686 548 644 c 128,-1,31
 594 602 594 602 594 535.5 c 128,-1,32
 594 469 594 469 550.5 416.5 c 128,-1,33
 507 364 507 364 446 354 c 1,34,-1
 446 349 l 1,35,36
 449 348 449 348 455 346.5 c 128,-1,37
 461 345 461 345 476 335.5 c 128,-1,38
 491 326 491 326 502 312 c 128,-1,39
 513 298 513 298 522.5 269.5 c 128,-1,40
 532 241 532 241 532 204 c 1,7,-1
157 374 m 1,41,-1
 377 374 l 2,42,43
 440 374 440 374 489.5 418 c 128,-1,44
 539 462 539 462 539 519 c 128,-1,45
 539 576 539 576 507.5 607 c 128,-1,46
 476 638 476 638 422 638 c 2,47,-1
 194 638 l 1,48,-1
 157 374 l 1,41,-1
EndSplineSet
EndChar

StartChar: Rcommaaccent
Encoding: 73 342 73
Width: 670
GlyphClass: 2
Flags: MW
HStem: -149 69<253 268 244 318> -3 21G<518.5 539> 0 20 326 48<157 371 150 377> 638 48<194 422 194 194>
VStem: 248.5 65.5 476 56<186 251> 539 55<490 557.5>
AnchorPoint: "Bottom" 299 0 basechar 0
LayerCount: 2
Fore
SplineSet
532 204 m 1,0,-1
 522 87 l 1,1,2
 522 43.5 522 43.5 542 28.5 c 0,3,4
 544 27 544 27 551.5 24 c 128,-1,5
 559 21 559 21 560 20 c 1,6,-1
 558 1 l 1,7,8
 546 -3 546 -3 532 -3 c 0,9,10
 469 -3 469 -3 469 85 c 1,11,-1
 476 186 l 1,12,13
 476 231 476 231 464 262 c 128,-1,14
 452 293 452 293 433 305.5 c 0,15,16
 401.84 326 401.84 326 371 326 c 2,17,-1
 150 326 l 1,18,-1
 105 0 l 1,19,-1
 51 0 l 1,20,-1
 147 686 l 1,21,-1
 426 686 l 2,22,23
 502 686 502 686 548 644 c 128,-1,24
 594 602 594 602 594 535.5 c 128,-1,25
 594 469 594 469 550.5 416.5 c 128,-1,26
 507 364 507 364 446 354 c 1,27,-1
 446 349 l 1,28,29
 449 348 449 348 455 346.5 c 128,-1,30
 461 345 461 345 476 335.5 c 128,-1,31
 491 326 491 326 502 312 c 128,-1,32
 513 298 513 298 522.5 269.5 c 128,-1,33
 532 241 532 241 532 204 c 1,0,-1
157 374 m 1,34,-1
 377 374 l 2,35,36
 440 374 440 374 489.5 418 c 128,-1,37
 539 462 539 462 539 519 c 128,-1,38
 539 576 539 576 507.5 607 c 128,-1,39
 476 638 476 638 422 638 c 2,40,-1
 194 638 l 1,41,-1
 157 374 l 1,34,-1
264 -250 m 1,42,-1
 230 -250 l 1,43,-1
 268 -149 l 1,44,-1
 244 -149 l 1,45,-1
 253 -80 l 1,46,-1
 318 -80 l 1,47,-1
 310 -138 l 1,48,-1
 264 -250 l 1,42,-1
EndSplineSet
EndChar

StartChar: S
Encoding: 74 83 74
Width: 629
GlyphClass: 2
Flags: MW
HStem: -10 48<212.5 315.5 212.5 326> 648 48<298.5 393>
VStem: 36 50<112 159> 102 53<426.5 559.5 426.5 569> 477 55<140.5 293> 508 50<541.5 577.5>
AnchorPoint: "Bottom" 279 0 basechar 0
LayerCount: 2
Fore
SplineSet
554 503 m 1,0,-1
 504 503 l 1,1,2
 508 531 508 531 508 542 c 0,3,4
 508 593 508 593 463.5 620.5 c 128,-1,5
 419 648 419 648 342 648 c 0,6,7
 265 648 265 648 210 614 c 128,-1,8
 155 580 155 580 155 508 c 0,9,10
 155 470 155 470 183 444.5 c 128,-1,11
 211 419 211 419 253 407.5 c 128,-1,12
 295 396 295 396 343.5 381.5 c 128,-1,13
 392 367 392 367 434 351.5 c 128,-1,14
 476 336 476 336 504 301.5 c 128,-1,15
 532 267 532 267 532 217 c 0,16,17
 532 137 532 137 490.5 84 c 128,-1,18
 449 31 449 31 390 10.5 c 128,-1,19
 331 -10 331 -10 244.5 -10 c 0,20,21
 158 -10 158 -10 97 28 c 128,-1,22
 36 66 36 66 36 151 c 0,23,24
 36 185 36 185 42 205 c 1,25,-1
 93 205 l 1,26,27
 86 186 86 186 86 155 c 0,28,29
 86 38 86 38 262 38 c 0,30,31
 354 38 354 38 415.5 77 c 128,-1,32
 477 116 477 116 477 205 c 0,33,34
 477 246 477 246 449 273.5 c 128,-1,35
 421 301 421 301 379.5 313.5 c 128,-1,36
 338 326 338 326 289.5 341 c 128,-1,37
 241 356 241 356 199.5 370.5 c 128,-1,38
 158 385 158 385 130 418.5 c 128,-1,39
 102 452 102 452 102 500 c 0,40,41
 102 597 102 597 174.5 646.5 c 128,-1,42
 247 696 247 696 346.5 696 c 0,43,44
 446 696 446 696 502 659.5 c 128,-1,45
 558 623 558 623 558 546 c 0,46,47
 558 527 558 527 554 503 c 1,0,-1
EndSplineSet
Position2: "'cpsp' Capital Spacing lookup 0 subtable" dx=5 dy=0 dh=10 dv=0
EndChar

StartChar: Sacute
Encoding: 75 346 75
Width: 629
GlyphClass: 2
Flags: MW
HStem: -10 48<212.5 315.5 212.5 326> 648 48<298.5 393> 750 145<314 496 314 496>
VStem: 36 50<112 159> 102 53<426.5 559.5 426.5 569> 477 55<140.5 293> 508 50<541.5 577.5>
AnchorPoint: "Bottom" 279 0 basechar 0
LayerCount: 2
Fore
SplineSet
431 895 m 1,0,-1
 496 895 l 1,1,-1
 495 892 l 1,2,-1
 364 750 l 1,3,-1
 314 750 l 1,4,-1
 431 895 l 1,0,-1
554 503 m 1,5,-1
 504 503 l 1,6,7
 508 531 508 531 508 542 c 0,8,9
 508 593 508 593 463.5 620.5 c 128,-1,10
 419 648 419 648 342 648 c 0,11,12
 265 648 265 648 210 614 c 128,-1,13
 155 580 155 580 155 508 c 0,14,15
 155 470 155 470 183 444.5 c 128,-1,16
 211 419 211 419 253 407.5 c 128,-1,17
 295 396 295 396 343.5 381.5 c 128,-1,18
 392 367 392 367 434 351.5 c 128,-1,19
 476 336 476 336 504 301.5 c 128,-1,20
 532 267 532 267 532 217 c 0,21,22
 532 137 532 137 490.5 84 c 128,-1,23
 449 31 449 31 390 10.5 c 128,-1,24
 331 -10 331 -10 244.5 -10 c 0,25,26
 158 -10 158 -10 97 28 c 128,-1,27
 36 66 36 66 36 151 c 0,28,29
 36 185 36 185 42 205 c 1,30,-1
 93 205 l 1,31,32
 86 186 86 186 86 155 c 0,33,34
 86 38 86 38 262 38 c 0,35,36
 354 38 354 38 415.5 77 c 128,-1,37
 477 116 477 116 477 205 c 0,38,39
 477 246 477 246 449 273.5 c 128,-1,40
 421 301 421 301 379.5 313.5 c 128,-1,41
 338 326 338 326 289.5 341 c 128,-1,42
 241 356 241 356 199.5 370.5 c 128,-1,43
 158 385 158 385 130 418.5 c 128,-1,44
 102 452 102 452 102 500 c 0,45,46
 102 597 102 597 174.5 646.5 c 128,-1,47
 247 696 247 696 346.5 696 c 0,48,49
 446 696 446 696 502 659.5 c 128,-1,50
 558 623 558 623 558 546 c 0,51,52
 558 527 558 527 554 503 c 1,5,-1
EndSplineSet
EndChar

StartChar: Scaron
Encoding: 76 352 76
Width: 629
GlyphClass: 2
Flags: MW
HStem: -10 48<212.5 315.5 212.5 326> 648 48<298.5 393> 750 145<215 386 215 328>
VStem: 36 50<112 159> 102 53<426.5 559.5 426.5 569> 477 55<140.5 293> 508 50<541.5 577.5>
LayerCount: 2
Fore
SplineSet
275 895 m 1,0,-1
 364 798 l 1,1,-1
 481 895 l 1,2,-1
 541 895 l 1,3,-1
 386 750 l 1,4,-1
 328 750 l 1,5,-1
 215 895 l 1,6,-1
 275 895 l 1,0,-1
554 503 m 1,7,-1
 504 503 l 1,8,9
 508 531 508 531 508 542 c 0,10,11
 508 593 508 593 463.5 620.5 c 128,-1,12
 419 648 419 648 342 648 c 0,13,14
 265 648 265 648 210 614 c 128,-1,15
 155 580 155 580 155 508 c 0,16,17
 155 470 155 470 183 444.5 c 128,-1,18
 211 419 211 419 253 407.5 c 128,-1,19
 295 396 295 396 343.5 381.5 c 128,-1,20
 392 367 392 367 434 351.5 c 128,-1,21
 476 336 476 336 504 301.5 c 128,-1,22
 532 267 532 267 532 217 c 0,23,24
 532 137 532 137 490.5 84 c 128,-1,25
 449 31 449 31 390 10.5 c 128,-1,26
 331 -10 331 -10 244.5 -10 c 0,27,28
 158 -10 158 -10 97 28 c 128,-1,29
 36 66 36 66 36 151 c 0,30,31
 36 185 36 185 42 205 c 1,32,-1
 93 205 l 1,33,34
 86 186 86 186 86 155 c 0,35,36
 86 38 86 38 262 38 c 0,37,38
 354 38 354 38 415.5 77 c 128,-1,39
 477 116 477 116 477 205 c 0,40,41
 477 246 477 246 449 273.5 c 128,-1,42
 421 301 421 301 379.5 313.5 c 128,-1,43
 338 326 338 326 289.5 341 c 128,-1,44
 241 356 241 356 199.5 370.5 c 128,-1,45
 158 385 158 385 130 418.5 c 128,-1,46
 102 452 102 452 102 500 c 0,47,48
 102 597 102 597 174.5 646.5 c 128,-1,49
 247 696 247 696 346.5 696 c 0,50,51
 446 696 446 696 502 659.5 c 128,-1,52
 558 623 558 623 558 546 c 0,53,54
 558 527 558 527 554 503 c 1,7,-1
EndSplineSet
Position2: "'cpsp' Capital Spacing lookup 0 subtable" dx=5 dy=0 dh=10 dv=0
EndChar

StartChar: Scedilla
Encoding: 77 350 77
Width: 629
GlyphClass: 2
Flags: MW
HStem: -197 46<233.5 261 226.5 270> -184 21G<170 170> -51 34<258 275 253 287.5> -10 48<212.5 315.5 212.5 326> 648 48<298.5 393>
VStem: 36 50<112 159> 102 53<426.5 559.5 426.5 569> 327 51<-115 -77.5> 477 55<140.5 293> 508 50<541.5 577.5>
AnchorPoint: "Bottom" 279 0 basechar 0
LayerCount: 2
Fore
SplineSet
554 503 m 1,0,-1
 504 503 l 1,1,2
 508 531 508 531 508 542 c 0,3,4
 508 593 508 593 463.5 620.5 c 128,-1,5
 419 648 419 648 342 648 c 128,-1,6
 265 648 265 648 210 614 c 128,-1,7
 155 580 155 580 155 508 c 0,8,9
 155 470 155 470 183 444.5 c 128,-1,10
 211 419 211 419 253 407.5 c 128,-1,11
 295 396 295 396 343.5 381.5 c 128,-1,12
 392 367 392 367 434 351.5 c 128,-1,13
 476 336 476 336 504 301.5 c 128,-1,14
 532 267 532 267 532 217 c 0,15,16
 532 137 532 137 490.5 84 c 128,-1,17
 449 31 449 31 390 10.5 c 128,-1,18
 331 -10 331 -10 244.5 -10 c 128,-1,19
 158 -10 158 -10 97 28 c 128,-1,20
 36 66 36 66 36 151 c 0,21,22
 36 185 36 185 42 205 c 1,23,-1
 93 205 l 1,24,25
 86 186 86 186 86 155 c 0,26,27
 86 38 86 38 262 38 c 0,28,29
 354 38 354 38 415.5 77 c 128,-1,30
 477 116 477 116 477 205 c 0,31,32
 477 246 477 246 449 273.5 c 128,-1,33
 421 301 421 301 379.5 313.5 c 128,-1,34
 338 326 338 326 289.5 341 c 128,-1,35
 241 356 241 356 199.5 370.5 c 128,-1,36
 158 385 158 385 130 418.5 c 128,-1,37
 102 452 102 452 102 500 c 0,38,39
 102 597 102 597 174.5 646.5 c 128,-1,40
 247 696 247 696 346.5 696 c 128,-1,41
 446 696 446 696 502 659.5 c 128,-1,42
 558 623 558 623 558 546 c 0,43,44
 558 527 558 527 554 503 c 1,0,-1
170 -184 m 1,45,-1
 176 -138 l 1,46,47
 198 -151 198 -151 237 -151 c 0,48,49
 327 -151 327 -151 327 -91 c 0,50,51
 327 -72 327 -72 311.5 -61.5 c 128,-1,52
 296 -51 296 -51 275 -51 c 2,53,-1
 253 -51 l 1,54,-1
 258 -17 l 1,55,56
 347.967741935 -17 347.967741935 -17 368.5 -50.5 c 0,57,58
 378 -66 378 -66 378 -98 c 128,-1,59
 378 -130 378 -130 354 -155.5 c 0,60,61
 314.941176471 -197 314.941176471 -197 246 -197 c 0,62,63
 202 -197 202 -197 170 -184 c 1,45,-1
EndSplineSet
EndChar

StartChar: Scommaaccent
Encoding: 78 536 78
Width: 629
GlyphClass: 2
Flags: MW
HStem: -149 69<233 248 224 298> -10 48<212.5 315.5 212.5 326> 648 48<298.5 393>
VStem: 36 50<112 159> 102 53<426.5 559.5 426.5 569> 228.5 65.5 477 55<140.5 293> 508 50<541.5 577.5>
AnchorPoint: "Bottom" 279 0 basechar 0
LayerCount: 2
Fore
SplineSet
554 503 m 1,0,-1
 504 503 l 1,1,2
 508 531 508 531 508 542 c 0,3,4
 508 593 508 593 463.5 620.5 c 128,-1,5
 419 648 419 648 342 648 c 0,6,7
 265 648 265 648 210 614 c 128,-1,8
 155 580 155 580 155 508 c 0,9,10
 155 470 155 470 183 444.5 c 128,-1,11
 211 419 211 419 253 407.5 c 128,-1,12
 295 396 295 396 343.5 381.5 c 128,-1,13
 392 367 392 367 434 351.5 c 128,-1,14
 476 336 476 336 504 301.5 c 128,-1,15
 532 267 532 267 532 217 c 0,16,17
 532 137 532 137 490.5 84 c 128,-1,18
 449 31 449 31 390 10.5 c 128,-1,19
 331 -10 331 -10 244.5 -10 c 0,20,21
 158 -10 158 -10 97 28 c 128,-1,22
 36 66 36 66 36 151 c 0,23,24
 36 185 36 185 42 205 c 1,25,-1
 93 205 l 1,26,27
 86 186 86 186 86 155 c 0,28,29
 86 38 86 38 262 38 c 0,30,31
 354 38 354 38 415.5 77 c 128,-1,32
 477 116 477 116 477 205 c 0,33,34
 477 246 477 246 449 273.5 c 128,-1,35
 421 301 421 301 379.5 313.5 c 128,-1,36
 338 326 338 326 289.5 341 c 128,-1,37
 241 356 241 356 199.5 370.5 c 128,-1,38
 158 385 158 385 130 418.5 c 128,-1,39
 102 452 102 452 102 500 c 0,40,41
 102 597 102 597 174.5 646.5 c 128,-1,42
 247 696 247 696 346.5 696 c 0,43,44
 446 696 446 696 502 659.5 c 128,-1,45
 558 623 558 623 558 546 c 0,46,47
 558 527 558 527 554 503 c 1,0,-1
244 -250 m 1,48,-1
 210 -250 l 1,49,-1
 248 -149 l 1,50,-1
 224 -149 l 1,51,-1
 233 -80 l 1,52,-1
 298 -80 l 1,53,-1
 290 -138 l 1,54,-1
 244 -250 l 1,48,-1
EndSplineSet
EndChar

StartChar: T
Encoding: 79 84 79
Width: 575
GlyphClass: 2
Flags: MW
HStem: 0 21G<209 261 209 209> 638 48<74 299 67 590 351 351 351 583>
VStem: 67 523<638 686>
AnchorPoint: "Bottom" 241 0 basechar 0
LayerCount: 2
Fore
SplineSet
261 0 m 1,0,-1
 209 0 l 1,1,-1
 299 638 l 1,2,-1
 67 638 l 1,3,-1
 74 686 l 1,4,-1
 590 686 l 1,5,-1
 583 638 l 1,6,-1
 351 638 l 1,7,-1
 261 0 l 1,0,-1
EndSplineSet
Position2: "'cpsp' Capital Spacing lookup 0 subtable" dx=5 dy=0 dh=10 dv=0
EndChar

StartChar: Tcaron
Encoding: 80 356 80
Width: 575
GlyphClass: 2
Flags: MW
HStem: 0 21G<209 261 209 209> 638 48<74 299 67 590 351 351 351 583> 750 145<188 359 188 301>
VStem: 67 523<638 686>
AnchorPoint: "Bottom" 241 0 basechar 0
LayerCount: 2
Fore
SplineSet
248 895 m 1,0,-1
 337 798 l 1,1,-1
 454 895 l 1,2,-1
 514 895 l 1,3,-1
 359 750 l 1,4,-1
 301 750 l 1,5,-1
 188 895 l 1,6,-1
 248 895 l 1,0,-1
261 0 m 1,7,-1
 209 0 l 1,8,-1
 299 638 l 1,9,-1
 67 638 l 1,10,-1
 74 686 l 1,11,-1
 590 686 l 1,12,-1
 583 638 l 1,13,-1
 351 638 l 1,14,-1
 261 0 l 1,7,-1
EndSplineSet
EndChar

StartChar: Tcedilla
Encoding: 81 354 81
Width: 575
GlyphClass: 2
Flags: MW
HStem: -197 46<195.5 223 188.5 232> -184 21G<132 132> -51 34<220 237 215 249.5> 0 21G<209 261 209 209> 638 48<74 299 67 590 351 351 351 583>
VStem: 289 51<-115 -77.5>
AnchorPoint: "Bottom" 241 0 basechar 0
LayerCount: 2
Fore
SplineSet
261 0 m 1,0,-1
 209 0 l 1,1,-1
 299 638 l 1,2,-1
 67 638 l 1,3,-1
 74 686 l 1,4,-1
 590 686 l 1,5,-1
 583 638 l 1,6,-1
 351 638 l 1,7,-1
 261 0 l 1,0,-1
132 -184 m 1,8,-1
 138 -138 l 1,9,10
 160 -151 160 -151 199.5 -151 c 0,11,12
 289 -151 289 -151 289 -91 c 0,13,14
 289 -72 289 -72 273.5 -61.5 c 128,-1,15
 258 -51 258 -51 237 -51 c 2,16,-1
 215 -51 l 1,17,-1
 220 -17 l 1,18,19
 309.967741935 -17 309.967741935 -17 330.5 -50.5 c 0,20,21
 340 -66 340 -66 340 -98 c 128,-1,22
 340 -130 340 -130 316 -155.5 c 0,23,24
 276.941176471 -197 276.941176471 -197 208 -197 c 0,25,26
 164 -197 164 -197 132 -184 c 1,8,-1
EndSplineSet
EndChar

StartChar: Tcommaaccent
Encoding: 82 538 82
Width: 575
GlyphClass: 2
Flags: MW
HStem: -149 69<195 210 186 260> 0 21G<209 261 209 209> 638 48<74 299 67 590 351 351 351 583>
VStem: 190.5 65.5
AnchorPoint: "Bottom" 241 0 basechar 0
LayerCount: 2
Fore
SplineSet
261 0 m 1,0,-1
 209 0 l 1,1,-1
 299 638 l 1,2,-1
 67 638 l 1,3,-1
 74 686 l 1,4,-1
 590 686 l 1,5,-1
 583 638 l 1,6,-1
 351 638 l 1,7,-1
 261 0 l 1,0,-1
206 -250 m 1,8,-1
 172 -250 l 1,9,-1
 210 -149 l 1,10,-1
 186 -149 l 1,11,-1
 195 -80 l 1,12,-1
 260 -80 l 1,13,-1
 252 -138 l 1,14,-1
 206 -250 l 1,8,-1
EndSplineSet
EndChar

StartChar: U
Encoding: 83 85 83
Width: 682
GlyphClass: 2
Flags: MW
HStem: -10 48<236.5 348.5 236.5 355> 666 20G<142 196 196 196 565 619 619 619>
VStem: 74 54<141.5 200.5 141.5 206.5>
LayerCount: 2
Fore
SplineSet
619 686 m 1,0,-1
 554 220 l 2,1,2
 539 116 539 116 465 53 c 128,-1,3
 391 -10 391 -10 288.5 -10 c 128,-1,4
 186 -10 186 -10 130 41.5 c 128,-1,5
 74 93 74 93 74 180 c 0,6,7
 74 228 74 228 125 571.5 c 2,8,-1
 142 686 l 1,9,-1
 196 686 l 1,10,11
 128 203 128 203 128 187 c 0,12,13
 128 118 128 118 169.5 78 c 128,-1,14
 211 38 211 38 293.5 38 c 128,-1,15
 376 38 376 38 432 88.5 c 128,-1,16
 488 139 488 139 500 222 c 2,17,-1
 565 686 l 1,18,-1
 619 686 l 1,0,-1
EndSplineSet
Position2: "'cpsp' Capital Spacing lookup 0 subtable" dx=5 dy=0 dh=10 dv=0
EndChar

StartChar: Uacute
Encoding: 84 218 84
Width: 682
GlyphClass: 2
Flags: MW
HStem: -10 48<236.5 348.5 236.5 355> 666 20G<142 196 196 196 565 619 619 619> 750 145<363 545 363 545>
VStem: 74 54<141.5 200.5 141.5 206.5>
LayerCount: 2
Fore
SplineSet
480 895 m 1,0,-1
 545 895 l 1,1,-1
 544 892 l 1,2,-1
 413 750 l 1,3,-1
 363 750 l 1,4,-1
 480 895 l 1,0,-1
619 686 m 1,5,-1
 554 220 l 2,6,7
 539 116 539 116 465 53 c 128,-1,8
 391 -10 391 -10 288.5 -10 c 128,-1,9
 186 -10 186 -10 130 41.5 c 128,-1,10
 74 93 74 93 74 180 c 0,11,12
 74 228 74 228 125 571.5 c 2,13,-1
 142 686 l 1,14,-1
 196 686 l 1,15,16
 128 203 128 203 128 187 c 0,17,18
 128 118 128 118 169.5 78 c 128,-1,19
 211 38 211 38 293.5 38 c 128,-1,20
 376 38 376 38 432 88.5 c 128,-1,21
 488 139 488 139 500 222 c 2,22,-1
 565 686 l 1,23,-1
 619 686 l 1,5,-1
EndSplineSet
Position2: "'cpsp' Capital Spacing lookup 0 subtable" dx=5 dy=0 dh=10 dv=0
EndChar

StartChar: Ucircumflex
Encoding: 85 219 85
Width: 682
GlyphClass: 2
Flags: MW
HStem: -10 48<236.5 348.5 236.5 355> 666 20G<142 196 196 196 565 619 619 619> 750 145<221 434 376 547 376 487>
VStem: 74 54<141.5 200.5 141.5 206.5>
LayerCount: 2
Fore
SplineSet
434 895 m 1,0,-1
 547 750 l 1,1,-1
 487 750 l 1,2,-1
 398 847 l 1,3,-1
 281 750 l 1,4,-1
 221 750 l 1,5,-1
 376 895 l 1,6,-1
 434 895 l 1,0,-1
619 686 m 1,7,-1
 554 220 l 2,8,9
 539 116 539 116 465 53 c 128,-1,10
 391 -10 391 -10 288.5 -10 c 128,-1,11
 186 -10 186 -10 130 41.5 c 128,-1,12
 74 93 74 93 74 180 c 0,13,14
 74 228 74 228 125 571.5 c 2,15,-1
 142 686 l 1,16,-1
 196 686 l 1,17,18
 128 203 128 203 128 187 c 0,19,20
 128 118 128 118 169.5 78 c 128,-1,21
 211 38 211 38 293.5 38 c 128,-1,22
 376 38 376 38 432 88.5 c 128,-1,23
 488 139 488 139 500 222 c 2,24,-1
 565 686 l 1,25,-1
 619 686 l 1,7,-1
EndSplineSet
Position2: "'cpsp' Capital Spacing lookup 0 subtable" dx=5 dy=0 dh=10 dv=0
EndChar

StartChar: Udieresis
Encoding: 86 220 86
Width: 682
GlyphClass: 2
Flags: MW
HStem: -10 48<236.5 348.5 236.5 355> 666 20G<142 196 196 196 565 619 619 619> 751 69<279 335 270 344 455 511>
VStem: 74 54<141.5 200.5 141.5 206.5> 274.5 65 450.5 65
LayerCount: 2
Fore
SplineSet
344 820 m 1,0,-1
 335 751 l 1,1,-1
 270 751 l 1,2,-1
 279 820 l 1,3,-1
 344 820 l 1,0,-1
520 820 m 1,4,-1
 511 751 l 1,5,-1
 446 751 l 1,6,-1
 455 820 l 1,7,-1
 520 820 l 1,4,-1
619 686 m 1,8,-1
 554 220 l 2,9,10
 539 116 539 116 465 53 c 128,-1,11
 391 -10 391 -10 288.5 -10 c 128,-1,12
 186 -10 186 -10 130 41.5 c 128,-1,13
 74 93 74 93 74 180 c 0,14,15
 74 228 74 228 125 571.5 c 2,16,-1
 142 686 l 1,17,-1
 196 686 l 1,18,19
 128 203 128 203 128 187 c 0,20,21
 128 118 128 118 169.5 78 c 128,-1,22
 211 38 211 38 293.5 38 c 128,-1,23
 376 38 376 38 432 88.5 c 128,-1,24
 488 139 488 139 500 222 c 2,25,-1
 565 686 l 1,26,-1
 619 686 l 1,8,-1
EndSplineSet
Position2: "'cpsp' Capital Spacing lookup 0 subtable" dx=5 dy=0 dh=10 dv=0
EndChar

StartChar: Ugrave
Encoding: 87 217 87
Width: 682
GlyphClass: 2
Flags: MW
HStem: -10 48<236.5 348.5 236.5 355> 666 20G<142 196 196 196 565 619 619 619> 750 145<278 418 278 368>
VStem: 74 54<141.5 200.5 141.5 206.5>
LayerCount: 2
Fore
SplineSet
277 892 m 1,0,-1
 278 895 l 1,1,-1
 343 895 l 1,2,-1
 418 750 l 1,3,-1
 368 750 l 1,4,-1
 277 892 l 1,0,-1
619 686 m 1,5,-1
 554 220 l 2,6,7
 539 116 539 116 465 53 c 128,-1,8
 391 -10 391 -10 288.5 -10 c 128,-1,9
 186 -10 186 -10 130 41.5 c 128,-1,10
 74 93 74 93 74 180 c 0,11,12
 74 228 74 228 125 571.5 c 2,13,-1
 142 686 l 1,14,-1
 196 686 l 1,15,16
 128 203 128 203 128 187 c 0,17,18
 128 118 128 118 169.5 78 c 128,-1,19
 211 38 211 38 293.5 38 c 128,-1,20
 376 38 376 38 432 88.5 c 128,-1,21
 488 139 488 139 500 222 c 2,22,-1
 565 686 l 1,23,-1
 619 686 l 1,5,-1
EndSplineSet
Position2: "'cpsp' Capital Spacing lookup 0 subtable" dx=5 dy=0 dh=10 dv=0
EndChar

StartChar: Uhungarumlaut
Encoding: 88 368 88
Width: 682
GlyphClass: 2
Flags: MW
HStem: -10 48<236.5 348.5 236.5 355> 666 20G<142 196 196 196 565 619 619 619> 750 145<294 475 294 475 419 419 419 469>
VStem: 74 54<141.5 200.5 141.5 206.5>
LayerCount: 2
Fore
SplineSet
411 895 m 1,0,-1
 475 895 l 1,1,-1
 475 891 l 1,2,-1
 344 750 l 1,3,-1
 294 750 l 1,4,-1
 411 895 l 1,0,-1
536 895 m 1,5,-1
 600 895 l 1,6,-1
 600 891 l 1,7,-1
 469 750 l 1,8,-1
 419 750 l 1,9,-1
 536 895 l 1,5,-1
619 686 m 1,10,-1
 554 220 l 2,11,12
 539 116 539 116 465 53 c 128,-1,13
 391 -10 391 -10 288.5 -10 c 128,-1,14
 186 -10 186 -10 130 41.5 c 128,-1,15
 74 93 74 93 74 180 c 0,16,17
 74 228 74 228 125 571.5 c 2,18,-1
 142 686 l 1,19,-1
 196 686 l 1,20,21
 128 203 128 203 128 187 c 0,22,23
 128 118 128 118 169.5 78 c 128,-1,24
 211 38 211 38 293.5 38 c 128,-1,25
 376 38 376 38 432 88.5 c 128,-1,26
 488 139 488 139 500 222 c 2,27,-1
 565 686 l 1,28,-1
 619 686 l 1,10,-1
EndSplineSet
EndChar

StartChar: Umacron
Encoding: 89 362 89
Width: 682
GlyphClass: 2
Flags: MW
HStem: -10 48<236.5 348.5 236.5 355> 666 20G<142 196 196 196 565 619 619 619> 866 45<254 564 246 572>
VStem: 74 54<141.5 200.5 141.5 206.5>
LayerCount: 2
Fore
SplineSet
254 911 m 1,0,-1
 572 911 l 1,1,-1
 564 866 l 1,2,-1
 246 866 l 1,3,-1
 254 911 l 1,0,-1
619 686 m 1,4,-1
 554 220 l 2,5,6
 539 116 539 116 465 53 c 128,-1,7
 391 -10 391 -10 288.5 -10 c 128,-1,8
 186 -10 186 -10 130 41.5 c 128,-1,9
 74 93 74 93 74 180 c 0,10,11
 74 228 74 228 125 571.5 c 2,12,-1
 142 686 l 1,13,-1
 196 686 l 1,14,15
 128 203 128 203 128 187 c 0,16,17
 128 118 128 118 169.5 78 c 128,-1,18
 211 38 211 38 293.5 38 c 128,-1,19
 376 38 376 38 432 88.5 c 128,-1,20
 488 139 488 139 500 222 c 2,21,-1
 565 686 l 1,22,-1
 619 686 l 1,4,-1
EndSplineSet
EndChar

StartChar: Uogonek
Encoding: 90 370 90
Width: 682
GlyphClass: 2
Flags: MW
HStem: -143 43<327.5 341.5> -10 48<236.5 283 283 289> 666 20G<142 196 196 196 565 619 619 619>
VStem: 74 54<141.5 200.5 141.5 206.5> 240 58<-80 -66.5>
LayerCount: 2
Fore
SplineSet
619 686 m 1,0,-1
 554 220 l 2,1,2
 541 133 541 133 486.5 73.5 c 128,-1,3
 432 14 432 14 349 -3 c 1,4,5
 298 -36 298 -36 298 -68 c 128,-1,6
 298 -100 298 -100 337 -100 c 0,7,8
 362 -100 362 -100 406 -86 c 1,9,-1
 415 -119 l 1,10,11
 373 -143 373 -143 327 -143 c 0,12,13
 240 -143 240 -143 240 -83 c 0,14,15
 240 -44 240 -44 289 -10 c 1,16,-1
 283 -10 l 2,17,18
 186 -10 186 -10 130 41.5 c 128,-1,19
 74 93 74 93 74 180 c 0,20,21
 74 228 74 228 125 571.5 c 2,22,-1
 142 686 l 1,23,-1
 196 686 l 1,24,25
 128 203 128 203 128 187 c 0,26,27
 128 118 128 118 169.5 78 c 128,-1,28
 211 38 211 38 293.5 38 c 128,-1,29
 376 38 376 38 432 88.5 c 128,-1,30
 488 139 488 139 500 222 c 2,31,-1
 565 686 l 1,32,-1
 619 686 l 1,0,-1
EndSplineSet
EndChar

StartChar: Uring
Encoding: 91 366 91
Width: 682
GlyphClass: 2
Flags: MW
HStem: -10 48<236.5 348.5 236.5 355> 666 20G<142 196 196 196 565 619 619 619> 720 36<375 410.5 375 418> 885 36<390.5 425.5>
VStem: 74 54<141.5 200.5 141.5 206.5> 298 36<795 831 795 840> 466 36<809.5 846>
LayerCount: 2
Fore
SplineSet
477 896.5 m 128,-1,1
 502 872 502 872 502 830 c 128,-1,2
 502 788 502 788 468 754 c 128,-1,3
 434 720 434 720 391 720 c 128,-1,4
 348 720 348 720 323 744.5 c 128,-1,5
 298 769 298 769 298 812 c 128,-1,6
 298 855 298 855 333.5 888 c 128,-1,7
 369 921 369 921 410.5 921 c 128,-1,0
 452 921 452 921 477 896.5 c 128,-1,1
350.5 771.5 m 128,-1,9
 367 756 367 756 394 756 c 128,-1,10
 421 756 421 756 443.5 778 c 128,-1,11
 466 800 466 800 466 827 c 128,-1,12
 466 854 466 854 450 869.5 c 128,-1,13
 434 885 434 885 407 885 c 128,-1,14
 380 885 380 885 357 863 c 128,-1,15
 334 841 334 841 334 814 c 128,-1,8
 334 787 334 787 350.5 771.5 c 128,-1,9
619 686 m 1,16,-1
 554 220 l 2,17,18
 539 116 539 116 465 53 c 128,-1,19
 391 -10 391 -10 288.5 -10 c 128,-1,20
 186 -10 186 -10 130 41.5 c 128,-1,21
 74 93 74 93 74 180 c 0,22,23
 74 228 74 228 125 571.5 c 2,24,-1
 142 686 l 1,25,-1
 196 686 l 1,26,27
 128 203 128 203 128 187 c 0,28,29
 128 118 128 118 169.5 78 c 128,-1,30
 211 38 211 38 293.5 38 c 128,-1,31
 376 38 376 38 432 88.5 c 128,-1,32
 488 139 488 139 500 222 c 2,33,-1
 565 686 l 1,34,-1
 619 686 l 1,16,-1
EndSplineSet
EndChar

StartChar: V
Encoding: 92 86 92
Width: 602
GlyphClass: 2
Flags: MW
HStem: 0 21G<222 270 222 222> 0 86<258 263 258 270 222 263> 666 20G<59 118 118 118 573 626 626 626>
VStem: 59 567<686 686>
LayerCount: 2
Fore
SplineSet
626 686 m 1,0,-1
 270 0 l 1,1,-1
 222 0 l 1,2,-1
 59 686 l 1,3,-1
 118 686 l 1,4,-1
 258 86 l 1,5,-1
 263 86 l 1,6,-1
 573 686 l 1,7,-1
 626 686 l 1,0,-1
EndSplineSet
Position2: "'cpsp' Capital Spacing lookup 0 subtable" dx=5 dy=0 dh=10 dv=0
EndChar

StartChar: W
Encoding: 93 87 93
Width: 914
GlyphClass: 2
Flags: MW
HStem: 0 21G<170 216 170 170 558 604 558 558> 0 107<210 214 210 216 170 214 598 602> 581 105<467 471 467 467> 666 20G<67 125 125 125 463 513 513 513 851 901 901 901>
VStem: 67 834<686 686>
LayerCount: 2
Fore
SplineSet
901 686 m 1,0,-1
 604 0 l 1,1,-1
 558 0 l 1,2,-1
 471 581 l 1,3,-1
 467 581 l 1,4,-1
 216 0 l 1,5,-1
 170 0 l 1,6,-1
 67 686 l 1,7,-1
 125 686 l 1,8,-1
 210 107 l 1,9,-1
 214 107 l 1,10,-1
 463 686 l 1,11,-1
 513 686 l 1,12,-1
 598 107 l 1,13,-1
 602 107 l 1,14,-1
 851 686 l 1,15,-1
 901 686 l 1,0,-1
EndSplineSet
Position2: "'cpsp' Capital Spacing lookup 0 subtable" dx=5 dy=0 dh=10 dv=0
EndChar

StartChar: X
Encoding: 94 88 94
Width: 628
GlyphClass: 2
Flags: MW
HStem: 0 21G<-32 26 -32 -32 474 539 474 474> 666 20G<87 152 152 152 555 614 614 614>
VStem: -32 646
LayerCount: 2
Fore
SplineSet
539 0 m 1,0,-1
 474 0 l 1,1,-1
 298 315 l 1,2,-1
 294 315 l 1,3,-1
 26 0 l 1,4,-1
 -32 0 l 1,5,-1
 273 359 l 1,6,-1
 87 686 l 1,7,-1
 152 686 l 1,8,-1
 310 402 l 1,9,-1
 314 402 l 1,10,-1
 555 686 l 1,11,-1
 614 686 l 1,12,-1
 335 359 l 1,13,-1
 539 0 l 1,0,-1
EndSplineSet
Position2: "'cpsp' Capital Spacing lookup 0 subtable" dx=5 dy=0 dh=10 dv=0
EndChar

StartChar: Y
Encoding: 95 89 95
Width: 570
GlyphClass: 2
Flags: MW
HStem: 0 21G<198 252 198 198> 666 20G<49 112 112 112 540 595 595 595>
VStem: 49 546<686 686>
LayerCount: 2
Fore
SplineSet
252 0 m 1,0,-1
 198 0 l 1,1,-1
 236 266 l 1,2,-1
 49 686 l 1,3,-1
 112 686 l 1,4,-1
 270 321 l 1,5,-1
 275 321 l 1,6,-1
 540 686 l 1,7,-1
 595 686 l 1,8,-1
 290 266 l 1,9,-1
 252 0 l 1,0,-1
EndSplineSet
Position2: "'cpsp' Capital Spacing lookup 0 subtable" dx=5 dy=0 dh=10 dv=0
EndChar

StartChar: Yacute
Encoding: 96 221 96
Width: 570
GlyphClass: 2
Flags: MW
HStem: 0 21G<198 252 198 198> 666 20G<49 112 112 112 540 595 595 595> 750 145<311 493 311 493>
VStem: 49 546<686 686>
LayerCount: 2
Fore
SplineSet
428 895 m 1,0,-1
 493 895 l 1,1,-1
 492 892 l 1,2,-1
 361 750 l 1,3,-1
 311 750 l 1,4,-1
 428 895 l 1,0,-1
252 0 m 1,5,-1
 198 0 l 1,6,-1
 236 266 l 1,7,-1
 49 686 l 1,8,-1
 112 686 l 1,9,-1
 270 321 l 1,10,-1
 275 321 l 1,11,-1
 540 686 l 1,12,-1
 595 686 l 1,13,-1
 290 266 l 1,14,-1
 252 0 l 1,5,-1
EndSplineSet
Position2: "'cpsp' Capital Spacing lookup 0 subtable" dx=5 dy=0 dh=10 dv=0
EndChar

StartChar: Ydieresis
Encoding: 97 376 97
Width: 570
GlyphClass: 2
Flags: MW
HStem: 0 21G<198 252 198 198> 666 20G<49 112 112 112 540 595 595 595> 750 69<219 275 210 284 395 451>
VStem: 214.5 65 390.5 65
LayerCount: 2
Fore
SplineSet
284 819 m 1,0,-1
 275 750 l 1,1,-1
 210 750 l 1,2,-1
 219 819 l 1,3,-1
 284 819 l 1,0,-1
460 819 m 1,4,-1
 451 750 l 1,5,-1
 386 750 l 1,6,-1
 395 819 l 1,7,-1
 460 819 l 1,4,-1
252 0 m 1,8,-1
 198 0 l 1,9,-1
 236 266 l 1,10,-1
 49 686 l 1,11,-1
 112 686 l 1,12,-1
 270 321 l 1,13,-1
 275 321 l 1,14,-1
 540 686 l 1,15,-1
 595 686 l 1,16,-1
 290 266 l 1,17,-1
 252 0 l 1,8,-1
EndSplineSet
Position2: "'cpsp' Capital Spacing lookup 0 subtable" dx=5 dy=0 dh=10 dv=0
EndChar

StartChar: Z
Encoding: 98 90 98
Width: 595
GlyphClass: 2
Flags: MW
HStem: 0 48<79 494> 638 48<112 494 105 583>
VStem: -9 592
LayerCount: 2
Fore
SplineSet
-5 25 m 1,0,-1
 494 638 l 1,1,-1
 105 638 l 1,2,-1
 112 686 l 1,3,-1
 583 686 l 1,4,-1
 579 662 l 1,5,-1
 79 48 l 1,6,-1
 501 48 l 1,7,-1
 494 0 l 1,8,-1
 -9 0 l 1,9,-1
 -5 25 l 1,0,-1
EndSplineSet
Position2: "'cpsp' Capital Spacing lookup 0 subtable" dx=5 dy=0 dh=10 dv=0
EndChar

StartChar: Zacute
Encoding: 99 377 99
Width: 595
GlyphClass: 2
Flags: MW
HStem: 0 48<79 494> 638 48<112 494 105 583> 750 145<327 509 327 509>
VStem: -9 592
LayerCount: 2
Fore
SplineSet
444 895 m 1,0,-1
 509 895 l 1,1,-1
 508 892 l 1,2,-1
 377 750 l 1,3,-1
 327 750 l 1,4,-1
 444 895 l 1,0,-1
-5 25 m 1,5,-1
 494 638 l 1,6,-1
 105 638 l 1,7,-1
 112 686 l 1,8,-1
 583 686 l 1,9,-1
 579 662 l 1,10,-1
 79 48 l 1,11,-1
 501 48 l 1,12,-1
 494 0 l 1,13,-1
 -9 0 l 1,14,-1
 -5 25 l 1,5,-1
EndSplineSet
EndChar

StartChar: Zcaron
Encoding: 100 381 100
Width: 595
GlyphClass: 2
Flags: MW
HStem: 0 48<79 494> 638 48<112 494 105 583> 750 145<203 374 203 316>
VStem: -9 592
LayerCount: 2
Fore
SplineSet
263 895 m 1,0,-1
 352 798 l 1,1,-1
 469 895 l 1,2,-1
 529 895 l 1,3,-1
 374 750 l 1,4,-1
 316 750 l 1,5,-1
 203 895 l 1,6,-1
 263 895 l 1,0,-1
-5 25 m 1,7,-1
 494 638 l 1,8,-1
 105 638 l 1,9,-1
 112 686 l 1,10,-1
 583 686 l 1,11,-1
 579 662 l 1,12,-1
 79 48 l 1,13,-1
 501 48 l 1,14,-1
 494 0 l 1,15,-1
 -9 0 l 1,16,-1
 -5 25 l 1,7,-1
EndSplineSet
Position2: "'cpsp' Capital Spacing lookup 0 subtable" dx=5 dy=0 dh=10 dv=0
EndChar

StartChar: Zdotaccent
Encoding: 101 379 101
Width: 595
GlyphClass: 2
Flags: MW
HStem: 0 48<79 494> 638 48<112 494 105 583> 779 132<368 394>
VStem: 314 134<834.5 855.5>
LayerCount: 2
Fore
SplineSet
431.5 894.5 m 128,-1,1
 448 878 448 878 448 851 c 128,-1,2
 448 824 448 824 426 801.5 c 128,-1,3
 404 779 404 779 376 779 c 128,-1,4
 348 779 348 779 331 795 c 128,-1,5
 314 811 314 811 314 838.5 c 128,-1,6
 314 866 314 866 336 888.5 c 128,-1,7
 358 911 358 911 386.5 911 c 128,-1,0
 415 911 415 911 431.5 894.5 c 128,-1,1
-5 25 m 1,8,-1
 494 638 l 1,9,-1
 105 638 l 1,10,-1
 112 686 l 1,11,-1
 583 686 l 1,12,-1
 579 662 l 1,13,-1
 79 48 l 1,14,-1
 501 48 l 1,15,-1
 494 0 l 1,16,-1
 -9 0 l 1,17,-1
 -5 25 l 1,8,-1
EndSplineSet
EndChar

StartChar: a
Encoding: 102 97 102
Width: 607
GlyphClass: 2
Flags: MW
HStem: -10 46<186.5 248 453.5 455.5> 475 46<213.5 323> 491 20G<466 499 499 499>
VStem: 42 51<135 254.5 135 267> 386 51<52 57.5>
LayerCount: 2
Fore
SplineSet
386 55 m 0,0,1
 386 64 386 64 387 69 c 1,2,3
 321 -10 321 -10 212 -10 c 0,4,5
 135 -10 135 -10 88.5 40 c 128,-1,6
 42 90 42 90 42 190 c 0,7,8
 42 315.859649123 42 315.859649123 98.5 413 c 0,9,10
 127 462 127 462 175.5 491.5 c 128,-1,11
 224 521 224 521 287 521 c 0,12,13
 396 521 396 521 438 440 c 1,14,-1
 442 440 l 1,15,-1
 466 511 l 1,16,-1
 499 511 l 1,17,18
 437 73 437 73 437 61 c 0,19,20
 437 36 437 36 460 36 c 128,-1,21
 483 36 483 36 513 52 c 1,22,-1
 507 9 l 1,23,24
 477 -10 477 -10 444 -10 c 0,25,26
 386 -10 386 -10 386 55 c 0,0,1
224 36 m 0,27,28
 276 36 276 36 315 61 c 128,-1,29
 354 86 354 86 375.5 128.5 c 0,30,31
 418 212.511627907 418 212.511627907 418 321 c 0,32,33
 418 398 418 398 381.5 436.5 c 128,-1,34
 345 475 345 475 289.5 475 c 128,-1,35
 234 475 234 475 195 449 c 128,-1,36
 156 423 156 423 135 380 c 0,37,38
 93 294 93 294 93 193 c 0,39,40
 93 36 93 36 224 36 c 0,27,28
EndSplineSet
Substitution2: "Single Substitution lookup 5 subtable" ordfeminine
Substitution2: "'aalt' Access All Alternates lookup 0 subtable" ordfeminine
EndChar

StartChar: aacute
Encoding: 103 225 103
Width: 607
GlyphClass: 2
Flags: MW
HStem: -10 46<186.5 248 453.5 455.5> 475 46<213.5 323> 491 20G<466 499 499 499> 575 145<285 467 285 467>
VStem: 42 51<135 254.5 135 267> 386 51<52 57.5>
LayerCount: 2
Fore
SplineSet
402 720 m 1,0,-1
 467 720 l 1,1,-1
 466 717 l 1,2,-1
 335 575 l 1,3,-1
 285 575 l 1,4,-1
 402 720 l 1,0,-1
386 55 m 0,5,6
 386 64 386 64 387 69 c 1,7,8
 321 -10 321 -10 212 -10 c 0,9,10
 135 -10 135 -10 88.5 40 c 128,-1,11
 42 90 42 90 42 190 c 0,12,13
 42 315.859649123 42 315.859649123 98.5 413 c 0,14,15
 127 462 127 462 175.5 491.5 c 128,-1,16
 224 521 224 521 287 521 c 0,17,18
 396 521 396 521 438 440 c 1,19,-1
 442 440 l 1,20,-1
 466 511 l 1,21,-1
 499 511 l 1,22,23
 437 73 437 73 437 61 c 0,24,25
 437 36 437 36 460 36 c 128,-1,26
 483 36 483 36 513 52 c 1,27,-1
 507 9 l 1,28,29
 477 -10 477 -10 444 -10 c 0,30,31
 386 -10 386 -10 386 55 c 0,5,6
224 36 m 0,32,33
 276 36 276 36 315 61 c 128,-1,34
 354 86 354 86 375.5 128.5 c 0,35,36
 418 212.511627907 418 212.511627907 418 321 c 0,37,38
 418 398 418 398 381.5 436.5 c 128,-1,39
 345 475 345 475 289.5 475 c 128,-1,40
 234 475 234 475 195 449 c 128,-1,41
 156 423 156 423 135 380 c 0,42,43
 93 294 93 294 93 193 c 0,44,45
 93 36 93 36 224 36 c 0,32,33
EndSplineSet
EndChar

StartChar: abreve
Encoding: 104 259 104
Width: 607
GlyphClass: 2
Flags: MW
HStem: -10 46<186.5 248 453.5 455.5> 475 46<213.5 323> 491 20G<466 499 499 499> 613 49<260.5 325.5 260.5 339.5>
VStem: 42 51<135 254.5 135 267> 386 51<52 57.5>
LayerCount: 2
Fore
SplineSet
426.5 652.5 m 128,-1,1
 363 613 363 613 288 613 c 128,-1,2
 213 613 213 613 161.5 649.5 c 128,-1,3
 110 686 110 686 110 729 c 0,4,5
 110 734 110 734 111 737 c 1,6,-1
 167 737 l 1,7,8
 174 701 174 701 208 681.5 c 128,-1,9
 242 662 242 662 292.5 662 c 128,-1,10
 343 662 343 662 383 681.5 c 128,-1,11
 423 701 423 701 440 737 c 1,12,-1
 496 737 l 1,13,0
 490 692 490 692 426.5 652.5 c 128,-1,1
386 55 m 0,14,15
 386 64 386 64 387 69 c 1,16,17
 321 -10 321 -10 212 -10 c 0,18,19
 135 -10 135 -10 88.5 40 c 128,-1,20
 42 90 42 90 42 190 c 0,21,22
 42 315.859649123 42 315.859649123 98.5 413 c 0,23,24
 127 462 127 462 175.5 491.5 c 128,-1,25
 224 521 224 521 287 521 c 0,26,27
 396 521 396 521 438 440 c 1,28,-1
 442 440 l 1,29,-1
 466 511 l 1,30,-1
 499 511 l 1,31,32
 437 73 437 73 437 61 c 0,33,34
 437 36 437 36 460 36 c 128,-1,35
 483 36 483 36 513 52 c 1,36,-1
 507 9 l 1,37,38
 477 -10 477 -10 444 -10 c 0,39,40
 386 -10 386 -10 386 55 c 0,14,15
224 36 m 0,41,42
 276 36 276 36 315 61 c 128,-1,43
 354 86 354 86 375.5 128.5 c 0,44,45
 418 212.511627907 418 212.511627907 418 321 c 0,46,47
 418 398 418 398 381.5 436.5 c 128,-1,48
 345 475 345 475 289.5 475 c 128,-1,49
 234 475 234 475 195 449 c 128,-1,50
 156 423 156 423 135 380 c 0,51,52
 93 294 93 294 93 193 c 0,53,54
 93 36 93 36 224 36 c 0,41,42
EndSplineSet
EndChar

StartChar: acircumflex
Encoding: 105 226 105
Width: 607
GlyphClass: 2
Flags: MW
HStem: -10 46<186.5 248 453.5 455.5> 475 46<213.5 323> 491 20G<466 499 499 499> 575 145<154 367 309 480 309 420>
VStem: 42 51<135 254.5 135 267> 386 51<52 57.5>
LayerCount: 2
Fore
SplineSet
367 720 m 1,0,-1
 480 575 l 1,1,-1
 420 575 l 1,2,-1
 331 672 l 1,3,-1
 214 575 l 1,4,-1
 154 575 l 1,5,-1
 309 720 l 1,6,-1
 367 720 l 1,0,-1
386 55 m 0,7,8
 386 64 386 64 387 69 c 1,9,10
 321 -10 321 -10 212 -10 c 0,11,12
 135 -10 135 -10 88.5 40 c 128,-1,13
 42 90 42 90 42 190 c 0,14,15
 42 315.859649123 42 315.859649123 98.5 413 c 0,16,17
 127 462 127 462 175.5 491.5 c 128,-1,18
 224 521 224 521 287 521 c 0,19,20
 396 521 396 521 438 440 c 1,21,-1
 442 440 l 1,22,-1
 466 511 l 1,23,-1
 499 511 l 1,24,25
 437 73 437 73 437 61 c 0,26,27
 437 36 437 36 460 36 c 128,-1,28
 483 36 483 36 513 52 c 1,29,-1
 507 9 l 1,30,31
 477 -10 477 -10 444 -10 c 0,32,33
 386 -10 386 -10 386 55 c 0,7,8
224 36 m 0,34,35
 276 36 276 36 315 61 c 128,-1,36
 354 86 354 86 375.5 128.5 c 0,37,38
 418 212.511627907 418 212.511627907 418 321 c 0,39,40
 418 398 418 398 381.5 436.5 c 128,-1,41
 345 475 345 475 289.5 475 c 128,-1,42
 234 475 234 475 195 449 c 128,-1,43
 156 423 156 423 135 380 c 0,44,45
 93 294 93 294 93 193 c 0,46,47
 93 36 93 36 224 36 c 0,34,35
EndSplineSet
EndChar

StartChar: adieresis
Encoding: 106 228 106
Width: 607
GlyphClass: 2
Flags: MW
HStem: -10 46<186.5 248 453.5 455.5> 475 46<213.5 323> 491 20G<466 499 499 499> 651 69<217 273 208 282 393 449>
VStem: 42 51<135 254.5 135 267> 212.5 65 386 51<52 57.5> 388.5 65
LayerCount: 2
Fore
SplineSet
282 720 m 1,0,-1
 273 651 l 1,1,-1
 208 651 l 1,2,-1
 217 720 l 1,3,-1
 282 720 l 1,0,-1
458 720 m 1,4,-1
 449 651 l 1,5,-1
 384 651 l 1,6,-1
 393 720 l 1,7,-1
 458 720 l 1,4,-1
386 55 m 0,8,9
 386 64 386 64 387 69 c 1,10,11
 321 -10 321 -10 212 -10 c 0,12,13
 135 -10 135 -10 88.5 40 c 128,-1,14
 42 90 42 90 42 190 c 0,15,16
 42 315.859649123 42 315.859649123 98.5 413 c 0,17,18
 127 462 127 462 175.5 491.5 c 128,-1,19
 224 521 224 521 287 521 c 0,20,21
 396 521 396 521 438 440 c 1,22,-1
 442 440 l 1,23,-1
 466 511 l 1,24,-1
 499 511 l 1,25,26
 437 73 437 73 437 61 c 0,27,28
 437 36 437 36 460 36 c 128,-1,29
 483 36 483 36 513 52 c 1,30,-1
 507 9 l 1,31,32
 477 -10 477 -10 444 -10 c 0,33,34
 386 -10 386 -10 386 55 c 0,8,9
224 36 m 0,35,36
 276 36 276 36 315 61 c 128,-1,37
 354 86 354 86 375.5 128.5 c 0,38,39
 418 212.511627907 418 212.511627907 418 321 c 0,40,41
 418 398 418 398 381.5 436.5 c 128,-1,42
 345 475 345 475 289.5 475 c 128,-1,43
 234 475 234 475 195 449 c 128,-1,44
 156 423 156 423 135 380 c 0,45,46
 93 294 93 294 93 193 c 0,47,48
 93 36 93 36 224 36 c 0,35,36
EndSplineSet
EndChar

StartChar: agrave
Encoding: 107 224 107
Width: 607
GlyphClass: 2
Flags: MW
HStem: -10 46<186.5 248 453.5 455.5> 475 46<213.5 323> 491 20G<466 499 499 499> 575 145<197 337 197 287>
VStem: 42 51<135 254.5 135 267> 386 51<52 57.5>
LayerCount: 2
Fore
SplineSet
196 717 m 1,0,-1
 197 720 l 1,1,-1
 262 720 l 1,2,-1
 337 575 l 1,3,-1
 287 575 l 1,4,-1
 196 717 l 1,0,-1
386 55 m 0,5,6
 386 64 386 64 387 69 c 1,7,8
 321 -10 321 -10 212 -10 c 0,9,10
 135 -10 135 -10 88.5 40 c 128,-1,11
 42 90 42 90 42 190 c 0,12,13
 42 315.859649123 42 315.859649123 98.5 413 c 0,14,15
 127 462 127 462 175.5 491.5 c 128,-1,16
 224 521 224 521 287 521 c 0,17,18
 396 521 396 521 438 440 c 1,19,-1
 442 440 l 1,20,-1
 466 511 l 1,21,-1
 499 511 l 1,22,23
 437 73 437 73 437 61 c 0,24,25
 437 36 437 36 460 36 c 128,-1,26
 483 36 483 36 513 52 c 1,27,-1
 507 9 l 1,28,29
 477 -10 477 -10 444 -10 c 0,30,31
 386 -10 386 -10 386 55 c 0,5,6
224 36 m 0,32,33
 276 36 276 36 315 61 c 128,-1,34
 354 86 354 86 375.5 128.5 c 0,35,36
 418 212.511627907 418 212.511627907 418 321 c 0,37,38
 418 398 418 398 381.5 436.5 c 128,-1,39
 345 475 345 475 289.5 475 c 128,-1,40
 234 475 234 475 195 449 c 128,-1,41
 156 423 156 423 135 380 c 0,42,43
 93 294 93 294 93 193 c 0,44,45
 93 36 93 36 224 36 c 0,32,33
EndSplineSet
EndChar

StartChar: amacron
Encoding: 108 257 108
Width: 607
GlyphClass: 2
Flags: MW
HStem: -10 46<186.5 248 453.5 455.5> 475 46<213.5 323> 491 20G<466 499 499 499> 691 45<153 463 145 471>
VStem: 42 51<135 254.5 135 267> 386 51<52 57.5>
LayerCount: 2
Fore
SplineSet
153 736 m 1,0,-1
 471 736 l 1,1,-1
 463 691 l 1,2,-1
 145 691 l 1,3,-1
 153 736 l 1,0,-1
386 55 m 0,4,5
 386 64 386 64 387 69 c 1,6,7
 321 -10 321 -10 212 -10 c 0,8,9
 135 -10 135 -10 88.5 40 c 128,-1,10
 42 90 42 90 42 190 c 0,11,12
 42 315.859649123 42 315.859649123 98.5 413 c 0,13,14
 127 462 127 462 175.5 491.5 c 128,-1,15
 224 521 224 521 287 521 c 0,16,17
 396 521 396 521 438 440 c 1,18,-1
 442 440 l 1,19,-1
 466 511 l 1,20,-1
 499 511 l 1,21,22
 437 73 437 73 437 61 c 0,23,24
 437 36 437 36 460 36 c 128,-1,25
 483 36 483 36 513 52 c 1,26,-1
 507 9 l 1,27,28
 477 -10 477 -10 444 -10 c 0,29,30
 386 -10 386 -10 386 55 c 0,4,5
224 36 m 0,31,32
 276 36 276 36 315 61 c 128,-1,33
 354 86 354 86 375.5 128.5 c 0,34,35
 418 212.511627907 418 212.511627907 418 321 c 0,36,37
 418 398 418 398 381.5 436.5 c 128,-1,38
 345 475 345 475 289.5 475 c 128,-1,39
 234 475 234 475 195 449 c 128,-1,40
 156 423 156 423 135 380 c 0,41,42
 93 294 93 294 93 193 c 0,43,44
 93 36 93 36 224 36 c 0,31,32
EndSplineSet
EndChar

StartChar: aogonek
Encoding: 109 261 109
Width: 607
GlyphClass: 2
Flags: MW
HStem: -143 43<469.5 483.5> -10 46<186.5 248> 0 21G<490 497 497 497> 475 46<213.5 323> 491 20G<466 499 499 499>
VStem: 42 51<135 254.5 135 267> 382 58<-80 -66.5> 386 51<52 57.5>
LayerCount: 2
Fore
SplineSet
548 -86 m 1,0,-1
 557 -119 l 1,1,2
 515 -143 515 -143 469 -143 c 0,3,4
 382 -143 382 -143 382 -83 c 0,5,6
 382 -44 382 -44 432 -9 c 1,7,8
 386 -2 386 -2 386 55 c 0,9,10
 386 64 386 64 387 69 c 1,11,12
 321 -10 321 -10 212 -10 c 0,13,14
 135 -10 135 -10 88.5 40 c 128,-1,15
 42 90 42 90 42 190 c 0,16,17
 42 315.859649123 42 315.859649123 98.5 413 c 0,18,19
 127 462 127 462 175.5 491.5 c 128,-1,20
 224 521 224 521 287 521 c 0,21,22
 396 521 396 521 438 440 c 1,23,-1
 442 440 l 1,24,-1
 466 511 l 1,25,-1
 499 511 l 1,26,27
 437 73 437 73 437 61 c 0,28,29
 437 36 437 36 460 36 c 128,-1,30
 483 36 483 36 513 52 c 1,31,-1
 507 9 l 1,32,33
 502 6 502 6 490 0 c 1,34,-1
 497 0 l 1,35,-1
 493 -2 l 1,36,37
 440 -35 440 -35 440 -67.5 c 128,-1,38
 440 -100 440 -100 479 -100 c 0,39,40
 504 -100 504 -100 548 -86 c 1,0,-1
224 36 m 0,41,42
 276 36 276 36 315 61 c 128,-1,43
 354 86 354 86 375.5 128.5 c 0,44,45
 418 212.511627907 418 212.511627907 418 321 c 0,46,47
 418 398 418 398 381.5 436.5 c 128,-1,48
 345 475 345 475 289.5 475 c 128,-1,49
 234 475 234 475 195 449 c 128,-1,50
 156 423 156 423 135 380 c 0,51,52
 93 294 93 294 93 193 c 0,53,54
 93 36 93 36 224 36 c 0,41,42
EndSplineSet
EndChar

StartChar: aring
Encoding: 110 229 110
Width: 607
GlyphClass: 2
Flags: MW
HStem: -10 46<186.5 248 453.5 455.5> 475 46<213.5 323> 491 20G<466 499 499 499> 555 36<303 338.5 303 346> 720 36<318.5 353.5>
VStem: 42 51<135 254.5 135 267> 226 36<630 666 630 675> 386 51<52 57.5> 394 36<644.5 681>
LayerCount: 2
Fore
SplineSet
405 731.5 m 128,-1,1
 430 707 430 707 430 665 c 128,-1,2
 430 623 430 623 396 589 c 128,-1,3
 362 555 362 555 319 555 c 128,-1,4
 276 555 276 555 251 579.5 c 128,-1,5
 226 604 226 604 226 647 c 128,-1,6
 226 690 226 690 261.5 723 c 128,-1,7
 297 756 297 756 338.5 756 c 128,-1,0
 380 756 380 756 405 731.5 c 128,-1,1
278.5 606.5 m 128,-1,9
 295 591 295 591 322 591 c 128,-1,10
 349 591 349 591 371.5 613 c 128,-1,11
 394 635 394 635 394 662 c 128,-1,12
 394 689 394 689 378 704.5 c 128,-1,13
 362 720 362 720 335 720 c 128,-1,14
 308 720 308 720 285 698 c 128,-1,15
 262 676 262 676 262 649 c 128,-1,8
 262 622 262 622 278.5 606.5 c 128,-1,9
386 55 m 0,16,17
 386 64 386 64 387 69 c 1,18,19
 321 -10 321 -10 212 -10 c 0,20,21
 135 -10 135 -10 88.5 40 c 128,-1,22
 42 90 42 90 42 190 c 0,23,24
 42 315.859649123 42 315.859649123 98.5 413 c 0,25,26
 127 462 127 462 175.5 491.5 c 128,-1,27
 224 521 224 521 287 521 c 0,28,29
 396 521 396 521 438 440 c 1,30,-1
 442 440 l 1,31,-1
 466 511 l 1,32,-1
 499 511 l 1,33,34
 437 73 437 73 437 61 c 0,35,36
 437 36 437 36 460 36 c 128,-1,37
 483 36 483 36 513 52 c 1,38,-1
 507 9 l 1,39,40
 477 -10 477 -10 444 -10 c 0,41,42
 386 -10 386 -10 386 55 c 0,16,17
224 36 m 0,43,44
 276 36 276 36 315 61 c 128,-1,45
 354 86 354 86 375.5 128.5 c 0,46,47
 418 212.511627907 418 212.511627907 418 321 c 0,48,49
 418 398 418 398 381.5 436.5 c 128,-1,50
 345 475 345 475 289.5 475 c 128,-1,51
 234 475 234 475 195 449 c 128,-1,52
 156 423 156 423 135 380 c 0,53,54
 93 294 93 294 93 193 c 0,55,56
 93 36 93 36 224 36 c 0,43,44
EndSplineSet
EndChar

StartChar: atilde
Encoding: 111 227 111
Width: 607
GlyphClass: 2
Flags: MW
HStem: -10 46<186.5 248 453.5 455.5> 475 46<213.5 323> 491 20G<466 499 499 499> 638 50<393 436.5 393 445.5> 670 50<226.5 270>
VStem: 42 51<135 254.5 135 267> 386 51<52 57.5>
LayerCount: 2
Fore
SplineSet
481 720 m 1,0,-1
 518 720 l 1,1,2
 514 690 514 690 486.5 664 c 128,-1,3
 459 638 459 638 416 638 c 128,-1,4
 373 638 373 638 321 654 c 128,-1,5
 269 670 269 670 243 670 c 0,6,7
 196 670 196 670 182 638 c 1,8,-1
 145 638 l 1,9,10
 149 668 149 668 176.5 694 c 128,-1,11
 204 720 204 720 247 720 c 128,-1,12
 290 720 290 720 342 704 c 128,-1,13
 394 688 394 688 420 688 c 0,14,15
 467 688 467 688 481 720 c 1,0,-1
386 55 m 0,16,17
 386 64 386 64 387 69 c 1,18,19
 321 -10 321 -10 212 -10 c 0,20,21
 135 -10 135 -10 88.5 40 c 128,-1,22
 42 90 42 90 42 190 c 0,23,24
 42 315.859649123 42 315.859649123 98.5 413 c 0,25,26
 127 462 127 462 175.5 491.5 c 128,-1,27
 224 521 224 521 287 521 c 0,28,29
 396 521 396 521 438 440 c 1,30,-1
 442 440 l 1,31,-1
 466 511 l 1,32,-1
 499 511 l 1,33,34
 437 73 437 73 437 61 c 0,35,36
 437 36 437 36 460 36 c 128,-1,37
 483 36 483 36 513 52 c 1,38,-1
 507 9 l 1,39,40
 477 -10 477 -10 444 -10 c 0,41,42
 386 -10 386 -10 386 55 c 0,16,17
224 36 m 0,43,44
 276 36 276 36 315 61 c 128,-1,45
 354 86 354 86 375.5 128.5 c 0,46,47
 418 212.511627907 418 212.511627907 418 321 c 0,48,49
 418 398 418 398 381.5 436.5 c 128,-1,50
 345 475 345 475 289.5 475 c 128,-1,51
 234 475 234 475 195 449 c 128,-1,52
 156 423 156 423 135 380 c 0,53,54
 93 294 93 294 93 193 c 0,55,56
 93 36 93 36 224 36 c 0,43,44
EndSplineSet
EndChar

StartChar: ae
Encoding: 112 230 112
Width: 895
GlyphClass: 2
Flags: MW
HStem: -10 46<159 220.5 550 629.5> 250 46<311 406 464 775 305.5 457> 475 46<263 345.5 620.5 686.5>
VStem: 39 51<90.5 181 90.5 196> 92 51 403.5 48.5 780 50<345 389.5>
LayerCount: 2
Fore
SplineSet
457 250 m 1,0,1
 452 210 452 210 452 192 c 0,2,3
 452 116 452 116 490 76 c 128,-1,4
 528 36 528 36 591 36 c 128,-1,5
 654 36 654 36 701.5 75 c 128,-1,6
 749 114 749 114 760 189 c 1,7,-1
 810 189 l 1,8,9
 797 96 797 96 733 43 c 128,-1,10
 669 -10 669 -10 583 -10 c 0,11,12
 517 -10 517 -10 472.5 22 c 128,-1,13
 428 54 428 54 411 115 c 1,14,15
 372 50 372 50 309.5 20 c 128,-1,16
 247 -10 247 -10 182 -10 c 0,17,18
 39 -10 39 -10 39 111 c 0,19,20
 39 204.65 39 204.65 108 249.5 c 0,21,22
 162.76774759 285.099035933 162.76774759 285.099035933 290.5 293 c 0,23,24
 339 296 339 296 412 296 c 1,25,26
 423 379 423 379 423 390 c 0,27,28
 423 437 423 437 395.5 456 c 128,-1,29
 368 475 368 475 303 475 c 128,-1,30
 238 475 238 475 194.5 449.5 c 128,-1,31
 151 424 151 424 144 371 c 2,32,-1
 142 355 l 1,33,-1
 92 355 l 1,34,35
 93 372 93 372 94 381 c 0,36,37
 103 446 103 446 164 483.5 c 128,-1,38
 225 521 225 521 311 521 c 0,39,40
 455 521 455 521 473 430 c 1,41,42
 544 521 544 521 657 521 c 0,43,44
 735 521 735 521 782.5 476.5 c 128,-1,45
 830 432 830 432 830 351 c 0,46,47
 830 327 830 327 819 250 c 1,48,-1
 457 250 l 1,0,1
744 442 m 128,-1,50
 708 475 708 475 645.5 475 c 128,-1,51
 583 475 583 475 532.5 429 c 128,-1,52
 482 383 482 383 464 296 c 1,53,-1
 775 296 l 1,54,55
 780 332 780 332 780 346 c 0,56,49
 780 409 780 409 744 442 c 128,-1,50
401 216 m 2,57,-1
 406 250 l 1,58,59
 226.666666667 250 226.666666667 250 176 231 c 0,60,61
 114.95709571 208.108910891 114.95709571 208.108910891 99.5 171.5 c 0,62,63
 90 149 90 149 90 112 c 128,-1,64
 90 75 90 75 115 55.5 c 128,-1,65
 140 36 140 36 205.5 36 c 128,-1,66
 271 36 271 36 329.5 82.5 c 128,-1,67
 388 129 388 129 401 216 c 2,57,-1
EndSplineSet
EndChar

StartChar: b
Encoding: 113 98 113
Width: 582
GlyphClass: 2
Flags: MW
HStem: -10 46<219 306 219 345.5> 0 21G<42 63 42 42> 475 46<293 354.5>
VStem: 449 52<257 375>
LayerCount: 2
Fore
SplineSet
194 720 m 1,0,-1
 154 440 l 1,1,2
 219 521 219 521 329 521 c 0,3,4
 406 521 406 521 453.5 469 c 128,-1,5
 501 417 501 417 501 324 c 0,6,7
 501 210.054545455 501 210.054545455 446.5 107 c 0,8,9
 419 55 419 55 369 22.5 c 128,-1,10
 319 -10 319 -10 254 -10 c 0,11,12
 137 -10 137 -10 94 85 c 1,13,-1
 63 0 l 1,14,-1
 42 0 l 1,15,-1
 143 720 l 1,16,-1
 194 720 l 1,0,-1
412.5 436.5 m 128,-1,18
 376 475 376 475 313 475 c 128,-1,19
 250 475 250 475 204.5 431 c 0,20,21
 123 352.186813187 123 352.186813187 123 194.093406593 c 128,-1,22
 123 36 123 36 256 36 c 0,23,24
 337 36 337 36 393 110.5 c 128,-1,25
 449 185 449 185 449 322 c 0,26,17
 449 398 449 398 412.5 436.5 c 128,-1,18
EndSplineSet
EndChar

StartChar: c
Encoding: 114 99 114
Width: 546
GlyphClass: 2
Flags: MW
HStem: -10 46<191 271.5 191 280> 475 46<218.5 327.5>
VStem: 42 51<139.5 257.5 139.5 270.5> 421 50<345 389.5>
AnchorPoint: "Bottom" 237 0 basechar 0
LayerCount: 2
Fore
SplineSet
402 197 m 1,0,-1
 452 197 l 1,1,2
 439 100 439 100 375 45 c 128,-1,3
 311 -10 311 -10 225.5 -10 c 128,-1,4
 140 -10 140 -10 91 42.5 c 128,-1,5
 42 95 42 95 42 185 c 128,-1,6
 42 275 42 275 68 347.5 c 128,-1,7
 94 420 94 420 154 470.5 c 128,-1,8
 214 521 214 521 295 521 c 128,-1,9
 376 521 376 521 423.5 476.5 c 128,-1,10
 471 432 471 432 471 351 c 0,11,12
 471 327 471 327 469 314 c 1,13,-1
 419 314 l 1,14,15
 421 336 421 336 421 346 c 0,16,17
 421 409 421 409 385 442 c 128,-1,18
 349 475 349 475 294 475 c 128,-1,19
 239 475 239 475 199.5 449.5 c 128,-1,20
 160 424 160 424 137.5 382 c 0,21,22
 93 298.933333333 93 298.933333333 93 192 c 0,23,24
 93 116 93 116 131 76 c 128,-1,25
 169 36 169 36 232.5 36 c 128,-1,26
 296 36 296 36 343.5 77 c 128,-1,27
 391 118 391 118 402 197 c 1,0,-1
EndSplineSet
EndChar

StartChar: cacute
Encoding: 115 263 115
Width: 546
GlyphClass: 2
Flags: MW
HStem: -10 46<191 271.5 191 280> 475 46<218.5 327.5> 575 145<257 439 257 439>
VStem: 42 51<139.5 257.5 139.5 270.5> 421 50<345 389.5>
AnchorPoint: "Bottom" 237 0 basechar 0
LayerCount: 2
Fore
SplineSet
374 720 m 1,0,-1
 439 720 l 1,1,-1
 438 717 l 1,2,-1
 307 575 l 1,3,-1
 257 575 l 1,4,-1
 374 720 l 1,0,-1
402 197 m 1,5,-1
 452 197 l 1,6,7
 439 100 439 100 375 45 c 128,-1,8
 311 -10 311 -10 225.5 -10 c 128,-1,9
 140 -10 140 -10 91 42.5 c 128,-1,10
 42 95 42 95 42 185 c 128,-1,11
 42 275 42 275 68 347.5 c 128,-1,12
 94 420 94 420 154 470.5 c 128,-1,13
 214 521 214 521 295 521 c 128,-1,14
 376 521 376 521 423.5 476.5 c 128,-1,15
 471 432 471 432 471 351 c 0,16,17
 471 327 471 327 469 314 c 1,18,-1
 419 314 l 1,19,20
 421 336 421 336 421 346 c 0,21,22
 421 409 421 409 385 442 c 128,-1,23
 349 475 349 475 294 475 c 128,-1,24
 239 475 239 475 199.5 449.5 c 128,-1,25
 160 424 160 424 137.5 382 c 0,26,27
 93 298.933333333 93 298.933333333 93 192 c 0,28,29
 93 116 93 116 131 76 c 128,-1,30
 169 36 169 36 232.5 36 c 128,-1,31
 296 36 296 36 343.5 77 c 128,-1,32
 391 118 391 118 402 197 c 1,5,-1
EndSplineSet
EndChar

StartChar: ccaron
Encoding: 116 269 116
Width: 546
GlyphClass: 2
Flags: MW
HStem: -10 46<191 271.5 191 280> 475 46<218.5 327.5> 575 145<145 316 145 258>
VStem: 42 51<139.5 257.5 139.5 270.5> 421 50<345 389.5>
AnchorPoint: "Bottom" 237 0 basechar 0
LayerCount: 2
Fore
SplineSet
205 720 m 1,0,-1
 294 623 l 1,1,-1
 411 720 l 1,2,-1
 471 720 l 1,3,-1
 316 575 l 1,4,-1
 258 575 l 1,5,-1
 145 720 l 1,6,-1
 205 720 l 1,0,-1
402 197 m 1,7,-1
 452 197 l 1,8,9
 439 100 439 100 375 45 c 128,-1,10
 311 -10 311 -10 225.5 -10 c 128,-1,11
 140 -10 140 -10 91 42.5 c 128,-1,12
 42 95 42 95 42 185 c 128,-1,13
 42 275 42 275 68 347.5 c 128,-1,14
 94 420 94 420 154 470.5 c 128,-1,15
 214 521 214 521 295 521 c 128,-1,16
 376 521 376 521 423.5 476.5 c 128,-1,17
 471 432 471 432 471 351 c 0,18,19
 471 327 471 327 469 314 c 1,20,-1
 419 314 l 1,21,22
 421 336 421 336 421 346 c 0,23,24
 421 409 421 409 385 442 c 128,-1,25
 349 475 349 475 294 475 c 128,-1,26
 239 475 239 475 199.5 449.5 c 128,-1,27
 160 424 160 424 137.5 382 c 0,28,29
 93 298.933333333 93 298.933333333 93 192 c 0,30,31
 93 116 93 116 131 76 c 128,-1,32
 169 36 169 36 232.5 36 c 128,-1,33
 296 36 296 36 343.5 77 c 128,-1,34
 391 118 391 118 402 197 c 1,7,-1
EndSplineSet
EndChar

StartChar: ccedilla
Encoding: 117 231 117
Width: 546
GlyphClass: 2
Flags: MW
HStem: -197 46<171.5 199 164.5 208> -184 21G<108 108> -51 34<196 213 191 225.5> -10 46<191 271.5 191 280> 475 46<218.5 327.5>
VStem: 42 51<139.5 257.5 139.5 270.5> 265 51<-115 -77.5> 421 50<345 389.5>
LayerCount: 2
Fore
SplineSet
402 197 m 1,0,-1
 452 197 l 1,1,2
 439 100 439 100 375 45 c 128,-1,3
 311 -10 311 -10 225.5 -10 c 128,-1,4
 140 -10 140 -10 91 42.5 c 128,-1,5
 42 95 42 95 42 185 c 128,-1,6
 42 275 42 275 68 347.5 c 128,-1,7
 94 420 94 420 154 470.5 c 128,-1,8
 214 521 214 521 295 521 c 128,-1,9
 376 521 376 521 423.5 476.5 c 128,-1,10
 471 432 471 432 471 351 c 0,11,12
 471 327 471 327 469 314 c 1,13,-1
 419 314 l 1,14,15
 421 336 421 336 421 346 c 0,16,17
 421 409 421 409 385 442 c 128,-1,18
 349 475 349 475 294 475 c 128,-1,19
 239 475 239 475 199.5 449.5 c 128,-1,20
 160 424 160 424 137.5 382 c 0,21,22
 93 298.933333333 93 298.933333333 93 192 c 0,23,24
 93 116 93 116 131 76 c 128,-1,25
 169 36 169 36 232.5 36 c 128,-1,26
 296 36 296 36 343.5 77 c 128,-1,27
 391 118 391 118 402 197 c 1,0,-1
108 -184 m 1,28,-1
 114 -138 l 1,29,30
 136 -151 136 -151 175.5 -151 c 0,31,32
 265 -151 265 -151 265 -91 c 0,33,34
 265 -72 265 -72 249.5 -61.5 c 128,-1,35
 234 -51 234 -51 213 -51 c 2,36,-1
 191 -51 l 1,37,-1
 196 -17 l 1,38,39
 285.967741935 -17 285.967741935 -17 306.5 -50.5 c 0,40,41
 316 -66 316 -66 316 -98 c 128,-1,42
 316 -130 316 -130 292 -155.5 c 0,43,44
 252.941176471 -197 252.941176471 -197 184 -197 c 0,45,46
 140 -197 140 -197 108 -184 c 1,28,-1
EndSplineSet
EndChar

StartChar: d
Encoding: 118 100 118
Width: 612
GlyphClass: 2
Flags: MW
HStem: -10 46<186.5 248 453.5 455.5> 475 46<213.5 323>
VStem: 42 51<135 254.5 135 267> 386 51<52 57.5>
LayerCount: 2
Fore
SplineSet
386 55 m 0,0,1
 386 64 386 64 387 69 c 1,2,3
 321 -10 321 -10 212 -10 c 0,4,5
 135 -10 135 -10 88.5 40 c 128,-1,6
 42 90 42 90 42 190 c 0,7,8
 42 315.859649123 42 315.859649123 98.5 413 c 0,9,10
 127 462 127 462 175.5 491.5 c 128,-1,11
 224 521 224 521 287 521 c 0,12,13
 396 521 396 521 438 440 c 1,14,-1
 478 720 l 1,15,-1
 529 720 l 1,16,17
 437 73 437 73 437 61 c 0,18,19
 437 36 437 36 460 36 c 128,-1,20
 483 36 483 36 513 52 c 1,21,-1
 507 9 l 1,22,23
 477 -10 477 -10 444 -10 c 0,24,25
 386 -10 386 -10 386 55 c 0,0,1
224 36 m 0,26,27
 276 36 276 36 315 61 c 128,-1,28
 354 86 354 86 375.5 128.5 c 0,29,30
 418 212.511627907 418 212.511627907 418 321 c 0,31,32
 418 398 418 398 381.5 436.5 c 128,-1,33
 345 475 345 475 289.5 475 c 128,-1,34
 234 475 234 475 195 449 c 128,-1,35
 156 423 156 423 135 380 c 0,36,37
 93 294 93 294 93 193 c 0,38,39
 93 36 93 36 224 36 c 0,26,27
EndSplineSet
EndChar

StartChar: eth
Encoding: 119 240 119
Width: 576
GlyphClass: 2
Flags: MW
HStem: -10 46<208.5 320.5 208.5 338> 475 46<235 331.5 224 351> 668 20G<443 443>
VStem: 59 50<141.5 257.5 141.5 264.5> 451 50<254 370.5>
LayerCount: 2
Fore
SplineSet
187 707 m 1,0,-1
 226 724 l 1,1,2
 267 697 267 697 312 661 c 1,3,-1
 423 711 l 1,4,-1
 443 688 l 1,5,-1
 337 640 l 1,6,7
 501 497 501 497 501 318 c 0,8,9
 501 223.358974359 501 223.358974359 464.5 141 c 0,10,11
 423.125461255 47.6420664207 423.125461255 47.6420664207 342.5 10.5 c 0,12,13
 298 -10 298 -10 243 -10 c 0,14,15
 158 -10 158 -10 108.5 43 c 128,-1,16
 59 96 59 96 59 192 c 0,17,18
 59 312.338983051 59 312.338983051 117.5 410.5 c 0,19,20
 147 460 147 460 199 490.5 c 128,-1,21
 251 521 251 521 318 521 c 0,22,23
 355 521 355 521 391 508 c 1,24,25
 349 567 349 567 293 620 c 1,26,-1
 184 570 l 1,27,-1
 162 593 l 1,28,-1
 270 642 l 1,29,30
 248 660 248 660 187 707 c 1,0,-1
147.5 76.5 m 128,-1,32
 186 36 186 36 243 36 c 128,-1,33
 300 36 300 36 340.5 62 c 128,-1,34
 381 88 381 88 404 130 c 0,35,36
 451 215.826086957 451 215.826086957 451 317 c 0,37,38
 451 394 451 394 412.5 434.5 c 128,-1,39
 374 475 374 475 315.5 475 c 128,-1,40
 257 475 257 475 216 449.5 c 128,-1,41
 175 424 175 424 152.5 381.5 c 0,42,43
 109 299.333333333 109 299.333333333 109 195 c 0,44,31
 109 117 109 117 147.5 76.5 c 128,-1,32
EndSplineSet
EndChar

StartChar: dcaron
Encoding: 120 271 120
Width: 612
GlyphClass: 2
Flags: MW
HStem: -10 46<186.5 248 453.5 455.5> 475 46<213.5 323> 496 20G<586 620 586 586.5> 516 170<608 620 586 673> 617 69<608 623 599 673>
VStem: 42 51<135 254.5 135 267> 386 51<52 57.5> 603.5 65.5
LayerCount: 2
Fore
SplineSet
386 55 m 0,0,1
 386 64 386 64 387 69 c 1,2,3
 321 -10 321 -10 212 -10 c 0,4,5
 135 -10 135 -10 88.5 40 c 128,-1,6
 42 90 42 90 42 190 c 0,7,8
 42 315.859649123 42 315.859649123 98.5 413 c 0,9,10
 127 462 127 462 175.5 491.5 c 128,-1,11
 224 521 224 521 287 521 c 0,12,13
 396 521 396 521 438 440 c 1,14,-1
 478 720 l 1,15,-1
 529 720 l 1,16,17
 437 73 437 73 437 61 c 0,18,19
 437 36 437 36 460 36 c 128,-1,20
 483 36 483 36 513 52 c 1,21,-1
 507 9 l 1,22,23
 477 -10 477 -10 444 -10 c 0,24,25
 386 -10 386 -10 386 55 c 0,0,1
620 516 m 1,26,-1
 586 516 l 1,27,-1
 623 617 l 1,28,-1
 599 617 l 1,29,-1
 608 686 l 1,30,-1
 673 686 l 1,31,-1
 665 628 l 1,32,-1
 620 516 l 1,26,-1
224 36 m 0,33,34
 276 36 276 36 315 61 c 128,-1,35
 354 86 354 86 375.5 128.5 c 0,36,37
 418 212.511627907 418 212.511627907 418 321 c 0,38,39
 418 398 418 398 381.5 436.5 c 128,-1,40
 345 475 345 475 289.5 475 c 128,-1,41
 234 475 234 475 195 449 c 128,-1,42
 156 423 156 423 135 380 c 0,43,44
 93 294 93 294 93 193 c 0,45,46
 93 36 93 36 224 36 c 0,33,34
EndSplineSet
EndChar

StartChar: dcroat
Encoding: 121 273 121
Width: 612
GlyphClass: 2
Flags: MW
HStem: -10 46<186.5 248 453.5 455.5> 475 46<213.5 323> 623 43<251 464 245 470 521 627>
VStem: 42 51<135 254.5 135 267> 386 51<52 57.5> 474 51
LayerCount: 2
Fore
SplineSet
515 623 m 1,0,-1
 437 61 l 1,1,2
 437 36 437 36 460 36 c 128,-1,3
 483 36 483 36 513 52 c 1,4,-1
 507 9 l 1,5,6
 477 -10 477 -10 444 -10 c 0,7,8
 386 -10 386 -10 386 55 c 0,9,10
 386 64 386 64 387 69 c 1,11,12
 321 -10 321 -10 212 -10 c 0,13,14
 135 -10 135 -10 88.5 40 c 128,-1,15
 42 90 42 90 42 190 c 0,16,17
 42 315.859649123 42 315.859649123 98.5 413 c 0,18,19
 127 462 127 462 175.5 491.5 c 128,-1,20
 224 521 224 521 287 521 c 0,21,22
 396 521 396 521 438 440 c 1,23,-1
 464 623 l 1,24,-1
 245 623 l 1,25,-1
 251 666 l 1,26,-1
 470 666 l 1,27,-1
 478 720 l 1,28,-1
 529 720 l 1,29,-1
 521 666 l 1,30,-1
 633 666 l 1,31,-1
 627 623 l 1,32,-1
 515 623 l 1,0,-1
224 36 m 0,33,34
 276 36 276 36 315 61 c 128,-1,35
 354 86 354 86 375.5 128.5 c 0,36,37
 418 212.511627907 418 212.511627907 418 321 c 0,38,39
 418 398 418 398 381.5 436.5 c 128,-1,40
 345 475 345 475 289.5 475 c 128,-1,41
 234 475 234 475 195 449 c 128,-1,42
 156 423 156 423 135 380 c 0,43,44
 93 294 93 294 93 193 c 0,45,46
 93 36 93 36 224 36 c 0,33,34
EndSplineSet
EndChar

StartChar: e
Encoding: 122 101 122
Width: 556
GlyphClass: 2
Flags: MW
HStem: -10 46<190 273 190 282.5> 250 46<104 415 104 459 97 415> 475 46<247 326.5>
VStem: 41 51<139.5 200 139.5 269.5> 420 50<345 389.5>
AnchorPoint: "Bottom" 242 0 basechar 0
LayerCount: 2
Fore
SplineSet
400 189 m 1,0,-1
 450 189 l 1,1,2
 437 95 437 95 375.5 42.5 c 128,-1,3
 314 -10 314 -10 226.5 -10 c 128,-1,4
 139 -10 139 -10 90 42.5 c 128,-1,5
 41 95 41 95 41 184.5 c 128,-1,6
 41 274 41 274 66.5 346.5 c 128,-1,7
 92 419 92 419 152 470 c 128,-1,8
 212 521 212 521 293.5 521 c 128,-1,9
 375 521 375 521 422.5 476.5 c 128,-1,10
 470 432 470 432 470 351 c 0,11,12
 470 297 470 297 459 250 c 1,13,-1
 97 250 l 1,14,15
 92 218 92 218 92 192 c 0,16,17
 92 116 92 116 130 76 c 128,-1,18
 168 36 168 36 232.5 36 c 128,-1,19
 297 36 297 36 343 74.5 c 128,-1,20
 389 113 389 113 400 189 c 1,0,-1
384 442 m 128,-1,22
 348 475 348 475 285.5 475 c 128,-1,23
 223 475 223 475 172.5 429 c 128,-1,24
 122 383 122 383 104 296 c 1,25,-1
 415 296 l 1,26,27
 420 325 420 325 420 346 c 0,28,21
 420 409 420 409 384 442 c 128,-1,22
EndSplineSet
EndChar

StartChar: eacute
Encoding: 123 233 123
Width: 556
GlyphClass: 2
Flags: MW
HStem: -10 46<190 273 190 282.5> 250 46<104 415 104 459 97 415> 475 46<247 326.5> 575 145<279 461 279 461>
VStem: 41 51<139.5 200 139.5 269.5> 420 50<345 389.5>
LayerCount: 2
Fore
SplineSet
396 720 m 1,0,-1
 461 720 l 1,1,-1
 460 717 l 1,2,-1
 329 575 l 1,3,-1
 279 575 l 1,4,-1
 396 720 l 1,0,-1
400 189 m 1,5,-1
 450 189 l 1,6,7
 437 95 437 95 375.5 42.5 c 128,-1,8
 314 -10 314 -10 226.5 -10 c 128,-1,9
 139 -10 139 -10 90 42.5 c 128,-1,10
 41 95 41 95 41 184.5 c 128,-1,11
 41 274 41 274 66.5 346.5 c 128,-1,12
 92 419 92 419 152 470 c 128,-1,13
 212 521 212 521 293.5 521 c 128,-1,14
 375 521 375 521 422.5 476.5 c 128,-1,15
 470 432 470 432 470 351 c 0,16,17
 470 297 470 297 459 250 c 1,18,-1
 97 250 l 1,19,20
 92 218 92 218 92 192 c 0,21,22
 92 116 92 116 130 76 c 128,-1,23
 168 36 168 36 232.5 36 c 128,-1,24
 297 36 297 36 343 74.5 c 128,-1,25
 389 113 389 113 400 189 c 1,5,-1
384 442 m 128,-1,27
 348 475 348 475 285.5 475 c 128,-1,28
 223 475 223 475 172.5 429 c 128,-1,29
 122 383 122 383 104 296 c 1,30,-1
 415 296 l 1,31,32
 420 325 420 325 420 346 c 0,33,26
 420 409 420 409 384 442 c 128,-1,27
EndSplineSet
EndChar

StartChar: ecaron
Encoding: 124 283 124
Width: 556
GlyphClass: 2
Flags: MW
HStem: -10 46<190 273 190 282.5> 250 46<104 415 104 459 97 415> 475 46<247 326.5> 575 145<140 311 140 253>
VStem: 41 51<139.5 200 139.5 269.5> 420 50<345 389.5>
AnchorPoint: "Bottom" 242 0 basechar 0
LayerCount: 2
Fore
SplineSet
200 720 m 1,0,-1
 289 623 l 1,1,-1
 406 720 l 1,2,-1
 466 720 l 1,3,-1
 311 575 l 1,4,-1
 253 575 l 1,5,-1
 140 720 l 1,6,-1
 200 720 l 1,0,-1
400 189 m 1,7,-1
 450 189 l 1,8,9
 437 95 437 95 375.5 42.5 c 128,-1,10
 314 -10 314 -10 226.5 -10 c 128,-1,11
 139 -10 139 -10 90 42.5 c 128,-1,12
 41 95 41 95 41 184.5 c 128,-1,13
 41 274 41 274 66.5 346.5 c 128,-1,14
 92 419 92 419 152 470 c 128,-1,15
 212 521 212 521 293.5 521 c 128,-1,16
 375 521 375 521 422.5 476.5 c 128,-1,17
 470 432 470 432 470 351 c 0,18,19
 470 297 470 297 459 250 c 1,20,-1
 97 250 l 1,21,22
 92 218 92 218 92 192 c 0,23,24
 92 116 92 116 130 76 c 128,-1,25
 168 36 168 36 232.5 36 c 128,-1,26
 297 36 297 36 343 74.5 c 128,-1,27
 389 113 389 113 400 189 c 1,7,-1
384 442 m 128,-1,29
 348 475 348 475 285.5 475 c 128,-1,30
 223 475 223 475 172.5 429 c 128,-1,31
 122 383 122 383 104 296 c 1,32,-1
 415 296 l 1,33,34
 420 325 420 325 420 346 c 0,35,28
 420 409 420 409 384 442 c 128,-1,29
EndSplineSet
EndChar

StartChar: ecircumflex
Encoding: 125 234 125
Width: 556
GlyphClass: 2
Flags: MW
HStem: -10 46<190 273 190 282.5> 250 46<104 415 104 459 97 415> 475 46<247 326.5> 575 145<152 365 307 478 307 418>
VStem: 41 51<139.5 200 139.5 269.5> 420 50<345 389.5>
LayerCount: 2
Fore
SplineSet
365 720 m 1,0,-1
 478 575 l 1,1,-1
 418 575 l 1,2,-1
 329 672 l 1,3,-1
 212 575 l 1,4,-1
 152 575 l 1,5,-1
 307 720 l 1,6,-1
 365 720 l 1,0,-1
400 189 m 1,7,-1
 450 189 l 1,8,9
 437 95 437 95 375.5 42.5 c 128,-1,10
 314 -10 314 -10 226.5 -10 c 128,-1,11
 139 -10 139 -10 90 42.5 c 128,-1,12
 41 95 41 95 41 184.5 c 128,-1,13
 41 274 41 274 66.5 346.5 c 128,-1,14
 92 419 92 419 152 470 c 128,-1,15
 212 521 212 521 293.5 521 c 128,-1,16
 375 521 375 521 422.5 476.5 c 128,-1,17
 470 432 470 432 470 351 c 0,18,19
 470 297 470 297 459 250 c 1,20,-1
 97 250 l 1,21,22
 92 218 92 218 92 192 c 0,23,24
 92 116 92 116 130 76 c 128,-1,25
 168 36 168 36 232.5 36 c 128,-1,26
 297 36 297 36 343 74.5 c 128,-1,27
 389 113 389 113 400 189 c 1,7,-1
384 442 m 128,-1,29
 348 475 348 475 285.5 475 c 128,-1,30
 223 475 223 475 172.5 429 c 128,-1,31
 122 383 122 383 104 296 c 1,32,-1
 415 296 l 1,33,34
 420 325 420 325 420 346 c 0,35,28
 420 409 420 409 384 442 c 128,-1,29
EndSplineSet
EndChar

StartChar: edieresis
Encoding: 126 235 126
Width: 556
GlyphClass: 2
Flags: MW
HStem: -10 46<190 273 190 282.5> 250 46<104 415 104 459 97 415> 475 46<247 326.5> 651 69<211 267 202 276 387 443>
VStem: 41 51<139.5 200 139.5 269.5> 206.5 65 382.5 65 420 50<345 389.5>
LayerCount: 2
Fore
SplineSet
276 720 m 1,0,-1
 267 651 l 1,1,-1
 202 651 l 1,2,-1
 211 720 l 1,3,-1
 276 720 l 1,0,-1
452 720 m 1,4,-1
 443 651 l 1,5,-1
 378 651 l 1,6,-1
 387 720 l 1,7,-1
 452 720 l 1,4,-1
400 189 m 1,8,-1
 450 189 l 1,9,10
 437 95 437 95 375.5 42.5 c 128,-1,11
 314 -10 314 -10 226.5 -10 c 128,-1,12
 139 -10 139 -10 90 42.5 c 128,-1,13
 41 95 41 95 41 184.5 c 128,-1,14
 41 274 41 274 66.5 346.5 c 128,-1,15
 92 419 92 419 152 470 c 128,-1,16
 212 521 212 521 293.5 521 c 128,-1,17
 375 521 375 521 422.5 476.5 c 128,-1,18
 470 432 470 432 470 351 c 0,19,20
 470 297 470 297 459 250 c 1,21,-1
 97 250 l 1,22,23
 92 218 92 218 92 192 c 0,24,25
 92 116 92 116 130 76 c 128,-1,26
 168 36 168 36 232.5 36 c 128,-1,27
 297 36 297 36 343 74.5 c 128,-1,28
 389 113 389 113 400 189 c 1,8,-1
384 442 m 128,-1,30
 348 475 348 475 285.5 475 c 128,-1,31
 223 475 223 475 172.5 429 c 128,-1,32
 122 383 122 383 104 296 c 1,33,-1
 415 296 l 1,34,35
 420 325 420 325 420 346 c 0,36,29
 420 409 420 409 384 442 c 128,-1,30
EndSplineSet
EndChar

StartChar: edotaccent
Encoding: 127 279 127
Width: 556
GlyphClass: 2
Flags: MW
HStem: -10 46<190 273 190 282.5> 250 46<104 415 104 459 97 415> 475 46<247 326.5> 604 132<293 319>
VStem: 41 51<139.5 200 139.5 269.5> 239 134<659.5 680.5> 420 50<345 389.5>
AnchorPoint: "Bottom" 242 0 basechar 0
LayerCount: 2
Fore
SplineSet
356.5 719.5 m 128,-1,1
 373 703 373 703 373 676 c 128,-1,2
 373 649 373 649 351 626.5 c 128,-1,3
 329 604 329 604 301 604 c 128,-1,4
 273 604 273 604 256 620 c 128,-1,5
 239 636 239 636 239 663.5 c 128,-1,6
 239 691 239 691 261 713.5 c 128,-1,7
 283 736 283 736 311.5 736 c 128,-1,0
 340 736 340 736 356.5 719.5 c 128,-1,1
400 189 m 1,8,-1
 450 189 l 1,9,10
 437 95 437 95 375.5 42.5 c 128,-1,11
 314 -10 314 -10 226.5 -10 c 128,-1,12
 139 -10 139 -10 90 42.5 c 128,-1,13
 41 95 41 95 41 184.5 c 128,-1,14
 41 274 41 274 66.5 346.5 c 128,-1,15
 92 419 92 419 152 470 c 128,-1,16
 212 521 212 521 293.5 521 c 128,-1,17
 375 521 375 521 422.5 476.5 c 128,-1,18
 470 432 470 432 470 351 c 0,19,20
 470 297 470 297 459 250 c 1,21,-1
 97 250 l 1,22,23
 92 218 92 218 92 192 c 0,24,25
 92 116 92 116 130 76 c 128,-1,26
 168 36 168 36 232.5 36 c 128,-1,27
 297 36 297 36 343 74.5 c 128,-1,28
 389 113 389 113 400 189 c 1,8,-1
384 442 m 128,-1,30
 348 475 348 475 285.5 475 c 128,-1,31
 223 475 223 475 172.5 429 c 128,-1,32
 122 383 122 383 104 296 c 1,33,-1
 415 296 l 1,34,35
 420 325 420 325 420 346 c 0,36,29
 420 409 420 409 384 442 c 128,-1,30
EndSplineSet
EndChar

StartChar: egrave
Encoding: 128 232 128
Width: 556
GlyphClass: 2
Flags: MW
HStem: -10 46<190 273 190 282.5> 250 46<104 415 104 459 97 415> 475 46<247 326.5> 575 145<202 342 202 292>
VStem: 41 51<139.5 200 139.5 269.5> 420 50<345 389.5>
LayerCount: 2
Fore
SplineSet
201 717 m 1,0,-1
 202 720 l 1,1,-1
 267 720 l 1,2,-1
 342 575 l 1,3,-1
 292 575 l 1,4,-1
 201 717 l 1,0,-1
400 189 m 1,5,-1
 450 189 l 1,6,7
 437 95 437 95 375.5 42.5 c 128,-1,8
 314 -10 314 -10 226.5 -10 c 128,-1,9
 139 -10 139 -10 90 42.5 c 128,-1,10
 41 95 41 95 41 184.5 c 128,-1,11
 41 274 41 274 66.5 346.5 c 128,-1,12
 92 419 92 419 152 470 c 128,-1,13
 212 521 212 521 293.5 521 c 128,-1,14
 375 521 375 521 422.5 476.5 c 128,-1,15
 470 432 470 432 470 351 c 0,16,17
 470 297 470 297 459 250 c 1,18,-1
 97 250 l 1,19,20
 92 218 92 218 92 192 c 0,21,22
 92 116 92 116 130 76 c 128,-1,23
 168 36 168 36 232.5 36 c 128,-1,24
 297 36 297 36 343 74.5 c 128,-1,25
 389 113 389 113 400 189 c 1,5,-1
384 442 m 128,-1,27
 348 475 348 475 285.5 475 c 128,-1,28
 223 475 223 475 172.5 429 c 128,-1,29
 122 383 122 383 104 296 c 1,30,-1
 415 296 l 1,31,32
 420 325 420 325 420 346 c 0,33,26
 420 409 420 409 384 442 c 128,-1,27
EndSplineSet
EndChar

StartChar: emacron
Encoding: 129 275 129
Width: 556
GlyphClass: 2
Flags: MW
HStem: -10 46<190 273 190 282.5> 250 46<104 415 104 459 97 415> 475 46<247 326.5> 691 45<157 467 149 475>
VStem: 41 51<139.5 200 139.5 269.5> 420 50<345 389.5>
AnchorPoint: "Bottom" 242 0 basechar 0
LayerCount: 2
Fore
SplineSet
157 736 m 1,0,-1
 475 736 l 1,1,-1
 467 691 l 1,2,-1
 149 691 l 1,3,-1
 157 736 l 1,0,-1
400 189 m 1,4,-1
 450 189 l 1,5,6
 437 95 437 95 375.5 42.5 c 128,-1,7
 314 -10 314 -10 226.5 -10 c 128,-1,8
 139 -10 139 -10 90 42.5 c 128,-1,9
 41 95 41 95 41 184.5 c 128,-1,10
 41 274 41 274 66.5 346.5 c 128,-1,11
 92 419 92 419 152 470 c 128,-1,12
 212 521 212 521 293.5 521 c 128,-1,13
 375 521 375 521 422.5 476.5 c 128,-1,14
 470 432 470 432 470 351 c 0,15,16
 470 297 470 297 459 250 c 1,17,-1
 97 250 l 1,18,19
 92 218 92 218 92 192 c 0,20,21
 92 116 92 116 130 76 c 128,-1,22
 168 36 168 36 232.5 36 c 128,-1,23
 297 36 297 36 343 74.5 c 128,-1,24
 389 113 389 113 400 189 c 1,4,-1
384 442 m 128,-1,26
 348 475 348 475 285.5 475 c 128,-1,27
 223 475 223 475 172.5 429 c 128,-1,28
 122 383 122 383 104 296 c 1,29,-1
 415 296 l 1,30,31
 420 325 420 325 420 346 c 0,32,25
 420 409 420 409 384 442 c 128,-1,26
EndSplineSet
EndChar

StartChar: eogonek
Encoding: 130 281 130
Width: 556
GlyphClass: 2
Flags: MW
HStem: -143 43<273.5 287.5> -10 46<190 223 223 236> 0 21G<296 301 301 301> 250 46<104 415 104 459 97 415> 475 46<247 326.5>
VStem: 41 51<139.5 200 139.5 269.5> 186 58<-80 -66.5> 420 50<345 389.5>
AnchorPoint: "Bottom" 242 0 basechar 0
LayerCount: 2
Fore
SplineSet
459 250 m 1,0,-1
 97 250 l 1,1,2
 92 218 92 218 92 192 c 0,3,4
 92 116 92 116 130 76 c 128,-1,5
 168 36 168 36 232.5 36 c 128,-1,6
 297 36 297 36 343 74.5 c 128,-1,7
 389 113 389 113 400 189 c 1,8,-1
 450 189 l 1,9,10
 440 115 440 115 399.5 66.5 c 128,-1,11
 359 18 359 18 296 0 c 1,12,-1
 301 0 l 1,13,-1
 297 -2 l 1,14,15
 244 -35 244 -35 244 -67.5 c 128,-1,16
 244 -100 244 -100 283 -100 c 0,17,18
 308 -100 308 -100 352 -86 c 1,19,-1
 361 -119 l 1,20,21
 319 -143 319 -143 273 -143 c 0,22,23
 186 -143 186 -143 186 -83 c 0,24,25
 186 -41 186 -41 236 -10 c 1,26,-1
 223 -10 l 2,27,28
 139 -10 139 -10 90 42.5 c 128,-1,29
 41 95 41 95 41 184.5 c 128,-1,30
 41 274 41 274 66.5 346.5 c 128,-1,31
 92 419 92 419 152 470 c 128,-1,32
 212 521 212 521 293.5 521 c 128,-1,33
 375 521 375 521 422.5 476.5 c 128,-1,34
 470 432 470 432 470 351 c 0,35,36
 470 297 470 297 459 250 c 1,0,-1
384 442 m 128,-1,38
 348 475 348 475 285.5 475 c 128,-1,39
 223 475 223 475 172.5 429 c 128,-1,40
 122 383 122 383 104 296 c 1,41,-1
 415 296 l 1,42,43
 420 325 420 325 420 346 c 0,44,37
 420 409 420 409 384 442 c 128,-1,38
EndSplineSet
EndChar

StartChar: f
Encoding: 131 102 131
Width: 340
GlyphClass: 2
Flags: MW
HStem: -186 46<-21.5 0 -21.5 18> 465 46<72 134 78 128 78 179 185 298> 682 46<252 273.5>
VStem: -80 412
LayerCount: 2
Fore
SplineSet
72 465 m 1,0,-1
 78 511 l 1,1,-1
 134 511 l 1,2,-1
 149 617 l 2,3,4
 157 672 157 672 188.5 700 c 128,-1,5
 220 728 220 728 263 728 c 0,6,7
 306 728 306 728 332 711 c 1,8,-1
 326 666 l 1,9,10
 292 682 292 682 266 682 c 128,-1,11
 240 682 240 682 222.5 668.5 c 128,-1,12
 205 655 205 655 200 615 c 2,13,-1
 185 511 l 1,14,-1
 304 511 l 1,15,-1
 298 465 l 1,16,-1
 179 465 l 1,17,-1
 103 -75 l 2,18,19
 87 -186 87 -186 -15 -186 c 0,20,21
 -54 -186 -54 -186 -80 -169 c 1,22,-1
 -74 -124 l 1,23,24
 -40 -140 -40 -140 -14 -140 c 128,-1,25
 12 -140 12 -140 29.5 -126.5 c 128,-1,26
 47 -113 47 -113 52 -73 c 2,27,-1
 128 465 l 1,28,-1
 72 465 l 1,0,-1
EndSplineSet
EndChar

StartChar: g
Encoding: 132 103 132
Width: 583
GlyphClass: 2
Flags: MW
HStem: -186 47<180.5 256 180.5 278.5> 10 46<192 254> 475 46<220.5 328> 491 20G<484 505 505 505>
VStem: 21 52<-59 -22> 46 52<150 263.5 150 272.5>
LayerCount: 2
Fore
SplineSet
21 -22 m 1,0,-1
 73 -22 l 1,1,2
 73 -81 73 -81 115 -110 c 128,-1,3
 157 -139 157 -139 218.5 -139 c 128,-1,4
 280 -139 280 -139 327 -101 c 128,-1,5
 374 -63 374 -63 384 8 c 2,6,-1
 396 91 l 1,7,8
 330 10 330 10 218 10 c 0,9,10
 142 10 142 10 94 59.5 c 128,-1,11
 46 109 46 109 46 196 c 0,12,13
 46 319.666666667 46 319.666666667 103.5 415.5 c 0,14,15
 132 463 132 463 181 492 c 128,-1,16
 230 521 230 521 293 521 c 0,17,18
 410 521 410 521 453 426 c 1,19,-1
 484 511 l 1,20,-1
 505 511 l 1,21,-1
 435 17 l 2,22,23
 422 -78 422 -78 366 -132 c 128,-1,24
 310 -186 310 -186 212 -186 c 128,-1,25
 114 -186 114 -186 67.5 -136 c 128,-1,26
 21 -86 21 -86 21 -22 c 1,0,-1
134 92 m 128,-1,28
 170 56 170 56 226 56 c 128,-1,29
 282 56 282 56 321 79 c 128,-1,30
 360 102 360 102 381.5 141 c 0,31,32
 424 218.093023256 424 218.093023256 424 319 c 0,33,34
 424 475 424 475 291 475 c 0,35,36
 224 475 224 475 179 431.5 c 0,37,38
 98 353.2 98 353.2 98 199 c 0,39,27
 98 128 98 128 134 92 c 128,-1,28
EndSplineSet
EndChar

StartChar: gbreve
Encoding: 133 287 133
Width: 583
GlyphClass: 2
Flags: MW
HStem: -186 47<180.5 256 180.5 278.5> 10 46<192 254> 475 46<220.5 328> 491 20G<484 505 505 505> 613 49<278.5 343.5 278.5 357.5>
VStem: 21 52<-59 -22> 46 52<150 263.5 150 272.5>
LayerCount: 2
Fore
SplineSet
444.5 652.5 m 128,-1,1
 381 613 381 613 306 613 c 128,-1,2
 231 613 231 613 179.5 649.5 c 128,-1,3
 128 686 128 686 128 729 c 0,4,5
 128 734 128 734 129 737 c 1,6,-1
 185 737 l 1,7,8
 192 701 192 701 226 681.5 c 128,-1,9
 260 662 260 662 310.5 662 c 128,-1,10
 361 662 361 662 401 681.5 c 128,-1,11
 441 701 441 701 458 737 c 1,12,-1
 514 737 l 1,13,0
 508 692 508 692 444.5 652.5 c 128,-1,1
21 -22 m 1,14,-1
 73 -22 l 1,15,16
 73 -81 73 -81 115 -110 c 128,-1,17
 157 -139 157 -139 218.5 -139 c 128,-1,18
 280 -139 280 -139 327 -101 c 128,-1,19
 374 -63 374 -63 384 8 c 2,20,-1
 396 91 l 1,21,22
 330 10 330 10 218 10 c 0,23,24
 142 10 142 10 94 59.5 c 128,-1,25
 46 109 46 109 46 196 c 0,26,27
 46 319.666666667 46 319.666666667 103.5 415.5 c 0,28,29
 132 463 132 463 181 492 c 128,-1,30
 230 521 230 521 293 521 c 0,31,32
 410 521 410 521 453 426 c 1,33,-1
 484 511 l 1,34,-1
 505 511 l 1,35,-1
 435 17 l 2,36,37
 422 -78 422 -78 366 -132 c 128,-1,38
 310 -186 310 -186 212 -186 c 128,-1,39
 114 -186 114 -186 67.5 -136 c 128,-1,40
 21 -86 21 -86 21 -22 c 1,14,-1
134 92 m 128,-1,42
 170 56 170 56 226 56 c 128,-1,43
 282 56 282 56 321 79 c 128,-1,44
 360 102 360 102 381.5 141 c 0,45,46
 424 218.093023256 424 218.093023256 424 319 c 0,47,48
 424 475 424 475 291 475 c 0,49,50
 224 475 224 475 179 431.5 c 0,51,52
 98 353.2 98 353.2 98 199 c 0,53,41
 98 128 98 128 134 92 c 128,-1,42
EndSplineSet
EndChar

StartChar: gcommaaccent
Encoding: 134 291 134
Width: 583
GlyphClass: 2
Flags: MW
HStem: -186 47<180.5 256 180.5 278.5> 10 46<192 254> 475 46<220.5 328> 491 20G<484 505 505 505> 591 69<329 344 279 353>
VStem: 21 52<-59 -22> 46 52<150 263.5 150 272.5> 283 65.5
LayerCount: 2
Fore
SplineSet
333 761 m 1,0,-1
 367 761 l 1,1,-1
 329 660 l 1,2,-1
 353 660 l 1,3,-1
 344 591 l 1,4,-1
 279 591 l 1,5,-1
 287 649 l 1,6,-1
 333 761 l 1,0,-1
21 -22 m 1,7,-1
 73 -22 l 1,8,9
 73 -81 73 -81 115 -110 c 128,-1,10
 157 -139 157 -139 218.5 -139 c 128,-1,11
 280 -139 280 -139 327 -101 c 128,-1,12
 374 -63 374 -63 384 8 c 2,13,-1
 396 91 l 1,14,15
 330 10 330 10 218 10 c 0,16,17
 142 10 142 10 94 59.5 c 128,-1,18
 46 109 46 109 46 196 c 0,19,20
 46 319.666666667 46 319.666666667 103.5 415.5 c 0,21,22
 132 463 132 463 181 492 c 128,-1,23
 230 521 230 521 293 521 c 0,24,25
 410 521 410 521 453 426 c 1,26,-1
 484 511 l 1,27,-1
 505 511 l 1,28,-1
 435 17 l 2,29,30
 422 -78 422 -78 366 -132 c 128,-1,31
 310 -186 310 -186 212 -186 c 128,-1,32
 114 -186 114 -186 67.5 -136 c 128,-1,33
 21 -86 21 -86 21 -22 c 1,7,-1
134 92 m 128,-1,35
 170 56 170 56 226 56 c 128,-1,36
 282 56 282 56 321 79 c 128,-1,37
 360 102 360 102 381.5 141 c 0,38,39
 424 218.093023256 424 218.093023256 424 319 c 0,40,41
 424 475 424 475 291 475 c 0,42,43
 224 475 224 475 179 431.5 c 0,44,45
 98 353.2 98 353.2 98 199 c 0,46,34
 98 128 98 128 134 92 c 128,-1,35
EndSplineSet
EndChar

StartChar: h
Encoding: 135 104 135
Width: 593
GlyphClass: 2
Flags: MW
HStem: 0 21G<42 93 42 42 394 445 394 394> 475 46<298.5 356>
VStem: 441 53<351.5 395.5>
LayerCount: 2
Fore
SplineSet
494 368 m 2,0,-1
 494 349 l 2,1,2
 494 336 494 336 445 0 c 1,3,-1
 394 0 l 1,4,5
 441 335 441 335 441 354 c 0,6,7
 441 475 441 475 317 475 c 0,8,9
 250 475 250 475 198.5 429 c 128,-1,10
 147 383 147 383 137 314 c 2,11,-1
 93 0 l 1,12,-1
 42 0 l 1,13,-1
 143 720 l 1,14,-1
 194 720 l 1,15,-1
 155 439 l 1,16,17
 185 478 185 478 233 499.5 c 128,-1,18
 281 521 281 521 328 521 c 0,19,20
 403 521 403 521 448.5 482.5 c 128,-1,21
 494 444 494 444 494 368 c 2,0,-1
EndSplineSet
EndChar

StartChar: i
Encoding: 136 105 136
Width: 260
GlyphClass: 2
Flags: MW
HStem: 0 21G<42 93 42 42> 491 20G<114 165 165 165> 666 54<139 191 132 198>
VStem: 135.5 59
LayerCount: 2
Fore
SplineSet
198 720 m 1,0,-1
 191 666 l 1,1,-1
 132 666 l 1,2,-1
 139 720 l 1,3,-1
 198 720 l 1,0,-1
114 511 m 1,4,-1
 165 511 l 1,5,-1
 93 0 l 1,6,-1
 42 0 l 1,7,-1
 114 511 l 1,4,-1
EndSplineSet
EndChar

StartChar: dotlessi
Encoding: 137 305 137
Width: 261
GlyphClass: 2
Flags: MW
HStem: 0 21G<43 94 43 43> 491 20G<114 165 165 165>
VStem: 43 122
LayerCount: 2
Fore
SplineSet
114 511 m 1,0,-1
 165 511 l 1,1,-1
 94 0 l 1,2,-1
 43 0 l 1,3,-1
 114 511 l 1,0,-1
EndSplineSet
EndChar

StartChar: iacute
Encoding: 138 237 138
Width: 261
GlyphClass: 2
Flags: MW
HStem: 0 21G<43 94 43 43> 491 20G<114 165 165 165> 575 145<117 299 117 299>
VStem: 43 256
LayerCount: 2
Fore
SplineSet
234 720 m 1,0,-1
 299 720 l 1,1,-1
 298 717 l 1,2,-1
 167 575 l 1,3,-1
 117 575 l 1,4,-1
 234 720 l 1,0,-1
114 511 m 1,5,-1
 165 511 l 1,6,-1
 94 0 l 1,7,-1
 43 0 l 1,8,-1
 114 511 l 1,5,-1
EndSplineSet
EndChar

StartChar: icircumflex
Encoding: 139 238 139
Width: 261
GlyphClass: 2
Flags: MW
HStem: 0 21G<114 165 114 114> 491 20G<185 236 236 236> 575 145<53 266 208 379 208 319>
VStem: 53 326<575 575>
LayerCount: 2
Fore
SplineSet
266 720 m 1,0,-1
 379 575 l 1,1,-1
 319 575 l 1,2,-1
 230 672 l 1,3,-1
 113 575 l 1,4,-1
 53 575 l 1,5,-1
 208 720 l 1,6,-1
 266 720 l 1,0,-1
185 511 m 1,7,-1
 236 511 l 1,8,-1
 165 0 l 1,9,-1
 114 0 l 1,10,-1
 185 511 l 1,7,-1
EndSplineSet
EndChar

StartChar: idieresis
Encoding: 140 239 140
Width: 261
GlyphClass: 2
Flags: MW
HStem: 0 21G<116 167 116 116> 491 20G<187 238 238 238> 651 69<112 168 103 177 288 344>
VStem: 107.5 65 283.5 65
LayerCount: 2
Fore
SplineSet
177 720 m 1,0,-1
 168 651 l 1,1,-1
 103 651 l 1,2,-1
 112 720 l 1,3,-1
 177 720 l 1,0,-1
353 720 m 1,4,-1
 344 651 l 1,5,-1
 279 651 l 1,6,-1
 288 720 l 1,7,-1
 353 720 l 1,4,-1
187 511 m 1,8,-1
 238 511 l 1,9,-1
 167 0 l 1,10,-1
 116 0 l 1,11,-1
 187 511 l 1,8,-1
EndSplineSet
EndChar

StartChar: igrave
Encoding: 141 236 141
Width: 261
GlyphClass: 2
Flags: MW
HStem: 0 21G<110 161 110 110> 491 20G<181 232 232 232> 575 145<95 235 95 185>
VStem: 94 141
LayerCount: 2
Fore
SplineSet
94 717 m 1,0,-1
 95 720 l 1,1,-1
 160 720 l 1,2,-1
 235 575 l 1,3,-1
 185 575 l 1,4,-1
 94 717 l 1,0,-1
181 511 m 1,5,-1
 232 511 l 1,6,-1
 161 0 l 1,7,-1
 110 0 l 1,8,-1
 181 511 l 1,5,-1
EndSplineSet
EndChar

StartChar: imacron
Encoding: 142 299 142
Width: 261
GlyphClass: 2
Flags: MW
HStem: 0 21G<43 94 43 43> 491 20G<114 165 165 165> 691 45<13 323 5 331>
VStem: 5 326<691 736>
LayerCount: 2
Fore
SplineSet
13 736 m 1,0,-1
 331 736 l 1,1,-1
 323 691 l 1,2,-1
 5 691 l 1,3,-1
 13 736 l 1,0,-1
114 511 m 1,4,-1
 165 511 l 1,5,-1
 94 0 l 1,6,-1
 43 0 l 1,7,-1
 114 511 l 1,4,-1
EndSplineSet
EndChar

StartChar: iogonek
Encoding: 143 303 143
Width: 261
GlyphClass: 2
Flags: MW
HStem: -143 43<61.5 75.5> 0 21G<39 43 43 43 89 94 89 89> 491 20G<114 165 165 165> 666 54<139 191 132 198>
VStem: -26 58<-80 -63.5> 135.5 59
LayerCount: 2
Fore
SplineSet
198 720 m 1,0,-1
 191 666 l 1,1,-1
 132 666 l 1,2,-1
 139 720 l 1,3,-1
 198 720 l 1,0,-1
89 0 m 1,4,-1
 85 -2 l 1,5,6
 32 -35 32 -35 32 -67.5 c 0,7,8
 32 -100 32 -100 71 -100 c 0,9,10
 96 -100 96 -100 140 -86 c 1,11,-1
 149 -119 l 1,12,13
 107 -143 107 -143 61 -143 c 0,14,15
 -26 -143 -26 -143 -26 -83 c 0,16,17
 -26 -39 -26 -39 39 0 c 1,18,-1
 43 0 l 1,19,-1
 114 511 l 1,20,-1
 165 511 l 1,21,-1
 94 0 l 1,22,-1
 89 0 l 1,4,-1
EndSplineSet
EndChar

StartChar: j
Encoding: 144 106 144
Width: 260
GlyphClass: 2
Flags: MW
HStem: -186 46<-37.5 -17 -37.5 -0.5> 491 20G<118 169 169 169> 666 54<143 195 136 202>
VStem: 139.5 59
LayerCount: 2
Fore
SplineSet
202 720 m 1,0,-1
 195 666 l 1,1,-1
 136 666 l 1,2,-1
 143 720 l 1,3,-1
 202 720 l 1,0,-1
169 511 m 1,4,-1
 86 -75 l 2,5,6
 78 -131 78 -131 47 -158.5 c 128,-1,7
 16 -186 16 -186 -26.5 -186 c 0,8,9
 -69 -186 -69 -186 -96 -169 c 1,10,-1
 -89 -124 l 1,11,12
 -55 -140 -55 -140 -30 -140 c 0,13,14
 27 -140 27 -140 36 -73 c 2,15,-1
 118 511 l 1,16,-1
 169 511 l 1,4,-1
EndSplineSet
EndChar

StartChar: k
Encoding: 145 107 145
Width: 534
GlyphClass: 2
Flags: MW
HStem: 0 21G<42 93 42 42 397 397 397 463> 491 20G<455 518 518 518>
VStem: 42 476
AnchorPoint: "Bottom" 231 0 basechar 0
LayerCount: 2
Fore
SplineSet
111 127 m 1,0,-1
 93 0 l 1,1,-1
 42 0 l 1,2,-1
 143 720 l 1,3,-1
 194 720 l 1,4,-1
 119 186 l 1,5,-1
 455 511 l 1,6,-1
 518 511 l 1,7,-1
 269 270 l 1,8,-1
 463 0 l 1,9,-1
 397 0 l 1,10,-1
 230 232 l 1,11,-1
 111 127 l 1,0,-1
EndSplineSet
EndChar

StartChar: kcommaaccent
Encoding: 146 311 146
Width: 534
GlyphClass: 2
Flags: MW
HStem: -149 69<185 200 176 250> 0 21G<42 93 42 42 397 397 397 463> 491 20G<455 518 518 518>
VStem: 180.5 65.5
AnchorPoint: "Bottom" 231 0 basechar 0
LayerCount: 2
Fore
SplineSet
111 127 m 1,0,-1
 93 0 l 1,1,-1
 42 0 l 1,2,-1
 143 720 l 1,3,-1
 194 720 l 1,4,-1
 119 186 l 1,5,-1
 455 511 l 1,6,-1
 518 511 l 1,7,-1
 269 270 l 1,8,-1
 463 0 l 1,9,-1
 397 0 l 1,10,-1
 230 232 l 1,11,-1
 111 127 l 1,0,-1
196 -250 m 1,12,-1
 162 -250 l 1,13,-1
 200 -149 l 1,14,-1
 176 -149 l 1,15,-1
 185 -80 l 1,16,-1
 250 -80 l 1,17,-1
 242 -138 l 1,18,-1
 196 -250 l 1,12,-1
EndSplineSet
EndChar

StartChar: l
Encoding: 147 108 147
Width: 268
GlyphClass: 2
Flags: MW
HStem: 0 21G<46 97 46 46>
VStem: 46 152
AnchorPoint: "Bottom" 72 0 basechar 0
LayerCount: 2
Fore
SplineSet
147 720 m 1,0,-1
 198 720 l 1,1,-1
 97 0 l 1,2,-1
 46 0 l 1,3,-1
 147 720 l 1,0,-1
EndSplineSet
EndChar

StartChar: lacute
Encoding: 148 314 148
Width: 268
GlyphClass: 2
Flags: MW
HStem: 0 21G<46 97 46 46> 750 145<138 320 138 320>
VStem: 46 274
AnchorPoint: "Bottom" 72 0 basechar 0
LayerCount: 2
Fore
SplineSet
255 895 m 1,0,-1
 320 895 l 1,1,-1
 319 892 l 1,2,-1
 188 750 l 1,3,-1
 138 750 l 1,4,-1
 255 895 l 1,0,-1
147 720 m 1,5,-1
 198 720 l 1,6,-1
 97 0 l 1,7,-1
 46 0 l 1,8,-1
 147 720 l 1,5,-1
EndSplineSet
EndChar

StartChar: lcaron
Encoding: 149 318 149
Width: 268
GlyphClass: 2
Flags: MW
HStem: 0 21G<46 97 46 46> 496 20G<240 274 240 240.5> 516 170<262 274 240 327> 617 69<262 277 253 327>
VStem: 257.5 65.5
AnchorPoint: "Bottom" 72 0 basechar 0
LayerCount: 2
Fore
SplineSet
147 720 m 1,0,-1
 198 720 l 1,1,-1
 97 0 l 1,2,-1
 46 0 l 1,3,-1
 147 720 l 1,0,-1
274 516 m 1,4,-1
 240 516 l 1,5,-1
 277 617 l 1,6,-1
 253 617 l 1,7,-1
 262 686 l 1,8,-1
 327 686 l 1,9,-1
 319 628 l 1,10,-1
 274 516 l 1,4,-1
EndSplineSet
EndChar

StartChar: lcommaaccent
Encoding: 150 316 150
Width: 268
GlyphClass: 2
Flags: MW
HStem: -149 69<26 41 17 91> 0 21G<46 97 46 46>
VStem: 21.5 65.5
AnchorPoint: "Bottom" 72 0 basechar 0
LayerCount: 2
Fore
SplineSet
147 720 m 1,0,-1
 198 720 l 1,1,-1
 97 0 l 1,2,-1
 46 0 l 1,3,-1
 147 720 l 1,0,-1
37 -250 m 1,4,-1
 3 -250 l 1,5,-1
 41 -149 l 1,6,-1
 17 -149 l 1,7,-1
 26 -80 l 1,8,-1
 91 -80 l 1,9,-1
 83 -138 l 1,10,-1
 37 -250 l 1,4,-1
EndSplineSet
EndChar

StartChar: lslash
Encoding: 151 322 151
Width: 297
GlyphClass: 2
Flags: MW
HStem: 0 21G<70 121 70 70>
VStem: 18 261<291 455>
LayerCount: 2
Fore
SplineSet
117 338 m 1,0,-1
 18 291 l 1,1,-1
 23 335 l 1,2,-1
 124 382 l 1,3,-1
 171 720 l 1,4,-1
 222 720 l 1,5,-1
 178 407 l 1,6,-1
 279 455 l 1,7,-1
 273 411 l 1,8,-1
 172 363 l 1,9,-1
 121 0 l 1,10,-1
 70 0 l 1,11,-1
 117 338 l 1,0,-1
EndSplineSet
EndChar

StartChar: m
Encoding: 152 109 152
Width: 867
GlyphClass: 2
Flags: MW
HStem: 0 21G<42 93 42 42 354 405 354 354 666 717 666 666> 475 46<276 330 580 642> 491 20G<114 149 149 149>
VStem: 114 35<435 511> 714 52<352.5 400>
LayerCount: 2
Fore
SplineSet
666 0 m 1,0,1
 714 342 714 342 714 348 c 2,2,-1
 714 361 l 2,3,4
 714 475 714 475 608 475 c 0,5,6
 548 475 548 475 503.5 429 c 128,-1,7
 459 383 459 383 449 314 c 2,8,-1
 405 0 l 1,9,-1
 354 0 l 1,10,11
 402 345 402 345 402 361 c 0,12,13
 402 475 402 475 296 475 c 0,14,15
 236 475 236 475 191.5 429 c 128,-1,16
 147 383 147 383 137 314 c 2,17,-1
 93 0 l 1,18,-1
 42 0 l 1,19,-1
 114 511 l 1,20,-1
 149 511 l 1,21,-1
 149 435 l 1,22,23
 177 475 177 475 219 498 c 128,-1,24
 261 521 261 521 306 521 c 0,25,26
 416 521 416 521 448 434 c 1,27,28
 475 471 475 471 520 496 c 128,-1,29
 565 521 565 521 624.5 521 c 128,-1,30
 684 521 684 521 725 483 c 128,-1,31
 766 445 766 445 766 371 c 2,32,-1
 766 358 l 2,33,34
 766 346 766 346 763.5 331 c 128,-1,35
 761 316 761 316 759.5 301.5 c 128,-1,36
 758 287 758 287 753.5 258.5 c 128,-1,37
 749 230 749 230 745 198.5 c 128,-1,38
 741 167 741 167 733 112.5 c 128,-1,39
 725 58 725 58 717 0 c 1,40,-1
 666 0 l 1,0,1
EndSplineSet
EndChar

StartChar: n
Encoding: 153 110 153
Width: 593
GlyphClass: 2
Flags: MW
HStem: 0 21G<42 93 42 42 394 444 394 394> 475 46<294.5 356> 491 20G<114 148 148 148>
VStem: 114 34<435 511> 441 52<356.5 395.5>
AnchorPoint: "Bottom" 244 0 basechar 0
LayerCount: 2
Fore
SplineSet
444 0 m 1,0,-1
 394 0 l 1,1,2
 441 335 441 335 441 354 c 0,3,4
 441 475 441 475 317 475 c 0,5,6
 250 475 250 475 198.5 429 c 128,-1,7
 147 383 147 383 137 314 c 2,8,-1
 93 0 l 1,9,-1
 42 0 l 1,10,-1
 114 511 l 1,11,-1
 148 511 l 1,12,-1
 148 435 l 1,13,14
 180 475 180 475 228.5 498 c 128,-1,15
 277 521 277 521 328 521 c 0,16,17
 403 521 403 521 448 482.5 c 128,-1,18
 493 444 493 444 493 368 c 0,19,20
 493 350 493 350 444 0 c 1,0,-1
EndSplineSet
EndChar

StartChar: nacute
Encoding: 154 324 154
Width: 593
GlyphClass: 2
Flags: MW
HStem: 0 21G<42 93 42 42 394 444 394 394> 475 46<294.5 356> 491 20G<114 148 148 148> 575 145<291 473 291 473>
VStem: 114 34<435 511> 441 52<356.5 395.5>
AnchorPoint: "Bottom" 244 0 basechar 0
LayerCount: 2
Fore
SplineSet
408 720 m 1,0,-1
 473 720 l 1,1,-1
 472 717 l 1,2,-1
 341 575 l 1,3,-1
 291 575 l 1,4,-1
 408 720 l 1,0,-1
444 0 m 1,5,-1
 394 0 l 1,6,7
 441 335 441 335 441 354 c 0,8,9
 441 475 441 475 317 475 c 0,10,11
 250 475 250 475 198.5 429 c 128,-1,12
 147 383 147 383 137 314 c 2,13,-1
 93 0 l 1,14,-1
 42 0 l 1,15,-1
 114 511 l 1,16,-1
 148 511 l 1,17,-1
 148 435 l 1,18,19
 180 475 180 475 228.5 498 c 128,-1,20
 277 521 277 521 328 521 c 0,21,22
 403 521 403 521 448 482.5 c 128,-1,23
 493 444 493 444 493 368 c 0,24,25
 493 350 493 350 444 0 c 1,5,-1
EndSplineSet
EndChar

StartChar: ncaron
Encoding: 155 328 155
Width: 593
GlyphClass: 2
Flags: MW
HStem: 0 21G<42 93 42 42 394 444 394 394> 475 46<294.5 356> 491 20G<114 148 148 148> 575 145<179 350 179 292>
VStem: 114 34<435 511> 441 52<356.5 395.5>
AnchorPoint: "Bottom" 244 0 basechar 0
LayerCount: 2
Fore
SplineSet
239 720 m 1,0,-1
 328 623 l 1,1,-1
 445 720 l 1,2,-1
 505 720 l 1,3,-1
 350 575 l 1,4,-1
 292 575 l 1,5,-1
 179 720 l 1,6,-1
 239 720 l 1,0,-1
444 0 m 1,7,-1
 394 0 l 1,8,9
 441 335 441 335 441 354 c 0,10,11
 441 475 441 475 317 475 c 0,12,13
 250 475 250 475 198.5 429 c 128,-1,14
 147 383 147 383 137 314 c 2,15,-1
 93 0 l 1,16,-1
 42 0 l 1,17,-1
 114 511 l 1,18,-1
 148 511 l 1,19,-1
 148 435 l 1,20,21
 180 475 180 475 228.5 498 c 128,-1,22
 277 521 277 521 328 521 c 0,23,24
 403 521 403 521 448 482.5 c 128,-1,25
 493 444 493 444 493 368 c 0,26,27
 493 350 493 350 444 0 c 1,7,-1
EndSplineSet
EndChar

StartChar: ncommaaccent
Encoding: 156 326 156
Width: 593
GlyphClass: 2
Flags: MW
HStem: -149 69<198 213 189 263> 0 21G<42 93 42 42 394 444 394 394> 475 46<294.5 356> 491 20G<114 148 148 148>
VStem: 114 34<435 511> 193.5 65.5 441 52<356.5 395.5>
AnchorPoint: "Bottom" 244 0 basechar 0
LayerCount: 2
Fore
SplineSet
444 0 m 1,0,-1
 394 0 l 1,1,2
 441 335 441 335 441 354 c 0,3,4
 441 475 441 475 317 475 c 0,5,6
 250 475 250 475 198.5 429 c 128,-1,7
 147 383 147 383 137 314 c 2,8,-1
 93 0 l 1,9,-1
 42 0 l 1,10,-1
 114 511 l 1,11,-1
 148 511 l 1,12,-1
 148 435 l 1,13,14
 180 475 180 475 228.5 498 c 128,-1,15
 277 521 277 521 328 521 c 0,16,17
 403 521 403 521 448 482.5 c 128,-1,18
 493 444 493 444 493 368 c 0,19,20
 493 350 493 350 444 0 c 1,0,-1
209 -250 m 1,21,-1
 175 -250 l 1,22,-1
 213 -149 l 1,23,-1
 189 -149 l 1,24,-1
 198 -80 l 1,25,-1
 263 -80 l 1,26,-1
 255 -138 l 1,27,-1
 209 -250 l 1,21,-1
EndSplineSet
EndChar

StartChar: ntilde
Encoding: 157 241 157
Width: 593
GlyphClass: 2
Flags: MW
HStem: 0 21G<42 93 42 42 394 444 394 394> 475 46<294.5 356> 491 20G<114 148 148 148> 637 50<400 443.5 400 452.5> 669 50<233.5 277>
VStem: 114 34<435 511> 441 52<356.5 395.5>
LayerCount: 2
Fore
SplineSet
488 719 m 1,0,-1
 525 719 l 1,1,2
 521 689 521 689 493.5 663 c 128,-1,3
 466 637 466 637 423 637 c 0,4,5
 380 637 380 637 328 653 c 128,-1,6
 276 669 276 669 250 669 c 0,7,8
 203 669 203 669 189 637 c 1,9,-1
 152 637 l 1,10,11
 156 667 156 667 183.5 693 c 128,-1,12
 211 719 211 719 254 719 c 0,13,14
 297 719 297 719 349 703 c 128,-1,15
 401 687 401 687 427 687 c 0,16,17
 474 687 474 687 488 719 c 1,0,-1
444 0 m 1,18,-1
 394 0 l 1,19,20
 441 335 441 335 441 354 c 0,21,22
 441 475 441 475 317 475 c 0,23,24
 250 475 250 475 198.5 429 c 128,-1,25
 147 383 147 383 137 314 c 2,26,-1
 93 0 l 1,27,-1
 42 0 l 1,28,-1
 114 511 l 1,29,-1
 148 511 l 1,30,-1
 148 435 l 1,31,32
 180 475 180 475 228.5 498 c 128,-1,33
 277 521 277 521 328 521 c 0,34,35
 403 521 403 521 448 482.5 c 128,-1,36
 493 444 493 444 493 368 c 0,37,38
 493 350 493 350 444 0 c 1,18,-1
EndSplineSet
EndChar

StartChar: o
Encoding: 158 111 158
Width: 576
GlyphClass: 2
Flags: MW
HStem: -10 46<191.5 304 191.5 314.5> 475 46<220.5 333>
VStem: 41 51<140 258.5 140 272> 433 51<250 370.5>
LayerCount: 2
Fore
SplineSet
225 -10 m 0,0,1
 140 -10 140 -10 90.5 43 c 128,-1,2
 41 96 41 96 41 192 c 0,3,4
 41 352.830508475 41 352.830508475 131.5 451 c 0,5,6
 196.03125 521 196.03125 521 300 521 c 0,7,8
 385 521 385 521 434.5 468 c 128,-1,9
 484 415 484 415 484 319 c 0,10,11
 484 158.169491525 484 158.169491525 393.5 60 c 0,12,13
 328.96875 -10 328.96875 -10 225 -10 c 0,0,1
130.5 76 m 128,-1,15
 169 36 169 36 226.5 36 c 128,-1,16
 284 36 284 36 324 60.5 c 128,-1,17
 364 85 364 85 387 126.5 c 0,18,19
 433 209.5 433 209.5 433 317 c 0,20,21
 433 394 433 394 394.5 434.5 c 128,-1,22
 356 475 356 475 298.5 475 c 128,-1,23
 241 475 241 475 201 450 c 128,-1,24
 161 425 161 425 138 383 c 0,25,26
 92 299 92 299 92 193 c 0,27,14
 92 116 92 116 130.5 76 c 128,-1,15
EndSplineSet
Substitution2: "Single Substitution lookup 5 subtable" ordmasculine
Substitution2: "'aalt' Access All Alternates lookup 0 subtable" ordmasculine
EndChar

StartChar: oacute
Encoding: 159 243 159
Width: 576
GlyphClass: 2
Flags: MW
HStem: -10 46<191.5 304 191.5 314.5> 475 46<220.5 333> 575 145<303 485 303 485>
VStem: 41 51<140 258.5 140 272> 433 51<250 370.5>
LayerCount: 2
Fore
SplineSet
420 720 m 1,0,-1
 485 720 l 1,1,-1
 484 717 l 1,2,-1
 353 575 l 1,3,-1
 303 575 l 1,4,-1
 420 720 l 1,0,-1
225 -10 m 0,5,6
 140 -10 140 -10 90.5 43 c 128,-1,7
 41 96 41 96 41 192 c 0,8,9
 41 352.830508475 41 352.830508475 131.5 451 c 0,10,11
 196.03125 521 196.03125 521 300 521 c 0,12,13
 385 521 385 521 434.5 468 c 128,-1,14
 484 415 484 415 484 319 c 0,15,16
 484 158.169491525 484 158.169491525 393.5 60 c 0,17,18
 328.96875 -10 328.96875 -10 225 -10 c 0,5,6
130.5 76 m 128,-1,20
 169 36 169 36 226.5 36 c 128,-1,21
 284 36 284 36 324 60.5 c 128,-1,22
 364 85 364 85 387 126.5 c 0,23,24
 433 209.5 433 209.5 433 317 c 0,25,26
 433 394 433 394 394.5 434.5 c 128,-1,27
 356 475 356 475 298.5 475 c 128,-1,28
 241 475 241 475 201 450 c 128,-1,29
 161 425 161 425 138 383 c 0,30,31
 92 299 92 299 92 193 c 0,32,19
 92 116 92 116 130.5 76 c 128,-1,20
EndSplineSet
EndChar

StartChar: ocircumflex
Encoding: 160 244 160
Width: 576
GlyphClass: 2
Flags: MW
HStem: -10 46<191.5 304 191.5 314.5> 475 46<220.5 333> 575 145<162 375 317 488 317 428>
VStem: 41 51<140 258.5 140 272> 433 51<250 370.5>
LayerCount: 2
Fore
SplineSet
375 720 m 1,0,-1
 488 575 l 1,1,-1
 428 575 l 1,2,-1
 339 672 l 1,3,-1
 222 575 l 1,4,-1
 162 575 l 1,5,-1
 317 720 l 1,6,-1
 375 720 l 1,0,-1
225 -10 m 0,7,8
 140 -10 140 -10 90.5 43 c 128,-1,9
 41 96 41 96 41 192 c 0,10,11
 41 352.830508475 41 352.830508475 131.5 451 c 0,12,13
 196.03125 521 196.03125 521 300 521 c 0,14,15
 385 521 385 521 434.5 468 c 128,-1,16
 484 415 484 415 484 319 c 0,17,18
 484 158.169491525 484 158.169491525 393.5 60 c 0,19,20
 328.96875 -10 328.96875 -10 225 -10 c 0,7,8
130.5 76 m 128,-1,22
 169 36 169 36 226.5 36 c 128,-1,23
 284 36 284 36 324 60.5 c 128,-1,24
 364 85 364 85 387 126.5 c 0,25,26
 433 209.5 433 209.5 433 317 c 0,27,28
 433 394 433 394 394.5 434.5 c 128,-1,29
 356 475 356 475 298.5 475 c 128,-1,30
 241 475 241 475 201 450 c 128,-1,31
 161 425 161 425 138 383 c 0,32,33
 92 299 92 299 92 193 c 0,34,21
 92 116 92 116 130.5 76 c 128,-1,22
EndSplineSet
EndChar

StartChar: odieresis
Encoding: 161 246 161
Width: 576
GlyphClass: 2
Flags: MW
HStem: -10 46<191.5 304 191.5 314.5> 475 46<220.5 333> 651 69<221 277 212 286 397 453>
VStem: 41 51<140 258.5 140 272> 216.5 65 392.5 65 433 51<250 370.5>
LayerCount: 2
Fore
SplineSet
286 720 m 1,0,-1
 277 651 l 1,1,-1
 212 651 l 1,2,-1
 221 720 l 1,3,-1
 286 720 l 1,0,-1
462 720 m 1,4,-1
 453 651 l 1,5,-1
 388 651 l 1,6,-1
 397 720 l 1,7,-1
 462 720 l 1,4,-1
225 -10 m 0,8,9
 140 -10 140 -10 90.5 43 c 128,-1,10
 41 96 41 96 41 192 c 0,11,12
 41 352.830508475 41 352.830508475 131.5 451 c 0,13,14
 196.03125 521 196.03125 521 300 521 c 0,15,16
 385 521 385 521 434.5 468 c 128,-1,17
 484 415 484 415 484 319 c 0,18,19
 484 158.169491525 484 158.169491525 393.5 60 c 0,20,21
 328.96875 -10 328.96875 -10 225 -10 c 0,8,9
130.5 76 m 128,-1,23
 169 36 169 36 226.5 36 c 128,-1,24
 284 36 284 36 324 60.5 c 128,-1,25
 364 85 364 85 387 126.5 c 0,26,27
 433 209.5 433 209.5 433 317 c 0,28,29
 433 394 433 394 394.5 434.5 c 128,-1,30
 356 475 356 475 298.5 475 c 128,-1,31
 241 475 241 475 201 450 c 128,-1,32
 161 425 161 425 138 383 c 0,33,34
 92 299 92 299 92 193 c 0,35,22
 92 116 92 116 130.5 76 c 128,-1,23
EndSplineSet
EndChar

StartChar: ograve
Encoding: 162 242 162
Width: 576
GlyphClass: 2
Flags: MW
HStem: -10 46<191.5 304 191.5 314.5> 475 46<220.5 333> 575 145<200 340 200 290>
VStem: 41 51<140 258.5 140 272> 433 51<250 370.5>
LayerCount: 2
Fore
SplineSet
199 717 m 1,0,-1
 200 720 l 1,1,-1
 265 720 l 1,2,-1
 340 575 l 1,3,-1
 290 575 l 1,4,-1
 199 717 l 1,0,-1
225 -10 m 0,5,6
 140 -10 140 -10 90.5 43 c 128,-1,7
 41 96 41 96 41 192 c 0,8,9
 41 352.830508475 41 352.830508475 131.5 451 c 0,10,11
 196.03125 521 196.03125 521 300 521 c 0,12,13
 385 521 385 521 434.5 468 c 128,-1,14
 484 415 484 415 484 319 c 0,15,16
 484 158.169491525 484 158.169491525 393.5 60 c 0,17,18
 328.96875 -10 328.96875 -10 225 -10 c 0,5,6
130.5 76 m 128,-1,20
 169 36 169 36 226.5 36 c 128,-1,21
 284 36 284 36 324 60.5 c 128,-1,22
 364 85 364 85 387 126.5 c 0,23,24
 433 209.5 433 209.5 433 317 c 0,25,26
 433 394 433 394 394.5 434.5 c 128,-1,27
 356 475 356 475 298.5 475 c 128,-1,28
 241 475 241 475 201 450 c 128,-1,29
 161 425 161 425 138 383 c 0,30,31
 92 299 92 299 92 193 c 0,32,19
 92 116 92 116 130.5 76 c 128,-1,20
EndSplineSet
EndChar

StartChar: ohungarumlaut
Encoding: 163 337 163
Width: 576
GlyphClass: 2
Flags: MW
HStem: -10 46<191.5 304 191.5 314.5> 475 46<220.5 333> 575 145<217 398 217 398 342 342 342 392>
VStem: 41 51<140 258.5 140 272> 433 51<250 370.5>
LayerCount: 2
Fore
SplineSet
334 720 m 1,0,-1
 398 720 l 1,1,-1
 398 716 l 1,2,-1
 267 575 l 1,3,-1
 217 575 l 1,4,-1
 334 720 l 1,0,-1
459 720 m 1,5,-1
 523 720 l 1,6,-1
 523 716 l 1,7,-1
 392 575 l 1,8,-1
 342 575 l 1,9,-1
 459 720 l 1,5,-1
225 -10 m 0,10,11
 140 -10 140 -10 90.5 43 c 128,-1,12
 41 96 41 96 41 192 c 0,13,14
 41 352.830508475 41 352.830508475 131.5 451 c 0,15,16
 196.03125 521 196.03125 521 300 521 c 0,17,18
 385 521 385 521 434.5 468 c 128,-1,19
 484 415 484 415 484 319 c 0,20,21
 484 158.169491525 484 158.169491525 393.5 60 c 0,22,23
 328.96875 -10 328.96875 -10 225 -10 c 0,10,11
130.5 76 m 128,-1,25
 169 36 169 36 226.5 36 c 128,-1,26
 284 36 284 36 324 60.5 c 128,-1,27
 364 85 364 85 387 126.5 c 0,28,29
 433 209.5 433 209.5 433 317 c 0,30,31
 433 394 433 394 394.5 434.5 c 128,-1,32
 356 475 356 475 298.5 475 c 128,-1,33
 241 475 241 475 201 450 c 128,-1,34
 161 425 161 425 138 383 c 0,35,36
 92 299 92 299 92 193 c 0,37,24
 92 116 92 116 130.5 76 c 128,-1,25
EndSplineSet
EndChar

StartChar: omacron
Encoding: 164 333 164
Width: 576
GlyphClass: 2
Flags: MW
HStem: -10 46<191.5 304 191.5 314.5> 475 46<220.5 333> 691 45<177 487 169 495>
VStem: 41 51<140 258.5 140 272> 433 51<250 370.5>
LayerCount: 2
Fore
SplineSet
177 736 m 1,0,-1
 495 736 l 1,1,-1
 487 691 l 1,2,-1
 169 691 l 1,3,-1
 177 736 l 1,0,-1
225 -10 m 0,4,5
 140 -10 140 -10 90.5 43 c 128,-1,6
 41 96 41 96 41 192 c 0,7,8
 41 352.830508475 41 352.830508475 131.5 451 c 0,9,10
 196.03125 521 196.03125 521 300 521 c 0,11,12
 385 521 385 521 434.5 468 c 128,-1,13
 484 415 484 415 484 319 c 0,14,15
 484 158.169491525 484 158.169491525 393.5 60 c 0,16,17
 328.96875 -10 328.96875 -10 225 -10 c 0,4,5
130.5 76 m 128,-1,19
 169 36 169 36 226.5 36 c 128,-1,20
 284 36 284 36 324 60.5 c 128,-1,21
 364 85 364 85 387 126.5 c 0,22,23
 433 209.5 433 209.5 433 317 c 0,24,25
 433 394 433 394 394.5 434.5 c 128,-1,26
 356 475 356 475 298.5 475 c 128,-1,27
 241 475 241 475 201 450 c 128,-1,28
 161 425 161 425 138 383 c 0,29,30
 92 299 92 299 92 193 c 0,31,18
 92 116 92 116 130.5 76 c 128,-1,19
EndSplineSet
EndChar

StartChar: oslash
Encoding: 165 248 165
Width: 576
GlyphClass: 2
Flags: MW
HStem: -10 46<226 316 226 326.5> 475 46<232.5 322.5>
VStem: 53 51<172.5 258.5 172.5 272> 445 51<250 338>
LayerCount: 2
Fore
SplineSet
228.5 -10 m 0,0,1
 168 -10 168 -10 121 26 c 1,2,-1
 60 -55 l 1,3,-1
 15 -55 l 1,4,-1
 95 51 l 1,5,6
 53 104 53 104 53 192 c 0,7,8
 53 352.830508475 53 352.830508475 143.5 451 c 0,9,10
 208.03125 521 208.03125 521 312 521 c 0,11,12
 380 521 380 521 426 486 c 1,13,-1
 489 569 l 1,14,-1
 534 569 l 1,15,-1
 452 461 l 1,16,17
 496 408 496 408 496 319 c 0,18,19
 496 158.169491525 496 158.169491525 405.5 60 c 0,20,21
 340.96875 -10 340.96875 -10 228.5 -10 c 0,0,1
115.5 293 m 128,-1,23
 104 245 104 245 104 189.5 c 128,-1,24
 104 134 104 134 128 94 c 1,25,-1
 395 445 l 1,26,27
 359 475 359 475 306 475 c 128,-1,28
 253 475 253 475 213 450 c 128,-1,29
 173 425 173 425 150 383 c 128,-1,22
 127 341 127 341 115.5 293 c 128,-1,23
152 66 m 1,30,31
 188 36 188 36 242 36 c 128,-1,32
 296 36 296 36 336 60.5 c 128,-1,33
 376 85 376 85 399 126.5 c 0,34,35
 445 209.5 445 209.5 445 317 c 0,36,37
 445 380 445 380 419 418 c 1,38,-1
 152 66 l 1,30,31
EndSplineSet
EndChar

StartChar: otilde
Encoding: 166 245 166
Width: 576
GlyphClass: 2
Flags: MW
HStem: -10 46<191.5 304 191.5 314.5> 475 46<220.5 333> 638 50<392 435.5 392 444.5> 670 50<225.5 269>
VStem: 41 51<140 258.5 140 272> 433 51<250 370.5>
LayerCount: 2
Fore
SplineSet
480 720 m 1,0,-1
 517 720 l 1,1,2
 513 690 513 690 485.5 664 c 128,-1,3
 458 638 458 638 415 638 c 128,-1,4
 372 638 372 638 320 654 c 128,-1,5
 268 670 268 670 242 670 c 0,6,7
 195 670 195 670 181 638 c 1,8,-1
 144 638 l 1,9,10
 148 668 148 668 175.5 694 c 128,-1,11
 203 720 203 720 246 720 c 128,-1,12
 289 720 289 720 341 704 c 128,-1,13
 393 688 393 688 419 688 c 0,14,15
 466 688 466 688 480 720 c 1,0,-1
225 -10 m 0,16,17
 140 -10 140 -10 90.5 43 c 128,-1,18
 41 96 41 96 41 192 c 0,19,20
 41 352.830508475 41 352.830508475 131.5 451 c 0,21,22
 196.03125 521 196.03125 521 300 521 c 0,23,24
 385 521 385 521 434.5 468 c 128,-1,25
 484 415 484 415 484 319 c 0,26,27
 484 158.169491525 484 158.169491525 393.5 60 c 0,28,29
 328.96875 -10 328.96875 -10 225 -10 c 0,16,17
130.5 76 m 128,-1,31
 169 36 169 36 226.5 36 c 128,-1,32
 284 36 284 36 324 60.5 c 128,-1,33
 364 85 364 85 387 126.5 c 0,34,35
 433 209.5 433 209.5 433 317 c 0,36,37
 433 394 433 394 394.5 434.5 c 128,-1,38
 356 475 356 475 298.5 475 c 128,-1,39
 241 475 241 475 201 450 c 128,-1,40
 161 425 161 425 138 383 c 0,41,42
 92 299 92 299 92 193 c 0,43,30
 92 116 92 116 130.5 76 c 128,-1,31
EndSplineSet
EndChar

StartChar: oe
Encoding: 167 339 167
Width: 933
GlyphClass: 2
Flags: MW
HStem: -10 46<210.5 293 590 673> 250 46<504 815 504 859 497 815> 475 46<239.5 352 648.5 726.5>
VStem: 60 51<140 258.5 140 272> 452 40 820 50<345 389.5>
LayerCount: 2
Fore
SplineSet
325 521 m 0,0,1
 383 521 383 521 428 489.5 c 128,-1,2
 473 458 473 458 492 399 c 1,3,4
 562 521 562 521 697 521 c 0,5,6
 775 521 775 521 822.5 476.5 c 128,-1,7
 870 432 870 432 870 351 c 0,8,9
 870 297 870 297 859 250 c 1,10,-1
 497 250 l 1,11,12
 492 217 492 217 492 192 c 0,13,14
 492 116 492 116 530 76 c 128,-1,15
 568 36 568 36 632.5 36 c 128,-1,16
 697 36 697 36 743 74.5 c 128,-1,17
 789 113 789 113 800 189 c 1,18,-1
 850 189 l 1,19,20
 837 95 837 95 775.5 42.5 c 128,-1,21
 714 -10 714 -10 623 -10 c 0,22,23
 558 -10 558 -10 513.5 21.5 c 128,-1,24
 469 53 469 53 452 112 c 1,25,26
 381 -10 381 -10 244 -10 c 0,27,28
 159 -10 159 -10 109.5 43 c 128,-1,29
 60 96 60 96 60 192 c 0,30,31
 60 352.830508475 60 352.830508475 150.5 451 c 0,32,33
 215.03125 521 215.03125 521 325 521 c 0,0,1
149.5 76 m 128,-1,35
 188 36 188 36 245.5 36 c 128,-1,36
 303 36 303 36 343 60.5 c 128,-1,37
 383 85 383 85 406 126.5 c 0,38,39
 452 209.5 452 209.5 452 317 c 0,40,41
 452 394 452 394 413.5 434.5 c 128,-1,42
 375 475 375 475 317.5 475 c 128,-1,43
 260 475 260 475 220 450 c 128,-1,44
 180 425 180 425 157 383 c 0,45,46
 111 299 111 299 111 193 c 0,47,34
 111 116 111 116 149.5 76 c 128,-1,35
784 442 m 128,-1,49
 748 475 748 475 685.5 475 c 128,-1,50
 623 475 623 475 572.5 429 c 128,-1,51
 522 383 522 383 504 296 c 1,52,-1
 815 296 l 1,53,54
 820 325 820 325 820 346 c 0,55,48
 820 409 820 409 784 442 c 128,-1,49
EndSplineSet
EndChar

StartChar: p
Encoding: 168 112 168
Width: 583
GlyphClass: 2
Flags: MW
HStem: -181 21G<17 68 17 17> -10 46<219 327.5 219 343.5> 475 46<292.5 355> 491 20G<114 148 148 148>
VStem: 114 34.5 449 51<251.5 375.5>
LayerCount: 2
Fore
SplineSet
148 511 m 1,0,-1
 149 434 l 1,1,2
 217 521 217 521 330 521 c 0,3,4
 407 521 407 521 453.5 471 c 128,-1,5
 500 421 500 421 500 321 c 0,6,7
 500 196 500 196 444 98 c 0,8,9
 416 49 416 49 367.5 19.5 c 128,-1,10
 319 -10 319 -10 255 -10 c 0,11,12
 146 -10 146 -10 104 71 c 1,13,-1
 68 -181 l 1,14,-1
 17 -181 l 1,15,-1
 114 511 l 1,16,-1
 148 511 l 1,0,-1
318 475 m 0,17,18
 266 475 266 475 226.5 448.5 c 128,-1,19
 187 422 187 422 165.5 379 c 0,20,21
 123 294 123 294 123 190 c 0,22,23
 123 113 123 113 160 74.5 c 128,-1,24
 197 36 197 36 252.5 36 c 128,-1,25
 308 36 308 36 346.5 61 c 128,-1,26
 385 86 385 86 406.5 128 c 0,27,28
 449 211.023255814 449 211.023255814 449 317 c 0,29,30
 449 475 449 475 318 475 c 0,17,18
EndSplineSet
EndChar

StartChar: thorn
Encoding: 169 254 169
Width: 582
GlyphClass: 2
Flags: MW
HStem: -181 21G<17 68 17 17> -10 46<219 328 219 342.5> 475 46<294 355>
VStem: 449 51<253.5 376.5>
LayerCount: 2
Fore
SplineSet
194 720 m 1,0,-1
 155 441 l 1,1,2
 222 521 222 521 330 521 c 0,3,4
 407 521 407 521 453.5 471 c 128,-1,5
 500 421 500 421 500 321 c 0,6,7
 500 195.140350877 500 195.140350877 443.5 98 c 0,8,9
 415 49 415 49 366.5 19.5 c 128,-1,10
 318 -10 318 -10 255 -10 c 0,11,12
 146 -10 146 -10 104 71 c 1,13,-1
 68 -181 l 1,14,-1
 17 -181 l 1,15,-1
 144 720 l 1,16,-1
 194 720 l 1,0,-1
449 319 m 0,17,18
 449 475 449 475 314 475 c 0,19,20
 250 475 250 475 204 428.5 c 0,21,22
 123 346.619565217 123 346.619565217 123 190 c 0,23,24
 123 113 123 113 160 74.5 c 128,-1,25
 197 36 197 36 252.5 36 c 128,-1,26
 308 36 308 36 346.5 61.5 c 128,-1,27
 385 87 385 87 406.5 129 c 0,28,29
 449 212.023255814 449 212.023255814 449 319 c 0,17,18
EndSplineSet
EndChar

StartChar: q
Encoding: 170 113 170
Width: 582
GlyphClass: 2
Flags: MW
HStem: -180 21G<351 351 351 402> -10 46<186 248> 475 46<214.5 322> 491 20G<478 499 499 499>
VStem: 40 52<136 255.5 136 260.5>
LayerCount: 2
Fore
SplineSet
351 -180 m 1,0,-1
 387 71 l 1,1,2
 321 -10 321 -10 212 -10 c 0,3,4
 135 -10 135 -10 87.5 41.5 c 128,-1,5
 40 93 40 93 40 186 c 0,6,7
 40 308.122807018 40 308.122807018 97.5 409 c 0,8,9
 126 459 126 459 175.5 490 c 128,-1,10
 225 521 225 521 287 521 c 0,11,12
 404 521 404 521 447 426 c 1,13,-1
 478 511 l 1,14,-1
 499 511 l 1,15,-1
 402 -180 l 1,16,-1
 351 -180 l 1,0,-1
128 74.5 m 128,-1,18
 164 36 164 36 220 36 c 128,-1,19
 276 36 276 36 315 61 c 128,-1,20
 354 86 354 86 375.5 128 c 0,21,22
 418 211.023255814 418 211.023255814 418 319 c 0,23,24
 418 475 418 475 285 475 c 0,25,26
 234 475 234 475 195.5 449.5 c 128,-1,27
 157 424 157 424 135 381.5 c 0,28,29
 92 298.431818182 92 298.431818182 92 189 c 0,30,17
 92 113 92 113 128 74.5 c 128,-1,18
EndSplineSet
EndChar

StartChar: r
Encoding: 171 114 171
Width: 489
GlyphClass: 2
Flags: MW
HStem: 0 21G<42 93 42 42> 475 46<249.5 331> 491 20G<114 148 148 148>
VStem: 114 34<435 511> 397 50<372 393>
AnchorPoint: "Bottom" 68 0 basechar 0
LayerCount: 2
Fore
SplineSet
447 383 m 0,0,1
 447 349 447 349 440 328 c 1,2,-1
 393 328 l 1,3,4
 397 352 397 352 397 368 c 0,5,6
 397 412 397 412 372 443.5 c 128,-1,7
 347 475 347 475 285 475 c 128,-1,8
 223 475 223 475 184.5 426.5 c 128,-1,9
 146 378 146 378 138 324 c 2,10,-1
 93 0 l 1,11,-1
 42 0 l 1,12,-1
 114 511 l 1,13,-1
 148 511 l 1,14,-1
 148 435 l 1,15,16
 150 438 150 438 153.5 444 c 128,-1,17
 157 450 157 450 171 465 c 128,-1,18
 185 480 185 480 201.5 491 c 0,19,20
 246.5 521 246.5 521 310.75 521 c 128,-1,21
 375 521 375 521 411 482.5 c 128,-1,22
 447 444 447 444 447 383 c 0,0,1
EndSplineSet
EndChar

StartChar: racute
Encoding: 172 341 172
Width: 489
GlyphClass: 2
Flags: MW
HStem: 0 21G<42 93 42 42> 475 46<249.5 331> 491 20G<114 148 148 148> 575 145<116 298 116 298>
VStem: 114 34<435 511> 397 50<372 393>
AnchorPoint: "Bottom" 68 0 basechar 0
LayerCount: 2
Fore
SplineSet
233 720 m 1,0,-1
 298 720 l 1,1,-1
 297 717 l 1,2,-1
 166 575 l 1,3,-1
 116 575 l 1,4,-1
 233 720 l 1,0,-1
447 383 m 0,5,6
 447 349 447 349 440 328 c 1,7,-1
 393 328 l 1,8,9
 397 352 397 352 397 368 c 0,10,11
 397 412 397 412 372 443.5 c 128,-1,12
 347 475 347 475 285 475 c 128,-1,13
 223 475 223 475 184.5 426.5 c 128,-1,14
 146 378 146 378 138 324 c 2,15,-1
 93 0 l 1,16,-1
 42 0 l 1,17,-1
 114 511 l 1,18,-1
 148 511 l 1,19,-1
 148 435 l 1,20,21
 150 438 150 438 153.5 444 c 128,-1,22
 157 450 157 450 171 465 c 128,-1,23
 185 480 185 480 201.5 491 c 0,24,25
 246.5 521 246.5 521 310.75 521 c 128,-1,26
 375 521 375 521 411 482.5 c 128,-1,27
 447 444 447 444 447 383 c 0,5,6
EndSplineSet
EndChar

StartChar: rcaron
Encoding: 173 345 173
Width: 489
GlyphClass: 2
Flags: MW
HStem: 0 21G<42 93 42 42> 475 46<249.5 331> 491 20G<114 148 148 148> 575 145<4 175 4 117>
VStem: 114 34<435 511> 397 50<372 393>
AnchorPoint: "Bottom" 68 0 basechar 0
LayerCount: 2
Fore
SplineSet
64 720 m 1,0,-1
 153 623 l 1,1,-1
 270 720 l 1,2,-1
 330 720 l 1,3,-1
 175 575 l 1,4,-1
 117 575 l 1,5,-1
 4 720 l 1,6,-1
 64 720 l 1,0,-1
447 383 m 0,7,8
 447 349 447 349 440 328 c 1,9,-1
 393 328 l 1,10,11
 397 352 397 352 397 368 c 0,12,13
 397 412 397 412 372 443.5 c 128,-1,14
 347 475 347 475 285 475 c 128,-1,15
 223 475 223 475 184.5 426.5 c 128,-1,16
 146 378 146 378 138 324 c 2,17,-1
 93 0 l 1,18,-1
 42 0 l 1,19,-1
 114 511 l 1,20,-1
 148 511 l 1,21,-1
 148 435 l 1,22,23
 150 438 150 438 153.5 444 c 128,-1,24
 157 450 157 450 171 465 c 128,-1,25
 185 480 185 480 201.5 491 c 0,26,27
 246.5 521 246.5 521 310.75 521 c 128,-1,28
 375 521 375 521 411 482.5 c 128,-1,29
 447 444 447 444 447 383 c 0,7,8
EndSplineSet
EndChar

StartChar: rcommaaccent
Encoding: 174 343 174
Width: 489
GlyphClass: 2
Flags: MW
HStem: -149 69<22 37 13 87> 0 21G<42 93 42 42> 475 46<249.5 331> 491 20G<114 148 148 148>
VStem: 17.5 65.5 114 34<435 511> 397 50<372 393>
AnchorPoint: "Bottom" 68 0 basechar 0
LayerCount: 2
Fore
SplineSet
447 383 m 0,0,1
 447 349 447 349 440 328 c 1,2,-1
 393 328 l 1,3,4
 397 352 397 352 397 368 c 0,5,6
 397 412 397 412 372 443.5 c 128,-1,7
 347 475 347 475 285 475 c 128,-1,8
 223 475 223 475 184.5 426.5 c 128,-1,9
 146 378 146 378 138 324 c 2,10,-1
 93 0 l 1,11,-1
 42 0 l 1,12,-1
 114 511 l 1,13,-1
 148 511 l 1,14,-1
 148 435 l 1,15,16
 150 438 150 438 153.5 444 c 128,-1,17
 157 450 157 450 171 465 c 128,-1,18
 185 480 185 480 201.5 491 c 0,19,20
 246.5 521 246.5 521 310.75 521 c 128,-1,21
 375 521 375 521 411 482.5 c 128,-1,22
 447 444 447 444 447 383 c 0,0,1
33 -250 m 1,23,-1
 -1 -250 l 1,24,-1
 37 -149 l 1,25,-1
 13 -149 l 1,26,-1
 22 -80 l 1,27,-1
 87 -80 l 1,28,-1
 79 -138 l 1,29,-1
 33 -250 l 1,23,-1
EndSplineSet
EndChar

StartChar: s
Encoding: 175 115 175
Width: 536
GlyphClass: 2
Flags: MW
HStem: -10 46<179.5 274.5> 242.55 44.23 475 46<211.5 334>
VStem: 23 52<98 124.5> 72 52<312 384.5 312 411.5> 387 52<116.5 218.5> 409 51<393.5 409.5>
AnchorPoint: "Bottom" 232 0 basechar 0
LayerCount: 2
Fore
SplineSet
406 369 m 1,0,-1
 409 395 l 1,1,2
 409 426 409 426 381 450.5 c 128,-1,3
 353 475 353 475 289.5 475 c 128,-1,4
 226 475 226 475 192 462.5 c 128,-1,5
 158 450 158 450 145 431 c 0,6,7
 124 400.307692308 124 400.307692308 124 370.653846154 c 128,-1,8
 124 341 124 341 156.5 321.5 c 128,-1,9
 189 302 189 302 235.5 293 c 128,-1,10
 282 284 282 284 328 273 c 128,-1,11
 374 262 374 262 406.5 233 c 128,-1,12
 439 204 439 204 439 150 c 128,-1,13
 439 96 439 96 406.5 57.5 c 128,-1,14
 374 19 374 19 326.5 4.5 c 128,-1,15
 279 -10 279 -10 217 -10 c 0,16,17
 114 -10 114 -10 68.5 29.5 c 128,-1,18
 23 69 23 69 23 118 c 0,19,20
 23 137.5 23 137.5 29 157 c 1,21,-1
 79 157 l 1,22,23
 75 145 75 145 75 128 c 0,24,25
 75 83 75 83 115 59.5 c 128,-1,26
 155 36 155 36 228 36 c 128,-1,27
 301 36 301 36 344 67.5 c 128,-1,28
 387 99 387 99 387 143 c 128,-1,29
 387 187 387 187 354.5 207.5 c 128,-1,30
 322 228 322 228 276 236.5 c 128,-1,31
 230 245 230 245 183.5 255 c 128,-1,32
 137 265 137 265 104.5 293.5 c 128,-1,33
 72 322 72 322 72 371 c 0,34,35
 72 435 72 435 126.5 478 c 128,-1,36
 181 521 181 521 276.5 521 c 128,-1,37
 372 521 372 521 416 484.5 c 128,-1,38
 460 448 460 448 460 399 c 0,39,40
 460 373 460 373 456 369 c 1,41,-1
 406 369 l 1,0,-1
EndSplineSet
EndChar

StartChar: sacute
Encoding: 176 347 176
Width: 536
GlyphClass: 2
Flags: MW
HStem: -10 46<179.5 274.5> 242.55 44.23 475 46<211.5 334> 575 145<242 424 242 424>
VStem: 23 52<98 124.5> 72 52<312 384.5 312 411.5> 387 52<116.5 218.5> 409 51<393.5 409.5>
AnchorPoint: "Bottom" 232 0 basechar 0
LayerCount: 2
Fore
SplineSet
359 720 m 1,0,-1
 424 720 l 1,1,-1
 423 717 l 1,2,-1
 292 575 l 1,3,-1
 242 575 l 1,4,-1
 359 720 l 1,0,-1
406 369 m 1,5,-1
 409 395 l 1,6,7
 409 426 409 426 381 450.5 c 128,-1,8
 353 475 353 475 289.5 475 c 128,-1,9
 226 475 226 475 192 462.5 c 128,-1,10
 158 450 158 450 145 431 c 0,11,12
 124 400.307692308 124 400.307692308 124 370.653846154 c 128,-1,13
 124 341 124 341 156.5 321.5 c 128,-1,14
 189 302 189 302 235.5 293 c 128,-1,15
 282 284 282 284 328 273 c 128,-1,16
 374 262 374 262 406.5 233 c 128,-1,17
 439 204 439 204 439 150 c 128,-1,18
 439 96 439 96 406.5 57.5 c 128,-1,19
 374 19 374 19 326.5 4.5 c 128,-1,20
 279 -10 279 -10 217 -10 c 0,21,22
 114 -10 114 -10 68.5 29.5 c 128,-1,23
 23 69 23 69 23 118 c 0,24,25
 23 137.5 23 137.5 29 157 c 1,26,-1
 79 157 l 1,27,28
 75 145 75 145 75 128 c 0,29,30
 75 83 75 83 115 59.5 c 128,-1,31
 155 36 155 36 228 36 c 128,-1,32
 301 36 301 36 344 67.5 c 128,-1,33
 387 99 387 99 387 143 c 128,-1,34
 387 187 387 187 354.5 207.5 c 128,-1,35
 322 228 322 228 276 236.5 c 128,-1,36
 230 245 230 245 183.5 255 c 128,-1,37
 137 265 137 265 104.5 293.5 c 128,-1,38
 72 322 72 322 72 371 c 0,39,40
 72 435 72 435 126.5 478 c 128,-1,41
 181 521 181 521 276.5 521 c 128,-1,42
 372 521 372 521 416 484.5 c 128,-1,43
 460 448 460 448 460 399 c 0,44,45
 460 373 460 373 456 369 c 1,46,-1
 406 369 l 1,5,-1
EndSplineSet
EndChar

StartChar: scaron
Encoding: 177 353 177
Width: 536
GlyphClass: 2
Flags: MW
HStem: -10 46<179.5 274.5> 242.55 44.23 475 46<211.5 334> 575 145<144 315 144 257>
VStem: 23 52<98 124.5> 72 52<312 384.5 312 411.5> 387 52<116.5 218.5> 409 51<393.5 409.5>
LayerCount: 2
Fore
SplineSet
204 720 m 1,0,-1
 293 623 l 1,1,-1
 410 720 l 1,2,-1
 470 720 l 1,3,-1
 315 575 l 1,4,-1
 257 575 l 1,5,-1
 144 720 l 1,6,-1
 204 720 l 1,0,-1
406 369 m 1,7,-1
 409 395 l 1,8,9
 409 426 409 426 381 450.5 c 128,-1,10
 353 475 353 475 289.5 475 c 128,-1,11
 226 475 226 475 192 462.5 c 128,-1,12
 158 450 158 450 145 431 c 0,13,14
 124 400.307692308 124 400.307692308 124 370.653846154 c 128,-1,15
 124 341 124 341 156.5 321.5 c 128,-1,16
 189 302 189 302 235.5 293 c 128,-1,17
 282 284 282 284 328 273 c 128,-1,18
 374 262 374 262 406.5 233 c 128,-1,19
 439 204 439 204 439 150 c 128,-1,20
 439 96 439 96 406.5 57.5 c 128,-1,21
 374 19 374 19 326.5 4.5 c 128,-1,22
 279 -10 279 -10 217 -10 c 0,23,24
 114 -10 114 -10 68.5 29.5 c 128,-1,25
 23 69 23 69 23 118 c 0,26,27
 23 137.5 23 137.5 29 157 c 1,28,-1
 79 157 l 1,29,30
 75 145 75 145 75 128 c 0,31,32
 75 83 75 83 115 59.5 c 128,-1,33
 155 36 155 36 228 36 c 128,-1,34
 301 36 301 36 344 67.5 c 128,-1,35
 387 99 387 99 387 143 c 128,-1,36
 387 187 387 187 354.5 207.5 c 128,-1,37
 322 228 322 228 276 236.5 c 128,-1,38
 230 245 230 245 183.5 255 c 128,-1,39
 137 265 137 265 104.5 293.5 c 128,-1,40
 72 322 72 322 72 371 c 0,41,42
 72 435 72 435 126.5 478 c 128,-1,43
 181 521 181 521 276.5 521 c 128,-1,44
 372 521 372 521 416 484.5 c 128,-1,45
 460 448 460 448 460 399 c 0,46,47
 460 373 460 373 456 369 c 1,48,-1
 406 369 l 1,7,-1
EndSplineSet
EndChar

StartChar: scedilla
Encoding: 178 351 178
Width: 536
GlyphClass: 2
Flags: MW
HStem: -197 46<186.5 214 179.5 223> -184 21G<123 123> -51 34<211 228 206 240.5> -10 46<179.5 274.5> 242.55 44.23 475 46<211.5 334>
VStem: 23 52<98 124.5> 72 52<312 384.5 312 411.5> 280 51<-115 -77.5> 387 52<116.5 218.5> 409 51<393.5 409.5>
AnchorPoint: "Bottom" 232 0 basechar 0
LayerCount: 2
Fore
SplineSet
406 369 m 1,0,-1
 409 395 l 1,1,2
 409 426 409 426 381 450.5 c 128,-1,3
 353 475 353 475 289.5 475 c 128,-1,4
 226 475 226 475 192 462.5 c 128,-1,5
 158 450 158 450 145 431 c 0,6,7
 124 400.307692308 124 400.307692308 124 370.653846154 c 128,-1,8
 124 341 124 341 156.5 321.5 c 128,-1,9
 189 302 189 302 235.5 293 c 128,-1,10
 282 284 282 284 328 273 c 128,-1,11
 374 262 374 262 406.5 233 c 128,-1,12
 439 204 439 204 439 150 c 128,-1,13
 439 96 439 96 406.5 57.5 c 128,-1,14
 374 19 374 19 326.5 4.5 c 128,-1,15
 279 -10 279 -10 217 -10 c 0,16,17
 114 -10 114 -10 68.5 29.5 c 128,-1,18
 23 69 23 69 23 118 c 0,19,20
 23 137.5 23 137.5 29 157 c 1,21,-1
 79 157 l 1,22,23
 75 145 75 145 75 128 c 0,24,25
 75 83 75 83 115 59.5 c 128,-1,26
 155 36 155 36 228 36 c 128,-1,27
 301 36 301 36 344 67.5 c 128,-1,28
 387 99 387 99 387 143 c 128,-1,29
 387 187 387 187 354.5 207.5 c 128,-1,30
 322 228 322 228 276 236.5 c 128,-1,31
 230 245 230 245 183.5 255 c 128,-1,32
 137 265 137 265 104.5 293.5 c 128,-1,33
 72 322 72 322 72 371 c 0,34,35
 72 435 72 435 126.5 478 c 128,-1,36
 181 521 181 521 276.5 521 c 128,-1,37
 372 521 372 521 416 484.5 c 128,-1,38
 460 448 460 448 460 399 c 0,39,40
 460 373 460 373 456 369 c 1,41,-1
 406 369 l 1,0,-1
123 -184 m 1,42,-1
 129 -138 l 1,43,44
 151 -151 151 -151 190 -151 c 0,45,46
 280 -151 280 -151 280 -91 c 0,47,48
 280 -72 280 -72 264.5 -61.5 c 128,-1,49
 249 -51 249 -51 228 -51 c 2,50,-1
 206 -51 l 1,51,-1
 211 -17 l 1,52,53
 300.967741935 -17 300.967741935 -17 321.5 -50.5 c 0,54,55
 331 -66 331 -66 331 -98 c 128,-1,56
 331 -130 331 -130 307 -155.5 c 0,57,58
 267.941176471 -197 267.941176471 -197 199 -197 c 0,59,60
 155 -197 155 -197 123 -184 c 1,42,-1
EndSplineSet
EndChar

StartChar: scommaaccent
Encoding: 179 537 179
Width: 536
GlyphClass: 2
Flags: MW
HStem: -149 69<186 201 177 251> -10 46<179.5 274.5> 242.55 44.23 475 46<211.5 334>
VStem: 23 52<98 124.5> 72 52<312 384.5 312 411.5> 181.5 65.5 387 52<116.5 218.5> 409 51<393.5 409.5>
AnchorPoint: "Bottom" 232 0 basechar 0
LayerCount: 2
Fore
SplineSet
406 369 m 1,0,-1
 409 395 l 1,1,2
 409 426 409 426 381 450.5 c 128,-1,3
 353 475 353 475 289.5 475 c 128,-1,4
 226 475 226 475 192 462.5 c 128,-1,5
 158 450 158 450 145 431 c 0,6,7
 124 400.307692308 124 400.307692308 124 370.653846154 c 128,-1,8
 124 341 124 341 156.5 321.5 c 128,-1,9
 189 302 189 302 235.5 293 c 128,-1,10
 282 284 282 284 328 273 c 128,-1,11
 374 262 374 262 406.5 233 c 128,-1,12
 439 204 439 204 439 150 c 128,-1,13
 439 96 439 96 406.5 57.5 c 128,-1,14
 374 19 374 19 326.5 4.5 c 128,-1,15
 279 -10 279 -10 217 -10 c 0,16,17
 114 -10 114 -10 68.5 29.5 c 128,-1,18
 23 69 23 69 23 118 c 0,19,20
 23 137.5 23 137.5 29 157 c 1,21,-1
 79 157 l 1,22,23
 75 145 75 145 75 128 c 0,24,25
 75 83 75 83 115 59.5 c 128,-1,26
 155 36 155 36 228 36 c 128,-1,27
 301 36 301 36 344 67.5 c 128,-1,28
 387 99 387 99 387 143 c 128,-1,29
 387 187 387 187 354.5 207.5 c 128,-1,30
 322 228 322 228 276 236.5 c 128,-1,31
 230 245 230 245 183.5 255 c 128,-1,32
 137 265 137 265 104.5 293.5 c 128,-1,33
 72 322 72 322 72 371 c 0,34,35
 72 435 72 435 126.5 478 c 128,-1,36
 181 521 181 521 276.5 521 c 128,-1,37
 372 521 372 521 416 484.5 c 128,-1,38
 460 448 460 448 460 399 c 0,39,40
 460 373 460 373 456 369 c 1,41,-1
 406 369 l 1,0,-1
197 -250 m 1,42,-1
 163 -250 l 1,43,-1
 201 -149 l 1,44,-1
 177 -149 l 1,45,-1
 186 -80 l 1,46,-1
 251 -80 l 1,47,-1
 243 -138 l 1,48,-1
 197 -250 l 1,42,-1
EndSplineSet
EndChar

StartChar: germandbls
Encoding: 180 223 180
Width: 614
GlyphClass: 2
Flags: MW
HStem: 0 46<191 277 185 283> 361 46<242 323 323 328 236 323> 465 46<79 128 72 135> 682 46<322 411>
VStem: 471 52<175.5 262.5> 496 52<533 598>
LayerCount: 2
Fore
SplineSet
423 388 m 1,0,-1
 424 385 l 1,1,2
 469 367 469 367 496 324.5 c 128,-1,3
 523 282 523 282 523 229 c 0,4,5
 523 136 523 136 448.5 68 c 128,-1,6
 374 0 374 0 277 0 c 2,7,-1
 185 0 l 1,8,-1
 191 46 l 1,9,-1
 283 46 l 2,10,11
 357 46 357 46 414 99 c 128,-1,12
 471 152 471 152 471 217 c 0,13,14
 471 282 471 282 430.5 321.5 c 128,-1,15
 390 361 390 361 328 361 c 2,16,-1
 236 361 l 1,17,-1
 242 407 l 1,18,-1
 323 407 l 2,19,20
 394 407 394 407 445 454 c 128,-1,21
 496 501 496 501 496 558.5 c 0,22,23
 496 616 496 616 462.5 649 c 128,-1,24
 429 682 429 682 363.5 682 c 0,25,26
 298 682 298 682 247.5 636 c 128,-1,27
 197 590 197 590 186 514 c 2,28,-1
 105 -66 l 1,29,-1
 54 -66 l 1,30,-1
 128 465 l 1,31,-1
 72 465 l 1,32,-1
 79 511 l 1,33,-1
 135 511 l 1,34,35
 148 609 148 609 215.5 668.5 c 128,-1,36
 283 728 283 728 378 728 c 0,37,38
 454 728 454 728 501 683.5 c 128,-1,39
 548 639 548 639 548 576.5 c 0,40,41
 548 514 548 514 511.5 460.5 c 128,-1,42
 475 407 475 407 423 388 c 1,0,-1
EndSplineSet
EndChar

StartChar: t
Encoding: 181 116 181
Width: 344
GlyphClass: 2
Flags: MW
HStem: -10 46<153.5 165.5> 465 46<69 118 62 125 69 169 176 288>
VStem: 65 51<63 80>
AnchorPoint: "Bottom" 136 0 basechar 0
LayerCount: 2
Fore
SplineSet
230 52 m 1,0,-1
 224 7 l 1,1,2
 192 -10 192 -10 152 -10 c 0,3,4
 112 -10 112 -10 88.5 11.5 c 128,-1,5
 65 33 65 33 65 76 c 0,6,7
 65 83 65 83 67 101 c 2,8,-1
 118 465 l 1,9,-1
 62 465 l 1,10,-1
 69 511 l 1,11,-1
 125 511 l 1,12,-1
 166 674 l 1,13,-1
 199 674 l 1,14,-1
 176 511 l 1,15,-1
 295 511 l 1,16,-1
 288 465 l 1,17,-1
 169 465 l 1,18,-1
 118 103 l 2,19,20
 116 89 116 89 116 84 c 0,21,22
 116 36 116 36 166 36 c 0,23,24
 191 36 191 36 230 52 c 1,0,-1
EndSplineSet
EndChar

StartChar: tcaron
Encoding: 182 357 182
Width: 344
GlyphClass: 2
Flags: MW
HStem: -10 46<153.5 165.5> 465 46<69 118 62 125 69 169 176 288> 496 20G<348 382 348 348.5> 516 170<370 382 348 435> 617 69<370 385 361 435>
VStem: 65 51<63 80> 365.5 65.5
AnchorPoint: "Bottom" 136 0 basechar 0
LayerCount: 2
Fore
SplineSet
382 516 m 1,0,-1
 348 516 l 1,1,-1
 385 617 l 1,2,-1
 361 617 l 1,3,-1
 370 686 l 1,4,-1
 435 686 l 1,5,-1
 427 628 l 1,6,-1
 382 516 l 1,0,-1
230 52 m 1,7,-1
 224 7 l 1,8,9
 192 -10 192 -10 152 -10 c 0,10,11
 112 -10 112 -10 88.5 11.5 c 128,-1,12
 65 33 65 33 65 76 c 0,13,14
 65 83 65 83 67 101 c 2,15,-1
 118 465 l 1,16,-1
 62 465 l 1,17,-1
 69 511 l 1,18,-1
 125 511 l 1,19,-1
 166 674 l 1,20,-1
 199 674 l 1,21,-1
 176 511 l 1,22,-1
 295 511 l 1,23,-1
 288 465 l 1,24,-1
 169 465 l 1,25,-1
 118 103 l 2,26,27
 116 89 116 89 116 84 c 0,28,29
 116 36 116 36 166 36 c 0,30,31
 191 36 191 36 230 52 c 1,7,-1
EndSplineSet
EndChar

StartChar: tcedilla
Encoding: 183 355 183
Width: 344
GlyphClass: 2
Flags: MW
HStem: -197 46<90.5 118 83.5 127> -184 21G<27 27> -51 34<115 132 110 144.5> -10 46<153.5 165.5> 465 46<69 118 62 125 69 169 176 288>
VStem: 65 51<63 80> 184 51<-115 -77.5>
AnchorPoint: "Bottom" 136 0 basechar 0
LayerCount: 2
Fore
SplineSet
230 52 m 1,0,-1
 224 7 l 1,1,2
 192 -10 192 -10 152 -10 c 128,-1,3
 112 -10 112 -10 88.5 11.5 c 128,-1,4
 65 33 65 33 65 76 c 0,5,6
 65 83 65 83 67 101 c 2,7,-1
 118 465 l 1,8,-1
 62 465 l 1,9,-1
 69 511 l 1,10,-1
 125 511 l 1,11,-1
 166 674 l 1,12,-1
 199 674 l 1,13,-1
 176 511 l 1,14,-1
 295 511 l 1,15,-1
 288 465 l 1,16,-1
 169 465 l 1,17,-1
 118 103 l 2,18,19
 116 89 116 89 116 84 c 0,20,21
 116 36 116 36 166 36 c 0,22,23
 191 36 191 36 230 52 c 1,0,-1
27 -184 m 1,24,-1
 33 -138 l 1,25,26
 55 -151 55 -151 94.5 -151 c 0,27,28
 184 -151 184 -151 184 -91 c 0,29,30
 184 -72 184 -72 168.5 -61.5 c 128,-1,31
 153 -51 153 -51 132 -51 c 2,32,-1
 110 -51 l 1,33,-1
 115 -17 l 1,34,35
 204.967741935 -17 204.967741935 -17 225.5 -50.5 c 0,36,37
 235 -66 235 -66 235 -98 c 128,-1,38
 235 -130 235 -130 211 -155.5 c 0,39,40
 171.941176471 -197 171.941176471 -197 103 -197 c 0,41,42
 59 -197 59 -197 27 -184 c 1,24,-1
EndSplineSet
EndChar

StartChar: tcommaaccent
Encoding: 184 539 184
Width: 344
GlyphClass: 2
Flags: MW
HStem: -149 69<90 105 81 155> -10 46<153.5 165.5> 465 46<69 118 62 125 69 169 176 288>
VStem: 65 51<63 80> 85.5 65.5
AnchorPoint: "Bottom" 136 0 basechar 0
LayerCount: 2
Fore
SplineSet
230 52 m 1,0,-1
 224 7 l 1,1,2
 192 -10 192 -10 152 -10 c 0,3,4
 112 -10 112 -10 88.5 11.5 c 128,-1,5
 65 33 65 33 65 76 c 0,6,7
 65 83 65 83 67 101 c 2,8,-1
 118 465 l 1,9,-1
 62 465 l 1,10,-1
 69 511 l 1,11,-1
 125 511 l 1,12,-1
 166 674 l 1,13,-1
 199 674 l 1,14,-1
 176 511 l 1,15,-1
 295 511 l 1,16,-1
 288 465 l 1,17,-1
 169 465 l 1,18,-1
 118 103 l 2,19,20
 116 89 116 89 116 84 c 0,21,22
 116 36 116 36 166 36 c 0,23,24
 191 36 191 36 230 52 c 1,0,-1
101 -250 m 1,25,-1
 67 -250 l 1,26,-1
 105 -149 l 1,27,-1
 81 -149 l 1,28,-1
 90 -80 l 1,29,-1
 155 -80 l 1,30,-1
 147 -138 l 1,31,-1
 101 -250 l 1,25,-1
EndSplineSet
EndChar

StartChar: u
Encoding: 185 117 185
Width: 617
GlyphClass: 2
Flags: MW
HStem: -10 46<196 254.5 463.5 465.5> 491 20G<107 158 158 158 459 510 510 510>
VStem: 58 53<112.5 165> 396 51<52 58.5>
LayerCount: 2
Fore
SplineSet
398 76 m 1,0,1
 366 36 366 36 318.5 13 c 128,-1,2
 271 -10 271 -10 221 -10 c 0,3,4
 146 -10 146 -10 102 28 c 128,-1,5
 58 66 58 66 58 142 c 0,6,7
 58 189.56 58 189.56 94.5 429 c 2,8,-1
 107 511 l 1,9,-1
 158 511 l 1,10,11
 111 194 111 194 111 157 c 0,12,13
 111 93 111 93 142.5 64.5 c 128,-1,14
 174 36 174 36 238 36 c 128,-1,15
 302 36 302 36 353.5 82 c 128,-1,16
 405 128 405 128 415 197 c 2,17,-1
 459 511 l 1,18,-1
 510 511 l 1,19,20
 447 73 447 73 447 61 c 0,21,22
 447 36 447 36 470 36 c 128,-1,23
 493 36 493 36 523 52 c 1,24,-1
 517 9 l 1,25,26
 487 -10 487 -10 454 -10 c 0,27,28
 396 -10 396 -10 396 55 c 0,29,30
 396 62 396 62 398 76 c 1,0,1
EndSplineSet
EndChar

StartChar: uacute
Encoding: 186 250 186
Width: 617
GlyphClass: 2
Flags: MW
HStem: -10 46<196 254.5 463.5 465.5> 491 20G<107 158 158 158 459 510 510 510> 575 145<289 471 289 471>
VStem: 58 53<112.5 165> 396 51<52 58.5>
LayerCount: 2
Fore
SplineSet
406 720 m 1,0,-1
 471 720 l 1,1,-1
 470 717 l 1,2,-1
 339 575 l 1,3,-1
 289 575 l 1,4,-1
 406 720 l 1,0,-1
398 76 m 1,5,6
 366 36 366 36 318.5 13 c 128,-1,7
 271 -10 271 -10 221 -10 c 0,8,9
 146 -10 146 -10 102 28 c 128,-1,10
 58 66 58 66 58 142 c 0,11,12
 58 189.56 58 189.56 94.5 429 c 2,13,-1
 107 511 l 1,14,-1
 158 511 l 1,15,16
 111 197 111 197 111 157 c 0,17,18
 111 93 111 93 142.5 64.5 c 128,-1,19
 174 36 174 36 238 36 c 128,-1,20
 302 36 302 36 353.5 82 c 128,-1,21
 405 128 405 128 415 197 c 2,22,-1
 459 511 l 1,23,-1
 510 511 l 1,24,25
 447 73 447 73 447 61 c 0,26,27
 447 36 447 36 470 36 c 128,-1,28
 493 36 493 36 523 52 c 1,29,-1
 517 9 l 1,30,31
 487 -10 487 -10 454 -10 c 0,32,33
 396 -10 396 -10 396 55 c 0,34,35
 396 62 396 62 398 76 c 1,5,6
EndSplineSet
EndChar

StartChar: ucircumflex
Encoding: 187 251 187
Width: 617
GlyphClass: 2
Flags: MW
HStem: -10 46<196 254.5 463.5 465.5> 491 20G<107 158 158 158 459 510 510 510> 575 145<148 361 303 474 303 414>
VStem: 58 53<112.5 165> 396 51<52 58.5>
LayerCount: 2
Fore
SplineSet
361 720 m 1,0,-1
 474 575 l 1,1,-1
 414 575 l 1,2,-1
 325 672 l 1,3,-1
 208 575 l 1,4,-1
 148 575 l 1,5,-1
 303 720 l 1,6,-1
 361 720 l 1,0,-1
398 76 m 1,7,8
 366 36 366 36 318.5 13 c 128,-1,9
 271 -10 271 -10 221 -10 c 0,10,11
 146 -10 146 -10 102 28 c 128,-1,12
 58 66 58 66 58 142 c 0,13,14
 58 189.56 58 189.56 94.5 429 c 2,15,-1
 107 511 l 1,16,-1
 158 511 l 1,17,18
 111 197 111 197 111 157 c 0,19,20
 111 93 111 93 142.5 64.5 c 128,-1,21
 174 36 174 36 238 36 c 128,-1,22
 302 36 302 36 353.5 82 c 128,-1,23
 405 128 405 128 415 197 c 2,24,-1
 459 511 l 1,25,-1
 510 511 l 1,26,27
 447 73 447 73 447 61 c 0,28,29
 447 36 447 36 470 36 c 128,-1,30
 493 36 493 36 523 52 c 1,31,-1
 517 9 l 1,32,33
 487 -10 487 -10 454 -10 c 0,34,35
 396 -10 396 -10 396 55 c 0,36,37
 396 62 396 62 398 76 c 1,7,8
EndSplineSet
EndChar

StartChar: udieresis
Encoding: 188 252 188
Width: 617
GlyphClass: 2
Flags: MW
HStem: -10 46<196 254.5 463.5 465.5> 491 20G<107 158 158 158 459 510 510 510> 651 69<209 265 200 274 385 441>
VStem: 58 53<112.5 165> 204.5 65 380.5 65 396 51<52 58.5>
LayerCount: 2
Fore
SplineSet
274 720 m 1,0,-1
 265 651 l 1,1,-1
 200 651 l 1,2,-1
 209 720 l 1,3,-1
 274 720 l 1,0,-1
450 720 m 1,4,-1
 441 651 l 1,5,-1
 376 651 l 1,6,-1
 385 720 l 1,7,-1
 450 720 l 1,4,-1
398 76 m 1,8,9
 366 36 366 36 318.5 13 c 128,-1,10
 271 -10 271 -10 221 -10 c 0,11,12
 146 -10 146 -10 102 28 c 128,-1,13
 58 66 58 66 58 142 c 0,14,15
 58 189.56 58 189.56 94.5 429 c 2,16,-1
 107 511 l 1,17,-1
 158 511 l 1,18,19
 111 197 111 197 111 157 c 0,20,21
 111 93 111 93 142.5 64.5 c 128,-1,22
 174 36 174 36 238 36 c 128,-1,23
 302 36 302 36 353.5 82 c 128,-1,24
 405 128 405 128 415 197 c 2,25,-1
 459 511 l 1,26,-1
 510 511 l 1,27,28
 447 73 447 73 447 61 c 0,29,30
 447 36 447 36 470 36 c 128,-1,31
 493 36 493 36 523 52 c 1,32,-1
 517 9 l 1,33,34
 487 -10 487 -10 454 -10 c 0,35,36
 396 -10 396 -10 396 55 c 0,37,38
 396 62 396 62 398 76 c 1,8,9
EndSplineSet
EndChar

StartChar: ugrave
Encoding: 189 249 189
Width: 617
GlyphClass: 2
Flags: MW
HStem: -10 46<196 254.5 463.5 465.5> 491 20G<107 158 158 158 459 510 510 510> 575 145<211 351 211 301>
VStem: 58 53<112.5 165> 396 51<52 58.5>
LayerCount: 2
Fore
SplineSet
210 717 m 1,0,-1
 211 720 l 1,1,-1
 276 720 l 1,2,-1
 351 575 l 1,3,-1
 301 575 l 1,4,-1
 210 717 l 1,0,-1
398 76 m 1,5,6
 366 36 366 36 318.5 13 c 128,-1,7
 271 -10 271 -10 221 -10 c 0,8,9
 146 -10 146 -10 102 28 c 128,-1,10
 58 66 58 66 58 142 c 0,11,12
 58 189.56 58 189.56 94.5 429 c 2,13,-1
 107 511 l 1,14,-1
 158 511 l 1,15,16
 111 197 111 197 111 157 c 0,17,18
 111 93 111 93 142.5 64.5 c 128,-1,19
 174 36 174 36 238 36 c 128,-1,20
 302 36 302 36 353.5 82 c 128,-1,21
 405 128 405 128 415 197 c 2,22,-1
 459 511 l 1,23,-1
 510 511 l 1,24,25
 447 73 447 73 447 61 c 0,26,27
 447 36 447 36 470 36 c 128,-1,28
 493 36 493 36 523 52 c 1,29,-1
 517 9 l 1,30,31
 487 -10 487 -10 454 -10 c 0,32,33
 396 -10 396 -10 396 55 c 0,34,35
 396 62 396 62 398 76 c 1,5,6
EndSplineSet
EndChar

StartChar: uhungarumlaut
Encoding: 190 369 190
Width: 617
GlyphClass: 2
Flags: MW
HStem: -10 46<196 254.5 463.5 465.5> 491 20G<107 158 158 158 459 510 510 510> 575 145<222 403 222 403 347 347 347 397>
VStem: 58 53<112.5 165> 396 51<52 58.5>
LayerCount: 2
Fore
SplineSet
339 720 m 1,0,-1
 403 720 l 1,1,-1
 403 716 l 1,2,-1
 272 575 l 1,3,-1
 222 575 l 1,4,-1
 339 720 l 1,0,-1
464 720 m 1,5,-1
 528 720 l 1,6,-1
 528 716 l 1,7,-1
 397 575 l 1,8,-1
 347 575 l 1,9,-1
 464 720 l 1,5,-1
398 76 m 1,10,11
 366 36 366 36 318.5 13 c 128,-1,12
 271 -10 271 -10 221 -10 c 0,13,14
 146 -10 146 -10 102 28 c 128,-1,15
 58 66 58 66 58 142 c 0,16,17
 58 189.56 58 189.56 94.5 429 c 2,18,-1
 107 511 l 1,19,-1
 158 511 l 1,20,21
 111 194 111 194 111 157 c 0,22,23
 111 93 111 93 142.5 64.5 c 128,-1,24
 174 36 174 36 238 36 c 128,-1,25
 302 36 302 36 353.5 82 c 128,-1,26
 405 128 405 128 415 197 c 2,27,-1
 459 511 l 1,28,-1
 510 511 l 1,29,30
 447 73 447 73 447 61 c 0,31,32
 447 36 447 36 470 36 c 128,-1,33
 493 36 493 36 523 52 c 1,34,-1
 517 9 l 1,35,36
 487 -10 487 -10 454 -10 c 0,37,38
 396 -10 396 -10 396 55 c 0,39,40
 396 62 396 62 398 76 c 1,10,11
EndSplineSet
EndChar

StartChar: umacron
Encoding: 191 363 191
Width: 617
GlyphClass: 2
Flags: MW
HStem: -10 46<196 254.5 463.5 465.5> 491 20G<107 158 158 158 459 510 510 510> 691 45<182 492 174 500>
VStem: 58 53<112.5 165> 396 51<52 58.5>
LayerCount: 2
Fore
SplineSet
182 736 m 1,0,-1
 500 736 l 1,1,-1
 492 691 l 1,2,-1
 174 691 l 1,3,-1
 182 736 l 1,0,-1
398 76 m 1,4,5
 366 36 366 36 318.5 13 c 128,-1,6
 271 -10 271 -10 221 -10 c 0,7,8
 146 -10 146 -10 102 28 c 128,-1,9
 58 66 58 66 58 142 c 0,10,11
 58 189.56 58 189.56 94.5 429 c 2,12,-1
 107 511 l 1,13,-1
 158 511 l 1,14,15
 111 194 111 194 111 157 c 0,16,17
 111 93 111 93 142.5 64.5 c 128,-1,18
 174 36 174 36 238 36 c 128,-1,19
 302 36 302 36 353.5 82 c 128,-1,20
 405 128 405 128 415 197 c 2,21,-1
 459 511 l 1,22,-1
 510 511 l 1,23,24
 447 73 447 73 447 61 c 0,25,26
 447 36 447 36 470 36 c 128,-1,27
 493 36 493 36 523 52 c 1,28,-1
 517 9 l 1,29,30
 487 -10 487 -10 454 -10 c 0,31,32
 396 -10 396 -10 396 55 c 0,33,34
 396 62 396 62 398 76 c 1,4,5
EndSplineSet
EndChar

StartChar: uogonek
Encoding: 192 371 192
Width: 617
GlyphClass: 2
Flags: MW
HStem: -143 43<488.5 502.5> -10 46<196 254.5> 0 21G<500 516 516 516> 491 20G<107 158 158 158 459 510 510 510>
VStem: 58 53<112.5 165> 396 51<52 58.5> 401 58<-80 -66.5>
LayerCount: 2
Fore
SplineSet
567 -86 m 1,0,-1
 576 -119 l 1,1,2
 534 -143 534 -143 488 -143 c 0,3,4
 401 -143 401 -143 401 -83 c 0,5,6
 401 -44 401 -44 450 -10 c 1,7,8
 396 -7 396 -7 396 55 c 0,9,10
 396 62 396 62 398 76 c 1,11,12
 366 36 366 36 318.5 13 c 128,-1,13
 271 -10 271 -10 221 -10 c 0,14,15
 146 -10 146 -10 102 28 c 128,-1,16
 58 66 58 66 58 142 c 0,17,18
 58 189.56 58 189.56 94.5 429 c 2,19,-1
 107 511 l 1,20,-1
 158 511 l 1,21,22
 111 194 111 194 111 157 c 0,23,24
 111 93 111 93 142.5 64.5 c 128,-1,25
 174 36 174 36 238 36 c 128,-1,26
 302 36 302 36 353.5 82 c 128,-1,27
 405 128 405 128 415 197 c 2,28,-1
 459 511 l 1,29,-1
 510 511 l 1,30,31
 447 73 447 73 447 61 c 0,32,33
 447 36 447 36 470 36 c 128,-1,34
 493 36 493 36 523 52 c 1,35,-1
 517 9 l 1,36,37
 512 6 512 6 500 0 c 1,38,-1
 516 0 l 1,39,-1
 512 -2 l 1,40,41
 459 -35 459 -35 459 -67.5 c 128,-1,42
 459 -100 459 -100 498 -100 c 0,43,44
 523 -100 523 -100 567 -86 c 1,0,-1
EndSplineSet
EndChar

StartChar: uring
Encoding: 193 367 193
Width: 617
GlyphClass: 2
Flags: MW
HStem: -10 46<196 254.5 463.5 465.5> 491 20G<107 158 158 158 459 510 510 510> 545 36<303 338.5 303 346> 710 36<318.5 353.5>
VStem: 58 53<112.5 165> 226 36<620 656 620 665> 394 36<634.5 671> 396 51<52 58.5>
LayerCount: 2
Fore
SplineSet
405 721.5 m 128,-1,1
 430 697 430 697 430 655 c 128,-1,2
 430 613 430 613 396 579 c 128,-1,3
 362 545 362 545 319 545 c 128,-1,4
 276 545 276 545 251 569.5 c 128,-1,5
 226 594 226 594 226 637 c 128,-1,6
 226 680 226 680 261.5 713 c 128,-1,7
 297 746 297 746 338.5 746 c 128,-1,0
 380 746 380 746 405 721.5 c 128,-1,1
278.5 596.5 m 128,-1,9
 295 581 295 581 322 581 c 128,-1,10
 349 581 349 581 371.5 603 c 128,-1,11
 394 625 394 625 394 652 c 128,-1,12
 394 679 394 679 378 694.5 c 128,-1,13
 362 710 362 710 335 710 c 128,-1,14
 308 710 308 710 285 688 c 128,-1,15
 262 666 262 666 262 639 c 128,-1,8
 262 612 262 612 278.5 596.5 c 128,-1,9
398 76 m 1,16,17
 366 36 366 36 318.5 13 c 128,-1,18
 271 -10 271 -10 221 -10 c 0,19,20
 146 -10 146 -10 102 28 c 128,-1,21
 58 66 58 66 58 142 c 0,22,23
 58 189.56 58 189.56 94.5 429 c 2,24,-1
 107 511 l 1,25,-1
 158 511 l 1,26,27
 111 194 111 194 111 157 c 0,28,29
 111 93 111 93 142.5 64.5 c 128,-1,30
 174 36 174 36 238 36 c 128,-1,31
 302 36 302 36 353.5 82 c 128,-1,32
 405 128 405 128 415 197 c 2,33,-1
 459 511 l 1,34,-1
 510 511 l 1,35,36
 447 73 447 73 447 61 c 0,37,38
 447 36 447 36 470 36 c 128,-1,39
 493 36 493 36 523 52 c 1,40,-1
 517 9 l 1,41,42
 487 -10 487 -10 454 -10 c 0,43,44
 396 -10 396 -10 396 55 c 0,45,46
 396 62 396 62 398 76 c 1,16,17
EndSplineSet
EndChar

StartChar: v
Encoding: 194 118 194
Width: 512
GlyphClass: 2
Flags: MW
HStem: 0 21G<178 178 178 223> 0 74<178 215 211 215 211 223> 491 20G<43 98 98 98 451 501 501 501>
VStem: 43 458<511 511>
LayerCount: 2
Fore
SplineSet
178 0 m 1,0,-1
 43 511 l 1,1,-1
 98 511 l 1,2,-1
 211 74 l 1,3,-1
 215 74 l 1,4,-1
 451 511 l 1,5,-1
 501 511 l 1,6,-1
 223 0 l 1,7,-1
 178 0 l 1,0,-1
EndSplineSet
EndChar

StartChar: w
Encoding: 195 119 195
Width: 809
GlyphClass: 2
Flags: MW
HStem: 0 21G<156 156 156 196 508 508 508 548> 0 93<156 193 189 193 189 196 541 545> 446 65<412 416 412 412>
VStem: 50 747<511 511>
LayerCount: 2
Fore
SplineSet
156 0 m 1,0,-1
 50 511 l 1,1,-1
 103 511 l 1,2,-1
 189 93 l 1,3,-1
 193 93 l 1,4,-1
 396 511 l 1,5,-1
 455 511 l 1,6,-1
 541 93 l 1,7,-1
 545 93 l 1,8,-1
 748 511 l 1,9,-1
 797 511 l 1,10,-1
 548 0 l 1,11,-1
 508 0 l 1,12,-1
 416 446 l 1,13,-1
 412 446 l 1,14,-1
 196 0 l 1,15,-1
 156 0 l 1,0,-1
EndSplineSet
EndChar

StartChar: x
Encoding: 196 120 196
Width: 517
GlyphClass: 2
Flags: MW
HStem: 0 21G<-23 34 -23 -23 351 351 351 414> 491 20G<55 119 119 119 418 476 476 476>
VStem: -23 499
LayerCount: 2
Fore
SplineSet
227 221 m 1,0,-1
 223 221 l 1,1,-1
 34 0 l 1,2,-1
 -23 0 l 1,3,-1
 202 262 l 1,4,-1
 55 511 l 1,5,-1
 119 511 l 1,6,-1
 238 303 l 1,7,-1
 242 303 l 1,8,-1
 418 511 l 1,9,-1
 476 511 l 1,10,-1
 260 262 l 1,11,-1
 414 0 l 1,12,-1
 351 0 l 1,13,-1
 227 221 l 1,0,-1
EndSplineSet
EndChar

StartChar: y
Encoding: 197 121 197
Width: 510
GlyphClass: 2
Flags: MW
HStem: -186 46<32 67 31 88.5> 491 20G<42 97 97 97 450 500 500 500>
VStem: -19 519
LayerCount: 2
Fore
SplineSet
500 511 m 1,0,-1
 228 13 l 1,1,2
 164.047619048 -114.904761905 164.047619048 -114.904761905 135 -142.5 c 0,3,4
 100.167785235 -175.590604027 100.167785235 -175.590604027 81.0838926174 -180.795302013 c 128,-1,5
 62 -186 62 -186 36 -186 c 128,-1,6
 10 -186 10 -186 -19 -172 c 1,7,-1
 -12 -126 l 1,8,9
 18 -140 18 -140 38.5 -140 c 128,-1,10
 59 -140 59 -140 75 -132.5 c 128,-1,11
 91 -125 91 -125 104.5 -108 c 0,12,13
 123.094339623 -84.5849056604 123.094339623 -84.5849056604 144 -48 c 2,14,-1
 175 8 l 1,15,-1
 42 511 l 1,16,-1
 97 511 l 1,17,-1
 210 76 l 1,18,-1
 214 76 l 1,19,-1
 450 511 l 1,20,-1
 500 511 l 1,0,-1
EndSplineSet
EndChar

StartChar: yacute
Encoding: 198 253 198
Width: 510
GlyphClass: 2
Flags: MW
HStem: -186 46<32 67 31 88.5> 491 20G<42 97 97 97 450 500 500 500> 575 145<249 431 249 431>
VStem: -19 519
LayerCount: 2
Fore
SplineSet
366 720 m 1,0,-1
 431 720 l 1,1,-1
 430 717 l 1,2,-1
 299 575 l 1,3,-1
 249 575 l 1,4,-1
 366 720 l 1,0,-1
500 511 m 1,5,-1
 228 13 l 1,6,7
 164.047619048 -114.904761905 164.047619048 -114.904761905 135 -142.5 c 0,8,9
 100.167785235 -175.590604027 100.167785235 -175.590604027 81.0838926174 -180.795302013 c 128,-1,10
 62 -186 62 -186 36 -186 c 128,-1,11
 10 -186 10 -186 -19 -172 c 1,12,-1
 -12 -126 l 1,13,14
 18 -140 18 -140 38.5 -140 c 128,-1,15
 59 -140 59 -140 75 -132.5 c 128,-1,16
 91 -125 91 -125 104.5 -108 c 0,17,18
 123.094339623 -84.5849056604 123.094339623 -84.5849056604 144 -48 c 2,19,-1
 175 8 l 1,20,-1
 42 511 l 1,21,-1
 97 511 l 1,22,-1
 210 76 l 1,23,-1
 214 76 l 1,24,-1
 450 511 l 1,25,-1
 500 511 l 1,5,-1
EndSplineSet
EndChar

